<svg width="512" xmlns="http://www.w3.org/2000/svg" height="512" viewBox="0.5 512.5 512 512" enable-background="new 0.5 512.5 512 512"><defs><linearGradient gradientTransform="matrix(0 -1 1 0 -2765.334 6891.67)" id="e" x1="6068.06" gradientUnits="userSpaceOnUse" x2="6223.646"><stop offset="0" stop-color="#f0f"/><stop offset="1" stop-color="#ff0"/></linearGradient><linearGradient gradientTransform="matrix(0 -1 1 0 -2765.334 6891.67)" id="f" x1="6068.014" gradientUnits="userSpaceOnUse" x2="6199.102"><stop offset="0" stop-color="#f0f"/><stop offset="1" stop-color="#ff0"/></linearGradient><linearGradient gradientTransform="matrix(0 -1 1 0 -2765.334 6891.67)" id="d" x1="6068.06" gradientUnits="userSpaceOnUse" x2="6248.174"><stop offset="0" stop-color="#f0f"/><stop offset="1" stop-color="#ff0"/></linearGradient><linearGradient gradientTransform="matrix(-1 0 0 1 4012.582 0)" id="b" x1="3785.481" gradientUnits="userSpaceOnUse" x2="3892.248"><stop offset="0" stop-color="#ff0"/><stop offset="1" stop-color="#f00"/></linearGradient><linearGradient gradientTransform="matrix(-1 0 0 1 4012.582 0)" id="a" x1="3760.982" gradientUnits="userSpaceOnUse" x2="3867.75"><stop offset="0" stop-color="#ff0"/><stop offset="1" stop-color="#f00"/></linearGradient><linearGradient gradientTransform="matrix(-1 0 0 1 4012.582 0)" id="c" x1="3809.979" gradientUnits="userSpaceOnUse" x2="3916.746"><stop offset="0" stop-color="#ff0"/><stop offset="1" stop-color="#f00"/></linearGradient></defs><path fill="url(#a)" d="M144.832 565.79L251.6 812.61V512.504z"/><path fill="url(#b)" d="M120.333 590.287l106.77 246.82V537.003z"/><path fill="url(#c)" d="M95.835 614.785l106.77 245.572V561.5z"/><path fill="#3c140a" d="M354.064 795.334c-1.693-6.19-4.592-11.708-8.75-16.52-7.02-8.115-16.455-13.457-28.312-16.012 3.283-1.46 5.56-2.527 6.838-3.168 1.277-.64 3.56-2.28 6.842-4.835 9.666-7.293 14.494-18.512 14.494-33.465 0-12.4-4.283-23.71-12.854-33.553-4.74-5.287-11.81-9.936-21.195-13.04-9.4-3.097-20.566-5.473-33.508-5.473h-75.016v191.086H286.92c26.26 0 44.672-5.048 55.25-16.904 9.115-10.21 13.676-21.137 13.676-34.45 0-4.9-.614-9.416-1.782-13.668zM246.7 706.018h19.703c12.584 0 21.514 1.81 26.805 4.543 5.285 2.735 7.932 8.743 7.932 17.222 0 8.483-2.87 13.812-8.615 16.36-5.742 2.563-14.537 3.524-26.393 3.524h-19.43v-41.648zm55.944 114.36c-5.377 2.648-13.123 3.183-23.232 3.292-1.375.014-2.79-.06-4.254-.06H246.7v-44.097h24.354c14.22 0 24.568 2.363 31.04 5.187 4.515 1.976 7.42 5.9 8.788 11.053.594 2.237.928 4.708.928 7.388 0 8.842-3.057 14.228-9.166 17.238z"/><path fill="url(#d)" d="M246.7 823.61l143.974-180.114L246.7 706.018z"/><path fill="url(#e)" d="M246.7 823.61l143.95-155.587-143.95 37.995"/><path fill="url(#f)" d="M246.716 823.656l143.95-131.088-143.965 13.45"/><path d="M.5 512.5h512v512H.5z" fill="none"/></svg>