<svg width="512" xmlns="http://www.w3.org/2000/svg" height="512" viewBox="0.5 512.5 512 512" enable-background="new 0.5 512.5 512 512"><defs><linearGradient gradientTransform="matrix(-.573 .82 .82 .573 -1175.734 904.958)" id="M" y1="948.23" y2="1053.207" gradientUnits="userSpaceOnUse" x2="0"><stop offset="0" stop-color="#009f00"/><stop offset="1" stop-color="#ff0"/></linearGradient><linearGradient gradientTransform="matrix(-.573 .82 .82 .573 -1175.734 904.958)" id="x" y1="948.23" y2="1053.336" gradientUnits="userSpaceOnUse" x2="0"><stop offset="0" stop-color="#009f00"/><stop offset="1" stop-color="#ff0"/></linearGradient><linearGradient gradientTransform="matrix(-.573 .82 .82 .573 -1175.734 904.958)" id="z" y1="948.231" y2="1053.338" gradientUnits="userSpaceOnUse" x2="0"><stop offset="0" stop-color="#009f00"/><stop offset="1" stop-color="#ff0"/></linearGradient><linearGradient gradientTransform="matrix(-.573 .82 .82 .573 -1175.734 904.958)" id="y" y1="948.231" y2="1053.347" gradientUnits="userSpaceOnUse" x2="0"><stop offset="0" stop-color="#009f00"/><stop offset="1" stop-color="#ff0"/></linearGradient><linearGradient gradientTransform="matrix(-.573 .82 .82 .573 -1175.734 904.958)" id="w" y1="948.232" y2="1053.313" gradientUnits="userSpaceOnUse" x2="0"><stop offset="0" stop-color="#009f00"/><stop offset="1" stop-color="#ff0"/></linearGradient><linearGradient gradientTransform="matrix(-.573 .82 .82 .573 -1175.734 904.958)" id="r" y1="948.229" y2="1053.31" gradientUnits="userSpaceOnUse" x2="0"><stop offset="0" stop-color="#009f00"/><stop offset="1" stop-color="#ff0"/></linearGradient><linearGradient gradientTransform="matrix(-.573 .82 .82 .573 -1175.734 904.958)" id="v" y1="948.236" y2="1053.318" gradientUnits="userSpaceOnUse" x2="0"><stop offset="0" stop-color="#009f00"/><stop offset="1" stop-color="#ff0"/></linearGradient><linearGradient gradientTransform="matrix(-.573 .82 .82 .573 -1175.734 904.958)" id="s" y1="948.227" y2="1053.276" gradientUnits="userSpaceOnUse" x2="0"><stop offset="0" stop-color="#009f00"/><stop offset="1" stop-color="#ff0"/></linearGradient><linearGradient gradientTransform="matrix(-.573 .82 .82 .573 -1175.734 904.958)" id="u" y1="948.233" y2="1053.321" gradientUnits="userSpaceOnUse" x2="0"><stop offset="0" stop-color="#009f00"/><stop offset="1" stop-color="#ff0"/></linearGradient><linearGradient gradientTransform="matrix(-.573 .82 .82 .573 -1175.734 904.958)" id="t" y1="948.226" y2="1053.336" gradientUnits="userSpaceOnUse" x2="0"><stop offset="0" stop-color="#009f00"/><stop offset="1" stop-color="#ff0"/></linearGradient><linearGradient gradientTransform="matrix(-.573 .82 .82 .573 -1175.734 904.958)" id="A" y1="948.227" y2="1053.331" gradientUnits="userSpaceOnUse" x2="0"><stop offset="0" stop-color="#009f00"/><stop offset="1" stop-color="#ff0"/></linearGradient><linearGradient gradientTransform="matrix(-.573 .82 .82 .573 -1175.734 904.958)" id="I" y1="948.227" y2="1053.348" gradientUnits="userSpaceOnUse" x2="0"><stop offset="0" stop-color="#009f00"/><stop offset="1" stop-color="#ff0"/></linearGradient><linearGradient gradientTransform="matrix(-.573 .82 .82 .573 -1175.734 904.958)" id="B" y1="948.241" y2="1053.329" gradientUnits="userSpaceOnUse" x2="0"><stop offset="0" stop-color="#009f00"/><stop offset="1" stop-color="#ff0"/></linearGradient><linearGradient gradientTransform="matrix(-.573 .82 .82 .573 -1175.734 904.958)" id="J" y1="948.254" y2="1053.287" gradientUnits="userSpaceOnUse" x2="0"><stop offset="0" stop-color="#009f00"/><stop offset="1" stop-color="#ff0"/></linearGradient><linearGradient gradientTransform="matrix(-.573 .82 .82 .573 -1175.734 904.958)" id="L" y1="948.231" y2="1053.363" gradientUnits="userSpaceOnUse" x2="0"><stop offset="0" stop-color="#009f00"/><stop offset="1" stop-color="#ff0"/></linearGradient><linearGradient gradientTransform="matrix(-.573 .82 .82 .573 -1175.734 904.958)" id="K" y1="948.231" y2="1053.292" gradientUnits="userSpaceOnUse" x2="0"><stop offset="0" stop-color="#009f00"/><stop offset="1" stop-color="#ff0"/></linearGradient><linearGradient gradientTransform="matrix(-.573 .82 .82 .573 -1175.734 904.958)" id="H" y1="948.225" y2="1053.335" gradientUnits="userSpaceOnUse" x2="0"><stop offset="0" stop-color="#009f00"/><stop offset="1" stop-color="#ff0"/></linearGradient><linearGradient gradientTransform="matrix(-.573 .82 .82 .573 -1175.734 904.958)" id="C" y1="948.227" y2="1053.331" gradientUnits="userSpaceOnUse" x2="0"><stop offset="0" stop-color="#009f00"/><stop offset="1" stop-color="#ff0"/></linearGradient><linearGradient gradientTransform="matrix(-.573 .82 .82 .573 -1175.734 904.958)" id="G" y1="948.237" y2="1053.324" gradientUnits="userSpaceOnUse" x2="0"><stop offset="0" stop-color="#009f00"/><stop offset="1" stop-color="#ff0"/></linearGradient><linearGradient gradientTransform="matrix(-.573 .82 .82 .573 -1175.734 904.958)" id="D" y1="948.231" y2="1053.331" gradientUnits="userSpaceOnUse" x2="0"><stop offset="0" stop-color="#009f00"/><stop offset="1" stop-color="#ff0"/></linearGradient><linearGradient gradientTransform="matrix(-.573 .82 .82 .573 -1175.734 904.958)" id="F" y1="948.215" y2="1053.343" gradientUnits="userSpaceOnUse" x2="0"><stop offset="0" stop-color="#009f00"/><stop offset="1" stop-color="#ff0"/></linearGradient><linearGradient gradientTransform="matrix(-.573 .82 .82 .573 -1175.734 904.958)" id="E" y1="948.232" y2="1053.325" gradientUnits="userSpaceOnUse" x2="0"><stop offset="0" stop-color="#009f00"/><stop offset="1" stop-color="#ff0"/></linearGradient><linearGradient gradientTransform="matrix(-.573 .82 .82 .573 -1175.734 904.958)" id="q" y1="948.231" y2="1053.327" gradientUnits="userSpaceOnUse" x2="0"><stop offset="0" stop-color="#009f00"/><stop offset="1" stop-color="#ff0"/></linearGradient><linearGradient gradientTransform="matrix(-1 0 0 1 4012.582 0)" id="T" x1="3680.033" gradientUnits="userSpaceOnUse" x2="3786.945"><stop offset="0" stop-color="#ff0"/><stop offset="1" stop-color="#f00"/></linearGradient><linearGradient gradientTransform="matrix(-.573 .82 .82 .573 -1175.734 904.958)" id="p" y1="948.236" y2="1053.326" gradientUnits="userSpaceOnUse" x2="0"><stop offset="0" stop-color="#009f00"/><stop offset="1" stop-color="#ff0"/></linearGradient><linearGradient gradientTransform="matrix(-.573 .82 .82 .573 -1175.734 904.958)" id="a" y1="948.237" y2="1053.312" gradientUnits="userSpaceOnUse" x2="0"><stop offset="0" stop-color="#009f00"/><stop offset="1" stop-color="#ff0"/></linearGradient><linearGradient gradientTransform="matrix(-.573 .82 .82 .573 -1175.734 904.958)" id="c" y1="948.234" y2="1053.316" gradientUnits="userSpaceOnUse" x2="0"><stop offset="0" stop-color="#009f00"/><stop offset="1" stop-color="#ff0"/></linearGradient><linearGradient gradientTransform="matrix(-.573 .82 .82 .573 -1175.734 904.958)" id="b" y1="948.231" y2="1053.326" gradientUnits="userSpaceOnUse" x2="0"><stop offset="0" stop-color="#009f00"/><stop offset="1" stop-color="#ff0"/></linearGradient><linearGradient gradientTransform="matrix(-1 0 0 1 4012.582 0)" id="S" x1="3655.5" gradientUnits="userSpaceOnUse" x2="3762.412"><stop offset="0" stop-color="#ff0"/><stop offset="1" stop-color="#f00"/></linearGradient><linearGradient id="N" x1="23.925" gradientUnits="userSpaceOnUse" x2="232.063"><stop offset="0" stop-color="#004eff"/><stop offset="1" stop-color="#0ff"/></linearGradient><linearGradient gradientTransform="matrix(-1 0 0 1 4012.582 0)" id="R" x1="3630.969" gradientUnits="userSpaceOnUse" x2="3737.881"><stop offset="0" stop-color="#ff0"/><stop offset="1" stop-color="#f00"/></linearGradient><linearGradient id="O" x1="72.99" gradientUnits="userSpaceOnUse" x2="232.063"><stop offset="0" stop-color="#004eff"/><stop offset="1" stop-color="#0ff"/></linearGradient><linearGradient id="Q" x1="171.121" gradientUnits="userSpaceOnUse" x2="232.063"><stop offset="0" stop-color="#004eff"/><stop offset="1" stop-color="#0ff"/></linearGradient><linearGradient id="P" x1="122.056" gradientUnits="userSpaceOnUse" x2="232.063"><stop offset="0" stop-color="#004eff"/><stop offset="1" stop-color="#0ff"/></linearGradient><linearGradient gradientTransform="matrix(-.573 .82 .82 .573 -1175.734 904.958)" id="d" y1="948.229" y2="1053.347" gradientUnits="userSpaceOnUse" x2="0"><stop offset="0" stop-color="#009f00"/><stop offset="1" stop-color="#ff0"/></linearGradient><linearGradient gradientTransform="matrix(-.573 .82 .82 .573 -1175.734 904.958)" id="l" y1="948.222" y2="1053.336" gradientUnits="userSpaceOnUse" x2="0"><stop offset="0" stop-color="#009f00"/><stop offset="1" stop-color="#ff0"/></linearGradient><linearGradient gradientTransform="matrix(-.573 .82 .82 .573 -1175.734 904.958)" id="e" y1="948.231" y2="1053.293" gradientUnits="userSpaceOnUse" x2="0"><stop offset="0" stop-color="#009f00"/><stop offset="1" stop-color="#ff0"/></linearGradient><linearGradient gradientTransform="matrix(-.573 .82 .82 .573 -1175.734 904.958)" id="m" y1="948.219" y2="1053.34" gradientUnits="userSpaceOnUse" x2="0"><stop offset="0" stop-color="#009f00"/><stop offset="1" stop-color="#ff0"/></linearGradient><linearGradient gradientTransform="matrix(-.573 .82 .82 .573 -1175.734 904.958)" id="o" y1="948.222" y2="1053.347" gradientUnits="userSpaceOnUse" x2="0"><stop offset="0" stop-color="#009f00"/><stop offset="1" stop-color="#ff0"/></linearGradient><linearGradient gradientTransform="matrix(-.573 .82 .82 .573 -1175.734 904.958)" id="n" y1="948.232" y2="1053.327" gradientUnits="userSpaceOnUse" x2="0"><stop offset="0" stop-color="#009f00"/><stop offset="1" stop-color="#ff0"/></linearGradient><linearGradient gradientTransform="matrix(-.573 .82 .82 .573 -1175.734 904.958)" id="k" y1="948.241" y2="1053.326" gradientUnits="userSpaceOnUse" x2="0"><stop offset="0" stop-color="#009f00"/><stop offset="1" stop-color="#ff0"/></linearGradient><linearGradient gradientTransform="matrix(-.573 .82 .82 .573 -1175.734 904.958)" id="f" y1="948.231" y2="1053.309" gradientUnits="userSpaceOnUse" x2="0"><stop offset="0" stop-color="#009f00"/><stop offset="1" stop-color="#ff0"/></linearGradient><linearGradient gradientTransform="matrix(-.573 .82 .82 .573 -1175.734 904.958)" id="j" y1="948.208" y2="1053.34" gradientUnits="userSpaceOnUse" x2="0"><stop offset="0" stop-color="#009f00"/><stop offset="1" stop-color="#ff0"/></linearGradient><linearGradient gradientTransform="matrix(-.573 .82 .82 .573 -1175.734 904.958)" id="g" y1="948.232" y2="1053.308" gradientUnits="userSpaceOnUse" x2="0"><stop offset="0" stop-color="#009f00"/><stop offset="1" stop-color="#ff0"/></linearGradient><linearGradient gradientTransform="matrix(-.573 .82 .82 .573 -1175.734 904.958)" id="i" y1="948.265" y2="1053.323" gradientUnits="userSpaceOnUse" x2="0"><stop offset="0" stop-color="#009f00"/><stop offset="1" stop-color="#ff0"/></linearGradient><linearGradient gradientTransform="matrix(-.573 .82 .82 .573 -1175.734 904.958)" id="h" y1="948.231" y2="1053.327" gradientUnits="userSpaceOnUse" x2="0"><stop offset="0" stop-color="#009f00"/><stop offset="1" stop-color="#ff0"/></linearGradient></defs><path fill="url(#a)" d="M170.976 683.007c15.175-10.73 16.698-5.5 16.685-5.442.308 1.797-.974-1.633-14.963 8.56-14.672 10.67-14.087 14.638-15.323 13.103-.245.18-2.224-5.03 13.602-16.22z"/><path fill="url(#b)" d="M168.01 679.212c13.44-9.427 15.026-5.015 15.02-4.906.277 1.626-.9-1.265-13.448 7.776-13.503 9.727-13.943 13.263-15.084 11.81-.224.173-1.063-4.464 13.512-14.68z"/><path fill="url(#c)" d="M165.044 675.394c11.7-8.126 13.35-4.5 13.35-4.33.244 1.44-.834-.937-11.922 6.98-12.38 8.84-12.678 12.116-13.724 10.78-.206.174-1.086-4.12 12.296-13.43z"/><path fill="url(#d)" d="M162.568 671.924c9.923-6.84 11.657-4.003 11.667-3.78.206 1.274-.78-.603-10.393 6.193-11.274 7.958-11.423 10.975-12.382 9.76-.18.17-1.086-3.776 11.108-12.173z"/><path fill="url(#e)" d="M161.207 670.638c-10.153 7.067-10.167 9.835-11.034 8.728-.158.168-1.093-3.43 9.89-10.9 8.188-5.574 9.99-3.51 10.004-3.24.177 1.094-.715-.266-8.86 5.412z"/><path fill="url(#f)" d="M159.04 667.276c-9.03 6.162-8.92 8.683-9.687 7.695-.135.156-1.093-3.078 8.687-9.64 6.416-4.308 8.304-3.01 8.332-2.694.14.923-.657.072-7.33 4.64z"/><path fill="url(#g)" d="M157.33 664.246c-7.89 5.273-7.637 7.547-8.322 6.655-.114.18-1.102-2.716 7.475-8.357 4.662-3.064 6.627-2.53 6.67-2.168.104.764-.605.39-5.822 3.87z"/><path fill="url(#h)" d="M218.963 715.45c14.354-8.43 15.11-5.808 15.17-5.462.378 1.406-.207.023-13.536 8.355-13.685 8.558-20.312 22.984-21.016 22.355-.928-.287 5-15.893 19.383-25.25z"/><path fill="url(#i)" d="M213.155 712.414c15.33-8.962 16.134-6.1 16.21-5.775.398 1.5-.25-.138-14.44 8.782-14.557 9.148-21.146 23.42-21.97 22.71-.89-.236 4.977-15.61 20.2-25.718z"/><path fill="url(#j)" d="M208.446 709.204c14.992-9.597 16.133-6.17 16.21-5.864.41 1.525-.32-.244-14.418 8.86-14.432 9.327-20.436 22.476-21.332 21.69-.81-.185 4.136-14.823 19.54-24.686z"/><path fill="url(#k)" d="M203.75 705.992c14.902-9.81 16.134-6.24 16.182-5.95.426 1.536-.38-.356-14.38 8.93-14.32 9.52-19.717 21.526-20.69 20.678-.73-.14 3.575-13.59 18.887-23.658z"/><path fill="url(#l)" d="M199.03 702.79c14.835-10.025 16.134-6.31 16.195-6.04.417 1.55-.47-.482-14.34 9-14.217 9.722-19.037 20.572-20.072 19.666-.65-.088 3.023-12.346 18.218-22.625z"/><path fill="url(#m)" d="M194.33 699.598c14.73-10.266 16.133-6.393 16.182-6.15.43 1.576-.552-.594-14.312 9.097-14.082 9.92-18.342 19.6-19.43 18.637-.58-.05 2.467-11.075 17.56-21.584z"/><path fill="url(#n)" d="M189.634 696.4c14.627-10.504 16.138-6.465 16.16-6.244.433 1.586-.63-.73-14.268 9.178-13.962 10.14-17.656 18.627-18.807 17.604-.498 0 1.927-9.785 16.914-20.537z"/><path fill="url(#o)" d="M184.93 693.223c14.52-10.767 16.132-6.562 16.156-6.363.44 1.61-.733-.86-14.23 9.27-13.83 10.382-16.977 17.662-18.18 16.567-.435.058 1.38-8.46 16.253-19.474z"/><path fill="url(#p)" d="M180.234 690.043c14.402-11.018 16.118-6.66 16.128-6.482.47 1.638-.81-.983-14.175 9.378-13.688 10.625-16.304 16.682-17.56 15.518-.373.1.86-7.12 15.607-18.413z"/><path fill="url(#q)" d="M175.53 686.876c14.272-11.303 16.132-6.766 16.117-6.616.475 1.664-.925-1.122-14.116 9.486-13.56 10.894-15.662 15.69-16.95 14.473-.317.137.315-5.76 14.95-17.344z"/><path fill="url(#r)" d="M150.354 665.633c-.46-.416 1.103-3.907 4.322-5.84 3.2-1.96 5.932-1.577 5.912-1.064.048.583-2.3 1.135-5.085 2.99-2.792 1.81-4.732 4.378-5.15 3.913z"/><path fill="url(#s)" d="M150.334 660.26c-.315-.736 1.342-3.242 3.83-3.95 2.457-.73 3.998.222 3.86.728-.114.562-1.682.69-3.75 1.656-2.056.93-3.672 2.334-3.94 1.566z"/><path fill="url(#t)" d="M188.078 658.56c-4.875 17.934.556 17.577.604 17.543 1.792-.32-1.854-.348 2.903-16.988 4.997-17.443 8.917-18.258 7.053-18.897.08-.296-5.487-.363-10.56 18.343z"/><path fill="url(#u)" d="M183.482 657.085c-4.23 15.85.455 15.826.556 15.783 1.62-.3-1.5-.405 2.688-15.29 4.504-16.027 7.66-17.65 5.922-18.227.082-.27-4.57.53-9.166 17.735z"/><path fill="url(#v)" d="M178.882 655.61c-3.617 13.77.354 14.08.518 14.02 1.438-.265-1.17-.463 2.468-13.585 4.06-14.67 7.024-16.077 5.414-16.6.09-.252-4.245.4-8.4 16.164z"/><path fill="url(#w)" d="M174.776 654.46c-3.02 11.677.235 12.333.446 12.26 1.27-.243-.83-.52 2.256-11.884 3.604-13.313 6.393-14.487 4.92-14.97.096-.236-3.923.272-7.622 14.593z"/><path fill="url(#x)" d="M173.093 653.63c3.158-11.96 5.75-12.922 4.414-13.35.105-.217-3.59.147-6.847 13.022-2.42 9.597.134 10.584.397 10.51 1.093-.21-.488-.575 2.036-10.18z"/><path fill="url(#y)" d="M169.19 652.744c2.706-10.587 5.107-11.354 3.91-11.732.104-.184-3.26.03-6.072 11.464-1.845 7.5.02 8.838.33 8.755.916-.187-.162-.647 1.83-8.486z"/><path fill="url(#z)" d="M165.768 652.184c2.247-9.22 4.47-9.76 3.393-10.104.125-.17-2.927-.098-5.284 9.893-1.28 5.434-.1 7.096.26 7.006.74-.168.156-.705 1.632-6.796z"/><path fill="url(#A)" d="M235.01 692.5c-2.995 16.38-.265 16.193.07 16.132 1.457-.124-.047-.206 3.206-15.59 3.35-15.79 14.624-26.96 13.785-27.406-.587-.78-13.198 10.147-17.06 26.863z"/><path fill="url(#B)" d="M230.17 688.086c-3.163 17.473-.196 17.252.134 17.22 1.543-.153-.21-.196 3.292-16.587 3.603-16.812 14.743-27.9 13.79-28.43-.527-.757-12.952 10.026-17.216 27.796z"/><path fill="url(#C)" d="M225.537 684.77c-3.876 17.375-.27 17.267.053 17.23 1.562-.13-.34-.215 3.378-16.573 3.81-16.763 14.092-26.91 13.052-27.483-.456-.696-12.51 8.974-16.483 26.826z"/><path fill="url(#D)" d="M220.91 681.45c-4.098 17.374-.322 17.304-.04 17.253 1.59-.13-.47-.238 3.455-16.573 4.03-16.718 13.45-25.912 12.318-26.53-.378-.642-11.533 8.025-15.734 25.85z"/><path fill="url(#E)" d="M216.28 678.125c-4.327 17.37-.39 17.325-.12 17.277 1.596-.135-.604-.268 3.54-16.552 4.24-16.69 12.78-24.944 11.572-25.604-.302-.574-10.55 7.076-14.992 24.88z"/><path fill="url(#F)" d="M211.666 674.805c-4.585 17.36-.465 17.344-.22 17.31 1.624-.136-.748-.31 3.626-16.567 4.49-16.627 12.128-23.95 10.84-24.647-.237-.523-9.546 6.12-14.246 23.905z"/><path fill="url(#G)" d="M207.056 671.493c-4.854 17.34-.548 17.37-.326 17.323 1.644-.144-.896-.345 3.73-16.552 4.732-16.59 11.44-22.98 10.085-23.704-.178-.476-8.53 5.17-13.49 22.933z"/><path fill="url(#H)" d="M202.452 668.168c-5.122 17.33-.633 17.41-.438 17.348 1.67-.127-1.058-.39 3.835-16.543 5-16.55 10.76-22.007 9.318-22.762-.096-.423-7.474 4.2-12.716 21.958z"/><path fill="url(#I)" d="M197.852 664.84c-5.415 17.314-.714 17.44-.547 17.387 1.696-.13-1.207-.434 3.938-16.538 5.29-16.508 10.07-21.04 8.553-21.824-.033-.386-6.386 3.253-11.944 20.974z"/><path fill="url(#J)" d="M193.26 661.518c-5.705 17.285-.81 17.472-.68 17.395 1.73-.117-1.37-.477 4.068-16.514 5.582-16.466 9.372-20.084 7.776-20.882.026-.345-5.293 2.285-11.163 20z"/><path fill="url(#K)" d="M164.675 645.156c-.55-.29-3.286 2.375-3.996 6.062-.743 3.682.546 6.118 1.02 5.922.564-.16.282-2.557 1.066-5.8.74-3.248 2.49-5.95 1.91-6.184z"/><path fill="url(#L)" d="M159.62 646.984c-.8-.043-2.583 2.37-2.395 4.945.153 2.558 1.58 3.684 2.013 3.382.493-.303.066-1.816.268-4.092.167-2.25.93-4.25.115-4.236z"/><path fill="url(#M)" d="M152.586 652.006c-.47.77.595 1.945 1.764 2.316 1.18.377 2.137.533 2.267.4.086-.172-.364-1.014-1.188-1.977-.81-.964-2.354-1.486-2.844-.74z"/><path fill="url(#N)" d="M231.512 834.203c-19.085-18.627-28.625-42.135-28.625-70.53 0-28.394 9.723-52.085 29.176-71.078L23.925 763.4l207.587 70.803z"/><path fill="url(#O)" d="M232.063 692.595L72.99 763.4l158.522 70.803"/><path fill="url(#P)" d="M232.063 692.595L122.056 763.4l109.456 70.803"/><path fill="url(#Q)" d="M232.063 692.595L171.12 763.4l60.392 70.803"/><path fill="#3c140a" d="M301.707 822.426c-15.348 0-28.4-5.384-39.176-16.16-10.77-10.77-16.16-25.062-16.16-42.866 0-3.407.277-6.636.694-9.774-12.275-10.334-24.552-20.04-36.827-30.26-5.295 12.252-7.964 25.77-7.964 40.582 0 28.396 9.54 51.904 28.624 70.53 19.075 18.625 43.368 27.937 72.86 27.937 29.48 0 55.092-12.23 76.83-36.702L353.195 797.5c-13.334 16.62-30.498 24.926-51.488 24.926z"/><path fill="url(#R)" d="M274.7 611.932l106.913 247.165V558.574z"/><path fill="url(#S)" d="M250.17 636.465L357.08 883.63V583.105z"/><path fill="url(#T)" d="M225.637 660.998L332.55 908.16V607.64z"/><path fill="#3c140a" d="M263.494 720.943c11.408-10.498 25.15-15.747 41.22-15.747 20.083 0 36.886 8.4 50.397 25.198l26.565-30.13c-21.178-23.918-47.473-35.88-78.88-35.88-28.118 0-51.903 9.497-71.346 28.485-9.307 9.086-16.36 19.258-21.213 30.494 4.774 17.354 22.183 29.743 36.827 30.26 1.764-13.27 7.197-24.188 16.43-32.68z"/><path d="M.5 512.5h512v512H.5z" fill="none"/></svg>