<svg xmlns="http://www.w3.org/2000/svg" width="512" height="512" viewBox="0 0 512 512"><path fill="none" d="M.5 0h512v512H.5z"/><g><linearGradient id="a" gradientUnits="userSpaceOnUse" x1="-1488.088" y1="12146.543" x2="-1488.088" y2="12218.96" gradientTransform="matrix(-.125 -.992 -.992 .125 12277.095 -2706.842)"><stop offset="0" stop-color="#009F00"/><stop offset="1" stop-color="#ff0"/></linearGradient><path fill="url(#a)" d="M393.71 293.772c-2.79 12.473-6 10.512-6.015 10.478-.985-.774 1.255.38 3.685-11.264 2.566-12.213.438-13.964 1.77-13.748.048-.207 3.468 1.54.56 14.534z"/><linearGradient id="b" gradientUnits="userSpaceOnUse" x1="-1489.012" y1="12146.547" x2="-1489.012" y2="12218.945" gradientTransform="matrix(-.125 -.992 -.992 .125 12277.095 -2706.842)"><stop offset="0" stop-color="#009F00"/><stop offset="1" stop-color="#ff0"/></linearGradient><path fill="url(#b)" d="M396.977 294.343c-2.506 11.008-5.358 9.492-5.405 9.433-.896-.7 1.046.228 3.27-10.17 2.403-11.19.995-13.19 2.25-12.978.033-.194 2.606 1.78-.115 13.715z"/><linearGradient id="c" gradientUnits="userSpaceOnUse" x1="-1490.078" y1="12146.545" x2="-1490.078" y2="12218.935" gradientTransform="matrix(-.125 -.992 -.992 .125 12277.095 -2706.842)"><stop offset="0" stop-color="#009F00"/><stop offset="1" stop-color="#ff0"/></linearGradient><path fill="url(#c)" d="M400.262 294.918c-2.227 9.55-4.745 8.455-4.822 8.37-.79-.62.854.09 2.86-9.058 2.24-10.213.874-12.024 2.03-11.83.024-.18 2.46 1.6-.068 12.518z"/><linearGradient id="d" gradientUnits="userSpaceOnUse" x1="-1491.146" y1="12146.535" x2="-1491.146" y2="12218.966" gradientTransform="matrix(-.125 -.992 -.992 .125 12277.095 -2706.842)"><stop offset="0" stop-color="#009F00"/><stop offset="1" stop-color="#ff0"/></linearGradient><path fill="url(#d)" d="M403.134 295.546c-1.91 8.06-4.106 7.423-4.22 7.31-.69-.554.683-.054 2.45-7.95 2.082-9.258.756-10.86 1.81-10.684.016-.176 2.307 1.424-.04 11.324z"/><linearGradient id="e" gradientUnits="userSpaceOnUse" x1="-1492.213" y1="12146.543" x2="-1492.213" y2="12218.888" gradientTransform="matrix(-.125 -.992 -.992 .125 12277.095 -2706.842)"><stop offset="0" stop-color="#009F00"/><stop offset="1" stop-color="#ff0"/></linearGradient><path fill="url(#e)" d="M404.42 295.573c1.92-8.29.653-9.7 1.604-9.54 0-.15 2.143 1.246-.014 10.118-1.607 6.624-3.48 6.4-3.61 6.272-.595-.482.48-.195 2.02-6.85z"/><linearGradient id="f" gradientUnits="userSpaceOnUse" x1="-1493.283" y1="12146.531" x2="-1493.283" y2="12218.997" gradientTransform="matrix(-.125 -.992 -.992 .125 12277.095 -2706.842)"><stop offset="0" stop-color="#009F00"/><stop offset="1" stop-color="#ff0"/></linearGradient><path fill="url(#f)" d="M407.08 296.293c1.773-7.315.542-8.542 1.397-8.398-.01-.14 1.98 1.068.015 8.925-1.283 5.158-2.845 5.364-3.012 5.217-.502-.407.306-.34 1.6-5.744z"/><linearGradient id="g" gradientUnits="userSpaceOnUse" x1="-1494.359" y1="12146.535" x2="-1494.359" y2="12218.903" gradientTransform="matrix(-.125 -.992 -.992 .125 12277.095 -2706.842)"><stop offset="0" stop-color="#009F00"/><stop offset="1" stop-color="#ff0"/></linearGradient><path fill="url(#g)" d="M409.356 297.044c1.593-6.328.413-7.372 1.18-7.233-.027-.145 1.82.878.043 7.712-.964 3.715-2.216 4.35-2.403 4.18-.408-.34.12-.475 1.18-4.658z"/><linearGradient id="h" gradientUnits="userSpaceOnUse" x1="-1484.703" y1="12146.623" x2="-1484.703" y2="12218.96" gradientTransform="matrix(-.125 -.992 -.992 .125 12277.095 -2706.842)"><stop offset="0" stop-color="#009F00"/><stop offset="1" stop-color="#ff0"/></linearGradient><path fill="url(#h)" d="M354.17 299.378c-3.432 10.92-5.026 9.93-5.217 9.792-.836-.55.09-.11 3.047-10.506 3.036-10.676-.244-21.09.396-21.095.616-.28 4.802 10.41 1.774 21.808z"/><linearGradient id="i" gradientUnits="userSpaceOnUse" x1="-1484.124" y1="12146.615" x2="-1484.124" y2="12218.961" gradientTransform="matrix(-.125 -.992 -.992 .125 12277.095 -2706.842)"><stop offset="0" stop-color="#009F00"/><stop offset="1" stop-color="#ff0"/></linearGradient><path fill="url(#i)" d="M358.546 298.25c-3.686 11.635-5.424 10.545-5.61 10.42-.895-.584.188-.05 3.324-11.14 3.205-11.38-.038-21.69.71-21.707.567-.283 4.682 10.252 1.576 22.426z"/><linearGradient id="j" gradientUnits="userSpaceOnUse" x1="-1484.532" y1="12146.559" x2="-1484.532" y2="12218.971" gradientTransform="matrix(-.125 -.992 -.992 .125 12277.095 -2706.842)"><stop offset="0" stop-color="#009F00"/><stop offset="1" stop-color="#ff0"/></linearGradient><path fill="url(#j)" d="M362.44 297.714c-3.22 11.805-5.396 10.586-5.57 10.456-.912-.576.277-.014 3.266-11.156 3.066-11.414.05-20.89.867-20.897.507-.274 4.746 9.46 1.436 21.597z"/><linearGradient id="k" gradientUnits="userSpaceOnUse" x1="-1484.934" y1="12146.565" x2="-1484.934" y2="12218.966" gradientTransform="matrix(-.125 -.992 -.992 .125 12277.095 -2706.842)"><stop offset="0" stop-color="#009F00"/><stop offset="1" stop-color="#ff0"/></linearGradient><path fill="url(#k)" d="M366.324 297.183c-3.076 11.874-5.357 10.625-5.517 10.495-.93-.588.358.014 3.222-11.184 2.917-11.46.11-20.062 1.005-20.084.432-.264 4.462 8.582 1.29 20.773z"/><linearGradient id="l" gradientUnits="userSpaceOnUse" x1="-1485.329" y1="12146.545" x2="-1485.329" y2="12218.974" gradientTransform="matrix(-.125 -.992 -.992 .125 12277.095 -2706.842)"><stop offset="0" stop-color="#009F00"/><stop offset="1" stop-color="#ff0"/></linearGradient><path fill="url(#l)" d="M370.216 296.638c-2.94 11.946-5.318 10.655-5.48 10.554-.928-.6.462.026 3.164-11.207 2.77-11.512.22-19.264 1.167-19.285.37-.257 4.16 7.69 1.15 19.938z"/><linearGradient id="m" gradientUnits="userSpaceOnUse" x1="-1485.729" y1="12146.545" x2="-1485.729" y2="12218.977" gradientTransform="matrix(-.125 -.992 -.992 .125 12277.095 -2706.842)"><stop offset="0" stop-color="#009F00"/><stop offset="1" stop-color="#ff0"/></linearGradient><path fill="url(#m)" d="M374.1 296.097c-2.784 12.028-5.292 10.697-5.43 10.592-.95-.595.56.06 3.105-11.232 2.606-11.55.312-18.45 1.315-18.46.32-.24 3.853 6.78 1.01 19.1z"/><linearGradient id="n" gradientUnits="userSpaceOnUse" x1="-1486.13" y1="12146.545" x2="-1486.13" y2="12218.974" gradientTransform="matrix(-.125 -.992 -.992 .125 12277.095 -2706.842)"><stop offset="0" stop-color="#009F00"/><stop offset="1" stop-color="#ff0"/></linearGradient><path fill="url(#n)" d="M377.974 295.562c-2.61 12.097-5.252 10.74-5.37 10.638-.96-.608.663.075 3.047-11.268 2.45-11.604.413-17.64 1.47-17.645.245-.228 3.542 5.875.854 18.275z"/><linearGradient id="o" gradientUnits="userSpaceOnUse" x1="-1486.528" y1="12146.531" x2="-1486.528" y2="12218.986" gradientTransform="matrix(-.125 -.992 -.992 .125 12277.095 -2706.842)"><stop offset="0" stop-color="#009F00"/><stop offset="1" stop-color="#ff0"/></linearGradient><path fill="url(#o)" d="M381.85 295.012c-2.444 12.188-5.207 10.786-5.316 10.688-.966-.618.776.105 2.99-11.286 2.262-11.667.5-16.833 1.62-16.83.204-.23 3.216 4.946.707 17.428z"/><linearGradient id="p" gradientUnits="userSpaceOnUse" x1="-1486.925" y1="12146.555" x2="-1486.925" y2="12218.957" gradientTransform="matrix(-.125 -.992 -.992 .125 12277.095 -2706.842)"><stop offset="0" stop-color="#009F00"/><stop offset="1" stop-color="#ff0"/></linearGradient><path fill="url(#p)" d="M385.72 294.46c-2.267 12.26-5.153 10.834-5.245 10.752-.995-.62.873.12 2.91-11.326 2.076-11.727.616-16.018 1.792-16.012.148-.22 2.853 4.026.543 16.586z"/><linearGradient id="q" gradientUnits="userSpaceOnUse" x1="-1487.325" y1="12146.545" x2="-1487.325" y2="12218.958" gradientTransform="matrix(-.125 -.992 -.992 .125 12277.095 -2706.842)"><stop offset="0" stop-color="#009F00"/><stop offset="1" stop-color="#ff0"/></linearGradient><path fill="url(#q)" d="M389.592 293.906c-2.063 12.35-5.117 10.885-5.182 10.81-1.01-.625.995.143 2.826-11.354 1.89-11.804.746-15.22 1.97-15.188.106-.224 2.5 3.08.386 15.732z"/><linearGradient id="r" gradientUnits="userSpaceOnUse" x1="-1496.092" y1="12146.527" x2="-1496.092" y2="12219.066" gradientTransform="matrix(-.125 -.992 -.992 .125 12277.095 -2706.842)"><stop offset="0" stop-color="#009F00"/><stop offset="1" stop-color="#ff0"/></linearGradient><path fill="url(#r)" d="M412.282 293.12c.43 0 1.246 2.496.498 4.97-.734 2.472-2.31 3.545-2.54 3.27-.29-.277.658-1.638 1.22-3.87.586-2.208.397-4.412.822-4.37z"/><linearGradient id="s" gradientUnits="userSpaceOnUse" x1="-1497.609" y1="12146.529" x2="-1497.609" y2="12218.832" gradientTransform="matrix(-.125 -.992 -.992 .125 12277.095 -2706.842)"><stop offset="0" stop-color="#009F00"/><stop offset="1" stop-color="#ff0"/></linearGradient><path fill="url(#s)" d="M414.777 295.85c.502.23.813 2.277-.13 3.783-.914 1.51-2.147 1.73-2.308 1.405-.2-.34.538-1.126 1.15-2.58.613-1.42.79-2.88 1.287-2.608z"/><linearGradient id="t" gradientUnits="userSpaceOnUse" x1="-1513.284" y1="12146.514" x2="-1513.284" y2="12219.003" gradientTransform="matrix(-.125 -.992 -.992 .125 12277.095 -2706.842)"><stop offset="0" stop-color="#009F00"/><stop offset="1" stop-color="#ff0"/></linearGradient><path fill="url(#t)" d="M396.275 314.124c-5.806-11.38-8.414-8.703-8.42-8.663-.775.99 1.108-.674 6.373 10 5.514 11.196 3.88 13.426 5.14 12.886.09.188 2.96-2.34-3.093-14.222z"/><linearGradient id="u" gradientUnits="userSpaceOnUse" x1="-1512.37" y1="12146.512" x2="-1512.37" y2="12219.017" gradientTransform="matrix(-.125 -.992 -.992 .125 12277.095 -2706.842)"><stop offset="0" stop-color="#009F00"/><stop offset="1" stop-color="#ff0"/></linearGradient><path fill="url(#u)" d="M399.304 312.762c-5.168-10.03-7.557-7.857-7.583-7.796-.692.903.953-.485 5.698 9.04 5.115 10.243 4.257 12.53 5.408 12.026.08.173 2.09-2.38-3.522-13.27z"/><linearGradient id="v" gradientUnits="userSpaceOnUse" x1="-1511.301" y1="12146.523" x2="-1511.301" y2="12218.998" gradientTransform="matrix(-.125 -.992 -.992 .125 12277.095 -2706.842)"><stop offset="0" stop-color="#009F00"/><stop offset="1" stop-color="#ff0"/></linearGradient><path fill="url(#v)" d="M402.336 311.39c-4.516-8.687-6.69-7.02-6.75-6.907-.607.8.818-.298 5.028 8.058 4.71 9.355 3.844 11.44 4.907 10.967.076.165 1.99-2.164-3.184-12.116z"/><linearGradient id="w" gradientUnits="userSpaceOnUse" x1="-1510.232" y1="12146.52" x2="-1510.232" y2="12219.008" gradientTransform="matrix(-.125 -.992 -.992 .125 12277.095 -2706.842)"><stop offset="0" stop-color="#009F00"/><stop offset="1" stop-color="#ff0"/></linearGradient><path fill="url(#w)" d="M404.97 310.083c-3.86-7.35-5.823-6.182-5.897-6.046-.54.716.664-.12 4.34 7.103 4.32 8.444 3.438 10.32 4.41 9.896.065.16 1.88-1.95-2.854-10.953z"/><linearGradient id="x" gradientUnits="userSpaceOnUse" x1="-1509.164" y1="12146.52" x2="-1509.164" y2="12219.041" gradientTransform="matrix(-.125 -.992 -.992 .125 12277.095 -2706.842)"><stop offset="0" stop-color="#009F00"/><stop offset="1" stop-color="#ff0"/></linearGradient><path fill="url(#x)" d="M406.21 309.72c3.912 7.562 3.042 9.243 3.926 8.845.043.17 1.764-1.73-2.528-9.79-3.2-6.012-4.963-5.34-5.065-5.176-.46.613.51.067 3.666 6.12z"/><linearGradient id="y" gradientUnits="userSpaceOnUse" x1="-1508.099" y1="12146.527" x2="-1508.099" y2="12219.02" gradientTransform="matrix(-.125 -.992 -.992 .125 12277.095 -2706.842)"><stop offset="0" stop-color="#009F00"/><stop offset="1" stop-color="#ff0"/></linearGradient><path fill="url(#y)" d="M408.61 308.382c3.53 6.637 2.65 8.144 3.437 7.775.028.146 1.65-1.52-2.202-8.637-2.524-4.674-4.097-4.496-4.22-4.313-.378.52.385.254 2.984 5.175z"/><linearGradient id="z" gradientUnits="userSpaceOnUse" x1="-1507.029" y1="12146.527" x2="-1507.029" y2="12218.99" gradientTransform="matrix(-.125 -.992 -.992 .125 12277.095 -2706.842)"><stop offset="0" stop-color="#009F00"/><stop offset="1" stop-color="#ff0"/></linearGradient><path fill="url(#z)" d="M410.62 307.082c3.117 5.743 2.235 7.037 2.95 6.716.007.146 1.538-1.3-1.882-7.482-1.863-3.358-3.232-3.652-3.367-3.444-.305.426.24.42 2.3 4.21z"/><linearGradient id="A" gradientUnits="userSpaceOnUse" x1="-1516.637" y1="12146.477" x2="-1516.637" y2="12218.984" gradientTransform="matrix(-.125 -.992 -.992 .125 12277.095 -2706.842)"><stop offset="0" stop-color="#009F00"/><stop offset="1" stop-color="#ff0"/></linearGradient><path fill="url(#A)" d="M356.593 318.48c-6.05-9.728-7.356-8.38-7.505-8.187-.683.73.126.085 5.576 9.43 5.596 9.585 4.995 20.48 5.634 20.32.66.127 2.053-11.264-3.705-21.562z"/><linearGradient id="B" gradientUnits="userSpaceOnUse" x1="-1517.221" y1="12146.504" x2="-1517.221" y2="12218.98" gradientTransform="matrix(-.125 -.992 -.992 .125 12277.095 -2706.842)"><stop offset="0" stop-color="#009F00"/><stop offset="1" stop-color="#ff0"/></linearGradient><path fill="url(#B)" d="M361.106 318.494c-6.465-10.36-7.88-8.88-8.032-8.707-.713.786.193-.003 5.987 9.964 5.94 10.232 5.372 21.024 6.103 20.857.622.144 1.982-11.085-4.057-22.113z"/><linearGradient id="C" gradientUnits="userSpaceOnUse" x1="-1516.817" y1="12146.498" x2="-1516.817" y2="12218.982" gradientTransform="matrix(-.125 -.992 -.992 .125 12277.095 -2706.842)"><stop offset="0" stop-color="#009F00"/><stop offset="1" stop-color="#ff0"/></linearGradient><path fill="url(#C)" d="M365.005 318.055c-6.056-10.65-7.845-8.926-7.993-8.765-.735.79.27-.046 5.944 10.002 5.8 10.305 5.236 20.218 6.04 20.035.553.145 2.24-10.344-3.99-21.272z"/><linearGradient id="D" gradientUnits="userSpaceOnUse" x1="-1516.42" y1="12146.518" x2="-1516.42" y2="12218.978" gradientTransform="matrix(-.125 -.992 -.992 .125 12277.095 -2706.842)"><stop offset="0" stop-color="#009F00"/><stop offset="1" stop-color="#ff0"/></linearGradient><path fill="url(#D)" d="M368.91 317.6c-5.945-10.737-7.843-8.968-7.958-8.805-.752.806.35-.098 5.892 10.038 5.674 10.385 5.107 19.414 5.982 19.216.488.142 2.178-9.424-3.916-20.45z"/><linearGradient id="E" gradientUnits="userSpaceOnUse" x1="-1516.025" y1="12146.525" x2="-1516.025" y2="12218.969" gradientTransform="matrix(-.125 -.992 -.992 .125 12277.095 -2706.842)"><stop offset="0" stop-color="#009F00"/><stop offset="1" stop-color="#ff0"/></linearGradient><path fill="url(#E)" d="M372.812 317.164c-5.823-10.842-7.816-9.006-7.928-8.858-.75.805.427-.15 5.846 10.068 5.553 10.46 5.005 18.608 5.927 18.388.42.153 2.117-8.472-3.845-19.598z"/><linearGradient id="F" gradientUnits="userSpaceOnUse" x1="-1515.631" y1="12146.52" x2="-1515.631" y2="12218.981" gradientTransform="matrix(-.125 -.992 -.992 .125 12277.095 -2706.842)"><stop offset="0" stop-color="#009F00"/><stop offset="1" stop-color="#ff0"/></linearGradient><path fill="url(#F)" d="M376.705 316.733c-5.688-10.966-7.785-9.06-7.89-8.926-.77.817.52-.186 5.81 10.116 5.394 10.545 4.88 17.795 5.864 17.562.347.153 2.043-7.517-3.785-18.752z"/><linearGradient id="G" gradientUnits="userSpaceOnUse" x1="-1515.231" y1="12146.484" x2="-1515.231" y2="12219.02" gradientTransform="matrix(-.125 -.992 -.992 .125 12277.095 -2706.842)"><stop offset="0" stop-color="#009F00"/><stop offset="1" stop-color="#ff0"/></linearGradient><path fill="url(#G)" d="M380.59 316.286c-5.54-11.08-7.755-9.1-7.85-8.975-.77.83.624-.237 5.76 10.15 5.25 10.642 4.78 16.994 5.81 16.74.308.167 1.97-6.57-3.72-17.914z"/><linearGradient id="H" gradientUnits="userSpaceOnUse" x1="-1514.838" y1="12146.523" x2="-1514.838" y2="12218.978" gradientTransform="matrix(-.125 -.992 -.992 .125 12277.095 -2706.842)"><stop offset="0" stop-color="#009F00"/><stop offset="1" stop-color="#ff0"/></linearGradient><path fill="url(#H)" d="M384.486 315.863c-5.4-11.193-7.73-9.163-7.8-9.042-.794.83.717-.29 5.693 10.19 5.092 10.75 4.674 16.188 5.762 15.91.24.167 1.875-5.59-3.656-17.057z"/><linearGradient id="I" gradientUnits="userSpaceOnUse" x1="-1514.438" y1="12146.504" x2="-1514.438" y2="12219.015" gradientTransform="matrix(-.125 -.992 -.992 .125 12277.095 -2706.842)"><stop offset="0" stop-color="#009F00"/><stop offset="1" stop-color="#ff0"/></linearGradient><path fill="url(#I)" d="M388.373 315.438c-5.24-11.33-7.704-9.22-7.764-9.118-.805.853.82-.334 5.64 10.247 4.936 10.854 4.584 15.37 5.72 15.066.196.186 1.766-4.598-3.597-16.195z"/><linearGradient id="J" gradientUnits="userSpaceOnUse" x1="-1514.048" y1="12146.535" x2="-1514.048" y2="12218.964" gradientTransform="matrix(-.125 -.992 -.992 .125 12277.095 -2706.842)"><stop offset="0" stop-color="#009F00"/><stop offset="1" stop-color="#ff0"/></linearGradient><path fill="url(#J)" d="M392.26 315.008c-5.08-11.437-7.673-9.272-7.7-9.172-.832.854.914-.388 5.553 10.29 4.768 10.97 4.506 14.563 5.687 14.23.145.186 1.653-3.61-3.54-15.348z"/><linearGradient id="K" gradientUnits="userSpaceOnUse" x1="-1505.295" y1="12146.527" x2="-1505.295" y2="12219.027" gradientTransform="matrix(-.125 -.992 -.992 .125 12277.095 -2706.842)"><stop offset="0" stop-color="#009F00"/><stop offset="1" stop-color="#ff0"/></linearGradient><path fill="url(#K)" d="M414.435 310.162c.42-.104.58-2.725-.76-4.93-1.322-2.222-3.11-2.872-3.265-2.546-.213.336 1.04 1.43 2.138 3.438 1.126 2.004 1.483 4.186 1.887 4.038z"/><linearGradient id="L" gradientUnits="userSpaceOnUse" x1="-1503.78" y1="12146.529" x2="-1503.78" y2="12219.039" gradientTransform="matrix(-.125 -.992 -.992 .125 12277.095 -2706.842)"><stop offset="0" stop-color="#009F00"/><stop offset="1" stop-color="#ff0"/></linearGradient><path fill="url(#L)" d="M416.173 306.898c.428-.348.227-2.4-1.06-3.623-1.262-1.237-2.514-1.147-2.598-.8-.112.38.805.964 1.757 2.208.958 1.228 1.487 2.6 1.9 2.215z"/><linearGradient id="M" gradientUnits="userSpaceOnUse" x1="-1500.698" y1="12146.529" x2="-1500.698" y2="12218.892" gradientTransform="matrix(-.125 -.992 -.992 .125 12277.095 -2706.842)"><stop offset="0" stop-color="#009F00"/><stop offset="1" stop-color="#ff0"/></linearGradient><path fill="url(#M)" d="M417.444 301.093c-.118-.605-1.205-.71-1.973-.366-.777.352-1.338.713-1.342.843.04.122.65.35 1.524.46.86.118 1.887-.326 1.792-.937z"/><linearGradient id="N" gradientUnits="userSpaceOnUse" x1="11070.828" y1="10472.93" x2="11198.357" y2="10472.93" gradientTransform="matrix(-.912 .41 -.41 -.912 14698.143 5236.786)"><stop offset="0" stop-color="#009F00"/><stop offset="1" stop-color="#ff0"/></linearGradient><path fill="url(#N)" d="M333.207 293.634l-173.58-74.95 69.346 121.733"/><linearGradient id="O" gradientUnits="userSpaceOnUse" x1="11051.818" y1="10489.527" x2="11179.353" y2="10489.527" gradientTransform="matrix(-.912 .41 -.41 -.912 14698.143 5236.786)"><stop offset="0" stop-color="#009F00"/><stop offset="1" stop-color="#ff0"/></linearGradient><path fill="url(#O)" d="M343.73 270.695l-173.584-74.943 69.35 121.727"/><linearGradient id="P" gradientUnits="userSpaceOnUse" x1="11032.807" y1="10503.754" x2="11160.336" y2="10503.754" gradientTransform="matrix(-.912 .41 -.41 -.912 14698.143 5236.786)"><stop offset="0" stop-color="#009F00"/><stop offset="1" stop-color="#ff0"/></linearGradient><path fill="url(#P)" d="M355.228 249.92l-173.58-74.95 69.348 121.738"/><linearGradient id="Q" gradientUnits="userSpaceOnUse" x1="332.037" y1="11638.19" x2="332.037" y2="11739.849" gradientTransform="matrix(-.455 -.89 -.89 .455 10928.789 -4790.907)"><stop offset="0" stop-color="#009F00"/><stop offset="1" stop-color="#ff0"/></linearGradient><path fill="url(#Q)" d="M392.28 225.323c2.294 17.834-2.888 16.768-2.927 16.733-1.675-.554 1.842-.097-.527-16.668-2.468-17.382-6.135-18.678-4.26-19.032-.035-.294 5.328.38 7.713 18.967z"/><linearGradient id="R" gradientUnits="userSpaceOnUse" x1="330.734" y1="11638.193" x2="330.734" y2="11739.802" gradientTransform="matrix(-.455 -.89 -.89 .455 10928.789 -4790.907)"><stop offset="0" stop-color="#009F00"/><stop offset="1" stop-color="#ff0"/></linearGradient><path fill="url(#R)" d="M396.878 224.514c1.968 15.758-2.537 15.114-2.625 15.062-1.52-.498 1.492-.202-.55-15.02-2.194-15.95-5.02-17.928-3.256-18.24-.052-.275 4.302 1.115 6.43 18.198z"/><linearGradient id="S" gradientUnits="userSpaceOnUse" x1="329.23" y1="11638.176" x2="329.23" y2="11739.78" gradientTransform="matrix(-.455 -.89 -.89 .455 10928.789 -4790.907)"><stop offset="0" stop-color="#009F00"/><stop offset="1" stop-color="#ff0"/></linearGradient><path fill="url(#S)" d="M401.5 223.708c1.634 13.696-2.225 13.45-2.36 13.374-1.34-.438 1.173-.29-.56-13.35-1.94-14.58-4.62-16.323-3-16.615-.05-.26 4.027.937 5.92 16.59z"/><linearGradient id="T" gradientUnits="userSpaceOnUse" x1="327.722" y1="11638.152" x2="327.722" y2="11739.821" gradientTransform="matrix(-.455 -.89 -.89 .455 10928.789 -4790.907)"><stop offset="0" stop-color="#009F00"/><stop offset="1" stop-color="#ff0"/></linearGradient><path fill="url(#T)" d="M405.6 223.168c1.34 11.575-1.867 11.78-2.067 11.686-1.185-.406.874-.394-.583-11.686-1.685-13.246-4.207-14.736-2.73-15.005-.064-.236 3.735.783 5.38 15.005z"/><linearGradient id="U" gradientUnits="userSpaceOnUse" x1="326.218" y1="11638.154" x2="326.218" y2="11739.706" gradientTransform="matrix(-.455 -.89 -.89 .455 10928.789 -4790.907)"><stop offset="0" stop-color="#009F00"/><stop offset="1" stop-color="#ff0"/></linearGradient><path fill="url(#U)" d="M407.32 222.59c-1.44-11.882-3.797-13.147-2.46-13.388-.072-.202 3.432.63 4.835 13.396 1.055 9.526-1.528 10.127-1.767 10.017-1.017-.352.545-.487-.608-10.024z"/><linearGradient id="V" gradientUnits="userSpaceOnUse" x1="324.709" y1="11638.135" x2="324.709" y2="11739.8" gradientTransform="matrix(-.455 -.89 -.89 .455 10928.789 -4790.907)"><stop offset="0" stop-color="#009F00"/><stop offset="1" stop-color="#ff0"/></linearGradient><path fill="url(#V)" d="M411.18 222.27c-1.165-10.525-3.38-11.56-2.18-11.776-.075-.18 3.13.463 4.3 11.8.78 7.436-1.188 8.458-1.48 8.337-.853-.295.242-.59-.64-8.36z"/><linearGradient id="W" gradientUnits="userSpaceOnUse" x1="323.191" y1="11638.125" x2="323.191" y2="11739.788" gradientTransform="matrix(-.455 -.89 -.89 .455 10928.789 -4790.907)"><stop offset="0" stop-color="#009F00"/><stop offset="1" stop-color="#ff0"/></linearGradient><path fill="url(#W)" d="M414.556 222.18c-.936-9.136-2.992-9.95-1.914-10.133-.103-.18 2.83.29 3.754 10.177.51 5.38-.836 6.813-1.17 6.68-.7-.253-.06-.69-.67-6.724z"/><linearGradient id="X" gradientUnits="userSpaceOnUse" x1="336.839" y1="11638.391" x2="336.839" y2="11739.952" gradientTransform="matrix(-.455 -.89 -.89 .455 10928.789 -4790.907)"><stop offset="0" stop-color="#009F00"/><stop offset="1" stop-color="#ff0"/></linearGradient><path fill="url(#X)" d="M342.66 251.608c.703 16.088-1.888 15.544-2.207 15.447-1.37-.32.06-.19-1.01-15.358-1.11-15.57-10.45-27.773-9.594-28.093.677-.666 11.343 11.477 12.81 28.004z"/><linearGradient id="Y" gradientUnits="userSpaceOnUse" x1="337.65" y1="11638.397" x2="337.65" y2="11739.936" gradientTransform="matrix(-.455 -.89 -.89 .455 10928.789 -4790.907)"><stop offset="0" stop-color="#009F00"/><stop offset="1" stop-color="#ff0"/></linearGradient><path fill="url(#Y)" d="M347.908 248.028c.704 17.156-2.118 16.545-2.427 16.464-1.462-.343.23-.15-.95-16.318-1.218-16.592-10.452-28.682-9.476-29.062.614-.65 11.115 11.325 12.854 28.916z"/><linearGradient id="Z" gradientUnits="userSpaceOnUse" x1="337.075" y1="11638.293" x2="337.075" y2="11739.947" gradientTransform="matrix(-.455 -.89 -.89 .455 10928.789 -4790.907)"><stop offset="0" stop-color="#009F00"/><stop offset="1" stop-color="#ff0"/></linearGradient><path fill="url(#Z)" d="M352.796 245.46c1.404 17.157-2.05 16.583-2.353 16.497-1.48-.326.362-.147-1.03-16.323-1.422-16.563-9.958-27.657-8.88-28.062.538-.607 10.82 10.252 12.263 27.888z"/><linearGradient id="aa" gradientUnits="userSpaceOnUse" x1="336.505" y1="11638.305" x2="336.505" y2="11739.924" gradientTransform="matrix(-.455 -.89 -.89 .455 10928.789 -4790.907)"><stop offset="0" stop-color="#009F00"/><stop offset="1" stop-color="#ff0"/></linearGradient><path fill="url(#aa)" d="M357.69 242.904c1.627 17.18-1.998 16.612-2.268 16.522-1.515-.34.483-.162-1.106-16.333-1.64-16.555-9.475-26.603-8.304-27.062.442-.55 10.02 9.23 11.678 26.874z"/><linearGradient id="ab" gradientUnits="userSpaceOnUse" x1="335.943" y1="11638.281" x2="335.943" y2="11739.912" gradientTransform="matrix(-.455 -.89 -.89 .455 10928.789 -4790.907)"><stop offset="0" stop-color="#009F00"/><stop offset="1" stop-color="#ff0"/></linearGradient><path fill="url(#ab)" d="M362.574 240.328c1.845 17.208-1.928 16.635-2.19 16.575-1.514-.347.628-.18-1.19-16.336-1.86-16.552-8.956-25.595-7.717-26.064.373-.526 9.202 8.18 11.097 25.825z"/><linearGradient id="ac" gradientUnits="userSpaceOnUse" x1="335.376" y1="11638.25" x2="335.376" y2="11739.912" gradientTransform="matrix(-.455 -.89 -.89 .455 10928.789 -4790.907)"><stop offset="0" stop-color="#009F00"/><stop offset="1" stop-color="#ff0"/></linearGradient><path fill="url(#ac)" d="M367.45 237.755c2.09 17.24-1.864 16.683-2.097 16.607-1.543-.335.76-.19-1.284-16.346-2.09-16.53-8.444-24.56-7.124-25.047.313-.476 8.356 7.128 10.504 24.785z"/><linearGradient id="ad" gradientUnits="userSpaceOnUse" x1="334.808" y1="11638.252" x2="334.808" y2="11739.889" gradientTransform="matrix(-.455 -.89 -.89 .455 10928.789 -4790.907)"><stop offset="0" stop-color="#009F00"/><stop offset="1" stop-color="#ff0"/></linearGradient><path fill="url(#ad)" d="M372.323 235.2c2.345 17.256-1.8 16.72-2.003 16.637-1.557-.345.916-.21-1.38-16.36-2.328-16.525-7.92-23.533-6.52-24.047.22-.423 7.508 6.084 9.903 23.77z"/><linearGradient id="ae" gradientUnits="userSpaceOnUse" x1="334.243" y1="11638.238" x2="334.243" y2="11739.876" gradientTransform="matrix(-.455 -.89 -.89 .455 10928.789 -4790.907)"><stop offset="0" stop-color="#009F00"/><stop offset="1" stop-color="#ff0"/></linearGradient><path fill="url(#ae)" d="M377.184 232.618c2.622 17.295-1.714 16.76-1.896 16.682-1.585-.352 1.07-.23-1.475-16.358-2.6-16.515-7.41-22.517-5.924-23.042.154-.404 6.622 5.01 9.294 22.718z"/><linearGradient id="af" gradientUnits="userSpaceOnUse" x1="333.683" y1="11638.23" x2="333.683" y2="11739.854" gradientTransform="matrix(-.455 -.89 -.89 .455 10928.789 -4790.907)"><stop offset="0" stop-color="#009F00"/><stop offset="1" stop-color="#ff0"/></linearGradient><path fill="url(#af)" d="M382.044 230.046c2.887 17.304-1.623 16.788-1.783 16.724-1.612-.34 1.214-.25-1.59-16.367-2.877-16.51-6.878-21.49-5.308-22.044.09-.366 5.71 3.962 8.682 21.686z"/><linearGradient id="ag" gradientUnits="userSpaceOnUse" x1="333.113" y1="11638.217" x2="333.113" y2="11739.838" gradientTransform="matrix(-.455 -.89 -.89 .455 10928.789 -4790.907)"><stop offset="0" stop-color="#009F00"/><stop offset="1" stop-color="#ff0"/></linearGradient><path fill="url(#ag)" d="M386.902 227.46c3.188 17.33-1.55 16.844-1.67 16.777-1.64-.348 1.387-.287-1.716-16.37-3.158-16.522-6.31-20.494-4.68-21.034.033-.347 4.787 2.88 8.066 20.627z"/><linearGradient id="ah" gradientUnits="userSpaceOnUse" x1="320.749" y1="11638.111" x2="320.749" y2="11739.919" gradientTransform="matrix(-.455 -.89 -.89 .455 10928.789 -4790.907)"><stop offset="0" stop-color="#009F00"/><stop offset="1" stop-color="#ff0"/></linearGradient><path fill="url(#ah)" d="M416.547 215.588c.563-.204 2.838 2.714 3.037 6.337.222 3.626-1.353 5.793-1.785 5.54-.525-.227.074-2.48-.247-5.7-.283-3.206-1.596-6.024-1.006-6.177z"/><linearGradient id="ai" gradientUnits="userSpaceOnUse" x1="318.613" y1="11638.107" x2="318.613" y2="11739.772" gradientTransform="matrix(-.455 -.89 -.89 .455 10928.789 -4790.907)"><stop offset="0" stop-color="#009F00"/><stop offset="1" stop-color="#ff0"/></linearGradient><path fill="url(#ai)" d="M421.154 218.01c.772.062 2.166 2.616 1.64 5.065-.48 2.433-2.007 3.314-2.378 2.966-.424-.356.177-1.75.284-3.957.133-2.18-.332-4.19.454-4.074z"/><linearGradient id="aj" gradientUnits="userSpaceOnUse" x1="296.568" y1="11638.018" x2="296.568" y2="11740.134" gradientTransform="matrix(-.455 -.89 -.89 .455 10928.789 -4790.907)"><stop offset="0" stop-color="#009F00"/><stop offset="1" stop-color="#ff0"/></linearGradient><path fill="url(#aj)" d="M405.443 251.02c-13.14-12.286-15.312-7.49-15.3-7.44-.546 1.682 1.14-1.424 13.23 10.19 12.674 12.176 11.587 15.907 12.985 14.593.215.202 2.8-4.515-10.915-17.343z"/><linearGradient id="ak" gradientUnits="userSpaceOnUse" x1="297.854" y1="11638.031" x2="297.854" y2="11740.144" gradientTransform="matrix(-.455 -.89 -.89 .455 10928.789 -4790.907)"><stop offset="0" stop-color="#009F00"/><stop offset="1" stop-color="#ff0"/></linearGradient><path fill="url(#ak)" d="M408.793 247.773c-11.647-10.808-13.764-6.79-13.773-6.692-.475 1.526 1.032-1.097 11.877 9.243 11.688 11.11 11.648 14.545 12.933 13.322.187.192 1.62-4.144-11.037-15.872z"/><linearGradient id="al" gradientUnits="userSpaceOnUse" x1="299.354" y1="11638.047" x2="299.354" y2="11740.162" gradientTransform="matrix(-.455 -.89 -.89 .455 10928.789 -4790.907)"><stop offset="0" stop-color="#009F00"/><stop offset="1" stop-color="#ff0"/></linearGradient><path fill="url(#al)" d="M412.152 244.513c-10.146-9.34-12.22-6.095-12.243-5.918-.43 1.35.936-.788 10.515 8.26 10.723 10.126 10.577 13.298 11.758 12.164.178.184 1.583-3.81-10.03-14.507z"/><linearGradient id="am" gradientUnits="userSpaceOnUse" x1="300.853" y1="11638.055" x2="300.853" y2="11740.167" gradientTransform="matrix(-.455 -.89 -.89 .455 10928.789 -4790.907)"><stop offset="0" stop-color="#009F00"/><stop offset="1" stop-color="#ff0"/></linearGradient><path fill="url(#am)" d="M415.01 241.523c-8.638-7.88-10.673-5.395-10.71-5.177-.37 1.195.827-.478 9.15 7.318 9.772 9.112 9.508 12.02 10.588 10.99.162.184 1.552-3.477-9.028-13.13z"/><linearGradient id="an" gradientUnits="userSpaceOnUse" x1="302.355" y1="11638.06" x2="302.355" y2="11740.211" gradientTransform="matrix(-.455 -.89 -.89 .455 10928.789 -4790.907)"><stop offset="0" stop-color="#009F00"/><stop offset="1" stop-color="#ff0"/></linearGradient><path fill="url(#an)" d="M416.475 240.455c8.806 8.132 8.458 10.78 9.438 9.828.14.2 1.506-3.135-8.04-11.75-7.124-6.424-9.13-4.696-9.187-4.432-.316 1.037.712-.15 7.79 6.355z"/><linearGradient id="ao" gradientUnits="userSpaceOnUse" x1="303.852" y1="11638.08" x2="303.852" y2="11740.162" gradientTransform="matrix(-.455 -.89 -.89 .455 10928.789 -4790.907)"><stop offset="0" stop-color="#009F00"/><stop offset="1" stop-color="#ff0"/></linearGradient><path fill="url(#ao)" d="M419.008 237.53c7.853 7.107 7.414 9.515 8.275 8.656.108.176 1.464-2.802-7.057-10.38-5.582-4.977-7.577-3.997-7.646-3.693-.254.87.628.155 6.428 5.417z"/><linearGradient id="ap" gradientUnits="userSpaceOnUse" x1="305.357" y1="11638.084" x2="305.357" y2="11740.19" gradientTransform="matrix(-.455 -.89 -.89 .455 10928.789 -4790.907)"><stop offset="0" stop-color="#009F00"/><stop offset="1" stop-color="#ff0"/></linearGradient><path fill="url(#ap)" d="M421.042 234.854c6.883 6.11 6.337 8.25 7.125 7.485.083.182 1.417-2.462-6.074-9.006-4.077-3.56-6.035-3.293-6.115-2.955-.196.71.53.446 5.064 4.474z"/><linearGradient id="aq" gradientUnits="userSpaceOnUse" x1="291.886" y1="11637.871" x2="291.886" y2="11740.007" gradientTransform="matrix(-.455 -.89 -.89 .455 10928.789 -4790.907)"><stop offset="0" stop-color="#009F00"/><stop offset="1" stop-color="#ff0"/></linearGradient><path fill="url(#aq)" d="M355.03 275.73c-12.67-9.986-13.754-7.57-13.856-7.253-.552 1.294.206.054 11.9 9.812 12.004 10.014 16.442 24.713 17.208 24.2.93-.144-2.69-15.886-15.25-26.76z"/><linearGradient id="ar" gradientUnits="userSpaceOnUse" x1="291.062" y1="11637.9" x2="291.062" y2="11740.021" gradientTransform="matrix(-.455 -.89 -.89 .455 10928.789 -4790.907)"><stop offset="0" stop-color="#009F00"/><stop offset="1" stop-color="#ff0"/></linearGradient><path fill="url(#ar)" d="M361.008 273.592c-13.527-10.62-14.687-7.988-14.81-7.687-.567 1.385.26-.092 12.71 10.327 12.765 10.7 17.194 25.252 18.085 24.68.885-.102-2.7-15.607-15.985-27.32z"/><linearGradient id="as" gradientUnits="userSpaceOnUse" x1="291.624" y1="11637.891" x2="291.624" y2="11740.036" gradientTransform="matrix(-.455 -.89 -.89 .455 10928.789 -4790.907)"><stop offset="0" stop-color="#009F00"/><stop offset="1" stop-color="#ff0"/></linearGradient><path fill="url(#as)" d="M365.957 271.147c-13.123-11.202-14.662-8.062-14.782-7.776-.596 1.397.332-.185 12.66 10.4 12.624 10.862 16.64 24.247 17.608 23.623.807-.08-1.997-14.76-15.486-26.246z"/><linearGradient id="at" gradientUnits="userSpaceOnUse" x1="292.181" y1="11637.945" x2="292.181" y2="11740.032" gradientTransform="matrix(-.455 -.89 -.89 .455 10928.789 -4790.907)"><stop offset="0" stop-color="#009F00"/><stop offset="1" stop-color="#ff0"/></linearGradient><path fill="url(#at)" d="M370.906 268.687c-13.02-11.373-14.68-8.12-14.754-7.852-.608 1.423.41-.294 12.612 10.466 12.493 11.03 16.078 23.25 17.134 22.566.72-.036-1.635-13.503-14.992-25.18z"/><linearGradient id="au" gradientUnits="userSpaceOnUse" x1="292.73" y1="11637.963" x2="292.73" y2="11740.037" gradientTransform="matrix(-.455 -.89 -.89 .455 10928.789 -4790.907)"><stop offset="0" stop-color="#009F00"/><stop offset="1" stop-color="#ff0"/></linearGradient><path fill="url(#au)" d="M375.86 266.25c-12.91-11.572-14.666-8.19-14.745-7.94-.6 1.416.498-.4 12.572 10.53 12.363 11.19 15.552 22.23 16.668 21.502.622 0-1.263-12.22-14.496-24.093z"/><linearGradient id="av" gradientUnits="userSpaceOnUse" x1="293.283" y1="11637.932" x2="293.283" y2="11740.088" gradientTransform="matrix(-.455 -.89 -.89 .455 10928.789 -4790.907)"><stop offset="0" stop-color="#009F00"/><stop offset="1" stop-color="#ff0"/></linearGradient><path fill="url(#av)" d="M380.807 263.815c-12.786-11.792-14.65-8.268-14.73-8.04-.623 1.45.6-.496 12.543 10.608 12.196 11.382 15 21.22 16.188 20.438.542.034-.904-10.922-14-23.005z"/><linearGradient id="aw" gradientUnits="userSpaceOnUse" x1="293.839" y1="11637.934" x2="293.839" y2="11740.116" gradientTransform="matrix(-.455 -.89 -.89 .455 10928.789 -4790.907)"><stop offset="0" stop-color="#009F00"/><stop offset="1" stop-color="#ff0"/></linearGradient><path fill="url(#aw)" d="M385.73 261.373c-12.644-12.015-14.628-8.337-14.693-8.13-.622 1.46.712-.612 12.49 10.684 12.055 11.57 14.48 20.198 15.727 19.373.48.07-.555-9.637-13.524-21.927z"/><linearGradient id="ax" gradientUnits="userSpaceOnUse" x1="294.393" y1="11637.978" x2="294.393" y2="11740.093" gradientTransform="matrix(-.455 -.89 -.89 .455 10928.789 -4790.907)"><stop offset="0" stop-color="#009F00"/><stop offset="1" stop-color="#ff0"/></linearGradient><path fill="url(#ax)" d="M390.675 258.954c-12.51-12.235-14.62-8.435-14.657-8.245-.648 1.478.813-.73 12.426 10.77 11.897 11.785 13.953 19.177 15.262 18.292.4.107-.2-8.292-13.03-20.818z"/><linearGradient id="ay" gradientUnits="userSpaceOnUse" x1="294.949" y1="11637.98" x2="294.949" y2="11740.135" gradientTransform="matrix(-.455 -.89 -.89 .455 10928.789 -4790.907)"><stop offset="0" stop-color="#009F00"/><stop offset="1" stop-color="#ff0"/></linearGradient><path fill="url(#ay)" d="M395.62 256.532c-12.37-12.488-14.618-8.52-14.647-8.356-.658 1.51.928-.834 12.383 10.863 11.738 12.006 13.438 18.146 14.798 17.206.35.15.124-6.932-12.535-19.714z"/><linearGradient id="az" gradientUnits="userSpaceOnUse" x1="295.495" y1="11638.018" x2="295.495" y2="11740.097" gradientTransform="matrix(-.455 -.89 -.89 .455 10928.789 -4790.907)"><stop offset="0" stop-color="#009F00"/><stop offset="1" stop-color="#ff0"/></linearGradient><path fill="url(#az)" d="M400.554 254.112c-12.207-12.71-14.6-8.607-14.587-8.463-.688 1.526 1.023-.952 12.287 10.962 11.57 12.237 12.947 17.11 14.357 16.11.28.18.45-5.56-12.056-18.61z"/><linearGradient id="aA" gradientUnits="userSpaceOnUse" x1="307.794" y1="11638.094" x2="307.794" y2="11740.177" gradientTransform="matrix(-.455 -.89 -.89 .455 10928.789 -4790.907)"><stop offset="0" stop-color="#009F00"/><stop offset="1" stop-color="#ff0"/></linearGradient><path fill="url(#aA)" d="M427.572 237.11c.5-.342-.543-3.878-3.37-6.163-2.818-2.303-5.495-2.31-5.547-1.805-.116.547 2.064 1.397 4.483 3.53 2.452 2.11 3.97 4.826 4.434 4.437z"/><linearGradient id="aB" gradientUnits="userSpaceOnUse" x1="309.925" y1="11638.102" x2="309.925" y2="11740.181" gradientTransform="matrix(-.455 -.89 -.89 .455 10928.789 -4790.907)"><stop offset="0" stop-color="#009F00"/><stop offset="1" stop-color="#ff0"/></linearGradient><path fill="url(#aB)" d="M428.3 231.967c.4-.668-.85-3.29-3.14-4.294-2.264-1.03-3.876-.317-3.82.186.036.557 1.524.886 3.384 2.084 1.855 1.165 3.215 2.727 3.577 2.023z"/><linearGradient id="aC" gradientUnits="userSpaceOnUse" x1="314.263" y1="11638.105" x2="314.263" y2="11739.876" gradientTransform="matrix(-.455 -.89 -.89 .455 10928.789 -4790.907)"><stop offset="0" stop-color="#009F00"/><stop offset="1" stop-color="#ff0"/></linearGradient><path fill="url(#aC)" d="M427.198 223.675c-.442-.746-1.93-.368-2.786.457-.86.836-1.43 1.583-1.374 1.755.115.142 1.03.15 2.24-.123 1.192-.246 2.34-1.324 1.92-2.09z"/><path fill="#3C140A" d="M412.7 345.146H202.035L307.368 151.8z"/><linearGradient id="aD" gradientUnits="userSpaceOnUse" x1="246.329" y1="336.958" x2="325.314" y2="336.958"><stop offset="0" stop-color="#f00"/><stop offset="1" stop-color="#ff0"/></linearGradient><path fill="url(#aD)" d="M325.314 336.96c0 21.747-17.68 39.382-39.495 39.382-21.81 0-39.49-17.635-39.49-39.383 0-21.758 17.68-39.386 39.49-39.386 21.813 0 39.494 17.628 39.494 39.385z"/><linearGradient id="aE" gradientUnits="userSpaceOnUse" x1="217.778" y1="338.154" x2="275.37" y2="338.154"><stop offset="0" stop-color="#f00"/><stop offset="1" stop-color="#ff0"/></linearGradient><path fill="url(#aE)" d="M275.37 338.155c0 15.86-12.89 28.716-28.797 28.716-15.898 0-28.795-12.855-28.795-28.715 0-15.863 12.896-28.717 28.795-28.717 15.908 0 28.797 12.854 28.797 28.717z"/><linearGradient id="aF" gradientUnits="userSpaceOnUse" x1="193.986" y1="344.141" x2="230.055" y2="344.141"><stop offset="0" stop-color="#f00"/><stop offset="1" stop-color="#ff0"/></linearGradient><path fill="url(#aF)" d="M230.055 344.143c0 9.932-8.075 17.982-18.034 17.982-9.957 0-18.034-8.05-18.034-17.982 0-9.938 8.077-17.987 18.035-17.987 9.96 0 18.035 8.05 18.035 17.987z"/><path fill="#3C140A" d="M254.847 261.424c-1.17 2.823-3.273 10.983-3.273 10.983l4.808-10.262c.39-.812 38.897-81.906 19.71-128.03-5.603-13.483-15.618-22.83-29.753-27.773l-.554 1.59c13.662 4.79 23.332 13.81 28.75 26.828 18.888 45.44-19.335 125.83-19.69 126.664zM251.06 272.12l1.314.296c.173-.702 15.688-71-7.6-103.637-6.815-9.542-16.32-15.06-28.26-16.403l-.146 1.344c11.543 1.304 20.722 6.624 27.292 15.842 22.95 32.15 7.554 101.857 7.4 102.557z"/></g></svg>