<svg width="512" xmlns="http://www.w3.org/2000/svg" height="512" viewBox="0.5 512.5 512 512" enable-background="new 0.5 512.5 512 512"><defs><linearGradient gradientTransform="matrix(.854 .521 -.521 .854 1303.966 479.484)" id="az" y1="664.658" y2="748.012" gradientUnits="userSpaceOnUse" x2="0"><stop offset="0" stop-color="#009f00"/><stop offset="1" stop-color="#ff0"/></linearGradient><linearGradient gradientTransform="matrix(.854 .521 -.521 .854 1303.966 479.484)" id="X" y1="664.582" y2="748.097" gradientUnits="userSpaceOnUse" x2="0"><stop offset="0" stop-color="#009f00"/><stop offset="1" stop-color="#ff0"/></linearGradient><linearGradient gradientTransform="matrix(.854 .521 -.521 .854 1303.966 479.484)" id="V" y1="664.569" y2="748.088" gradientUnits="userSpaceOnUse" x2="0"><stop offset="0" stop-color="#009f00"/><stop offset="1" stop-color="#ff0"/></linearGradient><linearGradient gradientTransform="matrix(.854 .521 -.521 .854 1303.966 479.484)" id="W" y1="664.555" y2="748.102" gradientUnits="userSpaceOnUse" x2="0"><stop offset="0" stop-color="#009f00"/><stop offset="1" stop-color="#ff0"/></linearGradient><linearGradient gradientTransform="matrix(.854 .521 -.521 .854 1303.966 479.484)" id="Y" y1="664.592" y2="748.101" gradientUnits="userSpaceOnUse" x2="0"><stop offset="0" stop-color="#009f00"/><stop offset="1" stop-color="#ff0"/></linearGradient><linearGradient gradientTransform="matrix(.854 .521 -.521 .854 1303.966 479.484)" id="Z" y1="664.588" y2="748.116" gradientUnits="userSpaceOnUse" x2="0"><stop offset="0" stop-color="#009f00"/><stop offset="1" stop-color="#ff0"/></linearGradient><linearGradient gradientTransform="matrix(.854 .521 -.521 .854 1303.966 479.484)" id="ac" y1="664.615" y2="748.124" gradientUnits="userSpaceOnUse" x2="0"><stop offset="0" stop-color="#009f00"/><stop offset="1" stop-color="#ff0"/></linearGradient><linearGradient gradientTransform="matrix(.854 .521 -.521 .854 1303.966 479.484)" id="aa" y1="664.59" y2="748.127" gradientUnits="userSpaceOnUse" x2="0"><stop offset="0" stop-color="#009f00"/><stop offset="1" stop-color="#ff0"/></linearGradient><linearGradient gradientTransform="matrix(.854 .521 -.521 .854 1303.966 479.484)" id="ab" y1="664.592" y2="748.135" gradientUnits="userSpaceOnUse" x2="0"><stop offset="0" stop-color="#009f00"/><stop offset="1" stop-color="#ff0"/></linearGradient><linearGradient gradientTransform="matrix(.854 .521 -.521 .854 1303.966 479.484)" id="U" y1="664.537" y2="748.084" gradientUnits="userSpaceOnUse" x2="0"><stop offset="0" stop-color="#009f00"/><stop offset="1" stop-color="#ff0"/></linearGradient><linearGradient gradientTransform="matrix(.854 .521 -.521 .854 1303.966 479.484)" id="T" y1="664.652" y2="748.192" gradientUnits="userSpaceOnUse" x2="0"><stop offset="0" stop-color="#009f00"/><stop offset="1" stop-color="#ff0"/></linearGradient><linearGradient gradientTransform="matrix(.978 -.21 .21 .978 -501.926 53.904)" id="M" y1="695.007" y2="802.073" gradientUnits="userSpaceOnUse" x2="0"><stop offset="0" stop-color="#009f00"/><stop offset="1" stop-color="#ff0"/></linearGradient><linearGradient gradientTransform="matrix(.978 -.21 .21 .978 -501.926 53.904)" id="K" y1="695.004" y2="802.215" gradientUnits="userSpaceOnUse" x2="0"><stop offset="0" stop-color="#009f00"/><stop offset="1" stop-color="#ff0"/></linearGradient><linearGradient gradientTransform="matrix(.978 -.21 .21 .978 -501.926 53.904)" id="L" y1="695.007" y2="802.173" gradientUnits="userSpaceOnUse" x2="0"><stop offset="0" stop-color="#009f00"/><stop offset="1" stop-color="#ff0"/></linearGradient><linearGradient gradientTransform="matrix(.854 .521 -.521 .854 1303.966 479.484)" id="N" y1="664.627" y2="748.121" gradientUnits="userSpaceOnUse" x2="0"><stop offset="0" stop-color="#009f00"/><stop offset="1" stop-color="#ff0"/></linearGradient><linearGradient gradientTransform="matrix(.854 .521 -.521 .854 1303.966 479.484)" id="S" y1="664.646" y2="748.183" gradientUnits="userSpaceOnUse" x2="0"><stop offset="0" stop-color="#009f00"/><stop offset="1" stop-color="#ff0"/></linearGradient><linearGradient gradientTransform="matrix(.854 .521 -.521 .854 1303.966 479.484)" id="O" y1="664.629" y2="748.138" gradientUnits="userSpaceOnUse" x2="0"><stop offset="0" stop-color="#009f00"/><stop offset="1" stop-color="#ff0"/></linearGradient><linearGradient gradientTransform="matrix(.854 .521 -.521 .854 1303.966 479.484)" id="R" y1="664.642" y2="748.169" gradientUnits="userSpaceOnUse" x2="0"><stop offset="0" stop-color="#009f00"/><stop offset="1" stop-color="#ff0"/></linearGradient><linearGradient gradientTransform="matrix(.854 .521 -.521 .854 1303.966 479.484)" id="P" y1="664.634" y2="748.145" gradientUnits="userSpaceOnUse" x2="0"><stop offset="0" stop-color="#009f00"/><stop offset="1" stop-color="#ff0"/></linearGradient><linearGradient gradientTransform="matrix(.854 .521 -.521 .854 1303.966 479.484)" id="Q" y1="664.635" y2="748.177" gradientUnits="userSpaceOnUse" x2="0"><stop offset="0" stop-color="#009f00"/><stop offset="1" stop-color="#ff0"/></linearGradient><linearGradient gradientTransform="matrix(.854 .521 -.521 .854 1303.966 479.484)" id="ad" y1="664.612" y2="748.138" gradientUnits="userSpaceOnUse" x2="0"><stop offset="0" stop-color="#009f00"/><stop offset="1" stop-color="#ff0"/></linearGradient><linearGradient gradientTransform="matrix(.854 .521 -.521 .854 1303.966 479.484)" id="ae" y1="664.655" y2="748.18" gradientUnits="userSpaceOnUse" x2="0"><stop offset="0" stop-color="#009f00"/><stop offset="1" stop-color="#ff0"/></linearGradient><linearGradient gradientTransform="matrix(.854 .521 -.521 .854 1303.966 479.484)" id="as" y1="664.75" y2="748.023" gradientUnits="userSpaceOnUse" x2="0"><stop offset="0" stop-color="#009f00"/><stop offset="1" stop-color="#ff0"/></linearGradient><linearGradient gradientTransform="matrix(.854 .521 -.521 .854 1303.966 479.484)" id="aq" y1="664.756" y2="748.044" gradientUnits="userSpaceOnUse" x2="0"><stop offset="0" stop-color="#009f00"/><stop offset="1" stop-color="#ff0"/></linearGradient><linearGradient gradientTransform="matrix(.854 .521 -.521 .854 1303.966 479.484)" id="ar" y1="664.742" y2="748.036" gradientUnits="userSpaceOnUse" x2="0"><stop offset="0" stop-color="#009f00"/><stop offset="1" stop-color="#ff0"/></linearGradient><linearGradient gradientTransform="matrix(.854 .521 -.521 .854 1303.966 479.484)" id="at" y1="664.74" y2="748.019" gradientUnits="userSpaceOnUse" x2="0"><stop offset="0" stop-color="#009f00"/><stop offset="1" stop-color="#ff0"/></linearGradient><linearGradient gradientTransform="matrix(.854 .521 -.521 .854 1303.966 479.484)" id="ay" y1="664.664" y2="748.013" gradientUnits="userSpaceOnUse" x2="0"><stop offset="0" stop-color="#009f00"/><stop offset="1" stop-color="#ff0"/></linearGradient><linearGradient gradientTransform="matrix(.854 .521 -.521 .854 1303.966 479.484)" id="au" y1="664.731" y2="748.012" gradientUnits="userSpaceOnUse" x2="0"><stop offset="0" stop-color="#009f00"/><stop offset="1" stop-color="#ff0"/></linearGradient><linearGradient gradientTransform="matrix(.854 .521 -.521 .854 1303.966 479.484)" id="ax" y1="664.667" y2="747.955" gradientUnits="userSpaceOnUse" x2="0"><stop offset="0" stop-color="#009f00"/><stop offset="1" stop-color="#ff0"/></linearGradient><linearGradient gradientTransform="matrix(.854 .521 -.521 .854 1303.966 479.484)" id="av" y1="664.719" y2="748.017" gradientUnits="userSpaceOnUse" x2="0"><stop offset="0" stop-color="#009f00"/><stop offset="1" stop-color="#ff0"/></linearGradient><linearGradient gradientTransform="matrix(.854 .521 -.521 .854 1303.966 479.484)" id="aw" y1="664.726" y2="747.983" gradientUnits="userSpaceOnUse" x2="0"><stop offset="0" stop-color="#009f00"/><stop offset="1" stop-color="#ff0"/></linearGradient><linearGradient gradientTransform="matrix(.854 .521 -.521 .854 1303.966 479.484)" id="ap" y1="664.758" y2="748.052" gradientUnits="userSpaceOnUse" x2="0"><stop offset="0" stop-color="#009f00"/><stop offset="1" stop-color="#ff0"/></linearGradient><linearGradient gradientTransform="matrix(.854 .521 -.521 .854 1303.966 479.484)" id="ao" y1="664.758" y2="748.059" gradientUnits="userSpaceOnUse" x2="0"><stop offset="0" stop-color="#009f00"/><stop offset="1" stop-color="#ff0"/></linearGradient><linearGradient gradientTransform="matrix(.854 .521 -.521 .854 1303.966 479.484)" id="ah" y1="664.69" y2="748.015" gradientUnits="userSpaceOnUse" x2="0"><stop offset="0" stop-color="#009f00"/><stop offset="1" stop-color="#ff0"/></linearGradient><linearGradient gradientTransform="matrix(.854 .521 -.521 .854 1303.966 479.484)" id="af" y1="664.658" y2="748.091" gradientUnits="userSpaceOnUse" x2="0"><stop offset="0" stop-color="#009f00"/><stop offset="1" stop-color="#ff0"/></linearGradient><linearGradient gradientTransform="matrix(.854 .521 -.521 .854 1303.966 479.484)" id="ag" y1="664.696" y2="748.019" gradientUnits="userSpaceOnUse" x2="0"><stop offset="0" stop-color="#009f00"/><stop offset="1" stop-color="#ff0"/></linearGradient><linearGradient gradientTransform="matrix(.854 .521 -.521 .854 1303.966 479.484)" id="ai" y1="664.695" y2="747.976" gradientUnits="userSpaceOnUse" x2="0"><stop offset="0" stop-color="#009f00"/><stop offset="1" stop-color="#ff0"/></linearGradient><linearGradient gradientTransform="matrix(.854 .521 -.521 .854 1303.966 479.484)" id="an" y1="664.779" y2="748.062" gradientUnits="userSpaceOnUse" x2="0"><stop offset="0" stop-color="#009f00"/><stop offset="1" stop-color="#ff0"/></linearGradient><linearGradient gradientTransform="matrix(.854 .521 -.521 .854 1303.966 479.484)" id="aj" y1="664.682" y2="748.002" gradientUnits="userSpaceOnUse" x2="0"><stop offset="0" stop-color="#009f00"/><stop offset="1" stop-color="#ff0"/></linearGradient><linearGradient gradientTransform="matrix(.854 .521 -.521 .854 1303.966 479.484)" id="am" y1="664.669" y2="748.019" gradientUnits="userSpaceOnUse" x2="0"><stop offset="0" stop-color="#009f00"/><stop offset="1" stop-color="#ff0"/></linearGradient><linearGradient gradientTransform="matrix(.854 .521 -.521 .854 1303.966 479.484)" id="ak" y1="664.678" y2="747.983" gradientUnits="userSpaceOnUse" x2="0"><stop offset="0" stop-color="#009f00"/><stop offset="1" stop-color="#ff0"/></linearGradient><linearGradient gradientTransform="matrix(.854 .521 -.521 .854 1303.966 479.484)" id="al" y1="664.676" y2="747.99" gradientUnits="userSpaceOnUse" x2="0"><stop offset="0" stop-color="#009f00"/><stop offset="1" stop-color="#ff0"/></linearGradient><linearGradient gradientTransform="matrix(.978 -.21 .21 .978 -501.926 53.904)" id="J" y1="694.981" y2="802.21" gradientUnits="userSpaceOnUse" x2="0"><stop offset="0" stop-color="#009f00"/><stop offset="1" stop-color="#ff0"/></linearGradient><linearGradient gradientTransform="matrix(.978 -.21 .21 .978 -501.926 53.904)" id="I" y1="694.964" y2="802.235" gradientUnits="userSpaceOnUse" x2="0"><stop offset="0" stop-color="#009f00"/><stop offset="1" stop-color="#ff0"/></linearGradient><linearGradient gradientTransform="matrix(.978 -.21 .21 .978 -501.926 53.904)" id="f" y1="695.013" y2="802.161" gradientUnits="userSpaceOnUse" x2="0"><stop offset="0" stop-color="#009f00"/><stop offset="1" stop-color="#ff0"/></linearGradient><linearGradient gradientTransform="matrix(.978 -.21 .21 .978 -501.926 53.904)" id="d" y1="695.023" y2="802.136" gradientUnits="userSpaceOnUse" x2="0"><stop offset="0" stop-color="#009f00"/><stop offset="1" stop-color="#ff0"/></linearGradient><linearGradient gradientTransform="matrix(.978 -.21 .21 .978 -501.926 53.904)" id="e" y1="695.019" y2="802.129" gradientUnits="userSpaceOnUse" x2="0"><stop offset="0" stop-color="#009f00"/><stop offset="1" stop-color="#ff0"/></linearGradient><linearGradient gradientTransform="matrix(.978 -.21 .21 .978 -501.926 53.904)" id="g" y1="695.015" y2="802.097" gradientUnits="userSpaceOnUse" x2="0"><stop offset="0" stop-color="#009f00"/><stop offset="1" stop-color="#ff0"/></linearGradient><linearGradient gradientTransform="matrix(.978 -.21 .21 .978 -501.926 53.904)" id="l" y1="695.061" y2="802.157" gradientUnits="userSpaceOnUse" x2="0"><stop offset="0" stop-color="#009f00"/><stop offset="1" stop-color="#ff0"/></linearGradient><linearGradient gradientTransform="matrix(.978 -.21 .21 .978 -501.926 53.904)" id="h" y1="695.109" y2="802.17" gradientUnits="userSpaceOnUse" x2="0"><stop offset="0" stop-color="#009f00"/><stop offset="1" stop-color="#ff0"/></linearGradient><linearGradient gradientTransform="matrix(.978 -.21 .21 .978 -501.926 53.904)" id="k" y1="695.062" y2="802.165" gradientUnits="userSpaceOnUse" x2="0"><stop offset="0" stop-color="#009f00"/><stop offset="1" stop-color="#ff0"/></linearGradient><linearGradient gradientTransform="matrix(.978 -.21 .21 .978 -501.926 53.904)" id="i" y1="695.076" y2="802.173" gradientUnits="userSpaceOnUse" x2="0"><stop offset="0" stop-color="#009f00"/><stop offset="1" stop-color="#ff0"/></linearGradient><linearGradient gradientTransform="matrix(.978 -.21 .21 .978 -501.926 53.904)" id="j" y1="695.062" y2="802.169" gradientUnits="userSpaceOnUse" x2="0"><stop offset="0" stop-color="#009f00"/><stop offset="1" stop-color="#ff0"/></linearGradient><linearGradient gradientTransform="matrix(.978 -.21 .21 .978 -501.926 53.904)" id="c" y1="695.029" y2="802.113" gradientUnits="userSpaceOnUse" x2="0"><stop offset="0" stop-color="#009f00"/><stop offset="1" stop-color="#ff0"/></linearGradient><linearGradient gradientTransform="matrix(.978 -.21 .21 .978 -501.926 53.904)" id="b" y1="695.03" y2="802.129" gradientUnits="userSpaceOnUse" x2="0"><stop offset="0" stop-color="#009f00"/><stop offset="1" stop-color="#ff0"/></linearGradient><linearGradient gradientTransform="matrix(.694 -.72 .72 .694 -1265.49 3620.338)" id="aC" y1="-757.165" x1="3115.795" y2="-878.1" gradientUnits="userSpaceOnUse" x2="3120.018"><stop offset="0" stop-color="#004eff"/><stop offset="1" stop-color="#0ff"/></linearGradient><linearGradient gradientTransform="matrix(.694 -.72 .72 .694 -1265.49 3620.338)" id="aA" y1="-807.062" x1="3141.212" y2="-877.274" gradientUnits="userSpaceOnUse" x2="3143.664"><stop offset="0" stop-color="#004eff"/><stop offset="1" stop-color="#0ff"/></linearGradient><linearGradient gradientTransform="matrix(.694 -.72 .72 .694 -1265.49 3620.338)" id="aB" y1="-782.111" x1="3128.502" y2="-877.687" gradientUnits="userSpaceOnUse" x2="3131.84"><stop offset="0" stop-color="#004eff"/><stop offset="1" stop-color="#0ff"/></linearGradient><linearGradient gradientTransform="matrix(.694 -.72 .72 .694 -1265.49 3620.338)" id="aD" y1="-732.217" x1="3103.085" y2="-878.512" gradientUnits="userSpaceOnUse" x2="3108.194"><stop offset="0" stop-color="#004eff"/><stop offset="1" stop-color="#0ff"/></linearGradient><linearGradient gradientTransform="matrix(.978 -.21 .21 .978 -501.926 53.904)" id="a" y1="695.035" y2="802.132" gradientUnits="userSpaceOnUse" x2="0"><stop offset="0" stop-color="#009f00"/><stop offset="1" stop-color="#ff0"/></linearGradient><linearGradient gradientTransform="matrix(-.706 .708 -.708 -.706 8030.596 138.201)" id="aE" y1="5157.24" x1="5914.703" y2="5131.798" gradientUnits="userSpaceOnUse" x2="5984.606"><stop offset="0" stop-color="#0ff"/><stop offset="1" stop-color="#00ae00"/></linearGradient><linearGradient gradientTransform="matrix(-.706 .708 -.708 -.706 8030.596 138.201)" id="aH" y1="5141.395" x1="5984.287" y2="5115.958" gradientUnits="userSpaceOnUse" x2="6054.172"><stop offset="0" stop-color="#0ff"/><stop offset="1" stop-color="#00ae00"/></linearGradient><linearGradient gradientTransform="matrix(-.706 .708 -.708 -.706 8030.596 138.201)" id="aF" y1="5150.519" x1="5937.566" y2="5125.081" gradientUnits="userSpaceOnUse" x2="6007.457"><stop offset="0" stop-color="#0ff"/><stop offset="1" stop-color="#00ae00"/></linearGradient><linearGradient gradientTransform="matrix(-.706 .708 -.708 -.706 8030.596 138.201)" id="aG" y1="5145.66" x1="5960.463" y2="5120.129" gradientUnits="userSpaceOnUse" x2="6030.608"><stop offset="0" stop-color="#0ff"/><stop offset="1" stop-color="#00ae00"/></linearGradient><linearGradient gradientTransform="matrix(.978 -.21 .21 .978 -501.926 53.904)" id="m" y1="695.048" y2="802.16" gradientUnits="userSpaceOnUse" x2="0"><stop offset="0" stop-color="#009f00"/><stop offset="1" stop-color="#ff0"/></linearGradient><linearGradient gradientTransform="matrix(.978 -.21 .21 .978 -501.926 53.904)" id="n" y1="695.034" y2="802.168" gradientUnits="userSpaceOnUse" x2="0"><stop offset="0" stop-color="#009f00"/><stop offset="1" stop-color="#ff0"/></linearGradient><linearGradient gradientTransform="matrix(.978 -.21 .21 .978 -501.926 53.904)" id="B" y1="694.943" y2="802.193" gradientUnits="userSpaceOnUse" x2="0"><stop offset="0" stop-color="#009f00"/><stop offset="1" stop-color="#ff0"/></linearGradient><linearGradient gradientTransform="matrix(.978 -.21 .21 .978 -501.926 53.904)" id="z" y1="695" y2="802.256" gradientUnits="userSpaceOnUse" x2="0"><stop offset="0" stop-color="#009f00"/><stop offset="1" stop-color="#ff0"/></linearGradient><linearGradient gradientTransform="matrix(.978 -.21 .21 .978 -501.926 53.904)" id="A" y1="694.939" y2="802.187" gradientUnits="userSpaceOnUse" x2="0"><stop offset="0" stop-color="#009f00"/><stop offset="1" stop-color="#ff0"/></linearGradient><linearGradient gradientTransform="matrix(.978 -.21 .21 .978 -501.926 53.904)" id="C" y1="694.949" y2="802.193" gradientUnits="userSpaceOnUse" x2="0"><stop offset="0" stop-color="#009f00"/><stop offset="1" stop-color="#ff0"/></linearGradient><linearGradient gradientTransform="matrix(.978 -.21 .21 .978 -501.926 53.904)" id="H" y1="694.981" y2="802.204" gradientUnits="userSpaceOnUse" x2="0"><stop offset="0" stop-color="#009f00"/><stop offset="1" stop-color="#ff0"/></linearGradient><linearGradient gradientTransform="matrix(.978 -.21 .21 .978 -501.926 53.904)" id="D" y1="694.935" y2="802.206" gradientUnits="userSpaceOnUse" x2="0"><stop offset="0" stop-color="#009f00"/><stop offset="1" stop-color="#ff0"/></linearGradient><linearGradient gradientTransform="matrix(.978 -.21 .21 .978 -501.926 53.904)" id="G" y1="694.965" y2="802.212" gradientUnits="userSpaceOnUse" x2="0"><stop offset="0" stop-color="#009f00"/><stop offset="1" stop-color="#ff0"/></linearGradient><linearGradient gradientTransform="matrix(.978 -.21 .21 .978 -501.926 53.904)" id="E" y1="694.947" y2="802.207" gradientUnits="userSpaceOnUse" x2="0"><stop offset="0" stop-color="#009f00"/><stop offset="1" stop-color="#ff0"/></linearGradient><linearGradient gradientTransform="matrix(.978 -.21 .21 .978 -501.926 53.904)" id="F" y1="694.947" y2="802.217" gradientUnits="userSpaceOnUse" x2="0"><stop offset="0" stop-color="#009f00"/><stop offset="1" stop-color="#ff0"/></linearGradient><linearGradient gradientTransform="matrix(.978 -.21 .21 .978 -501.926 53.904)" id="y" y1="694.998" y2="802.264" gradientUnits="userSpaceOnUse" x2="0"><stop offset="0" stop-color="#009f00"/><stop offset="1" stop-color="#ff0"/></linearGradient><linearGradient gradientTransform="matrix(.978 -.21 .21 .978 -501.926 53.904)" id="x" y1="694.996" y2="802.239" gradientUnits="userSpaceOnUse" x2="0"><stop offset="0" stop-color="#009f00"/><stop offset="1" stop-color="#ff0"/></linearGradient><linearGradient gradientTransform="matrix(.978 -.21 .21 .978 -501.926 53.904)" id="q" y1="695.039" y2="802.142" gradientUnits="userSpaceOnUse" x2="0"><stop offset="0" stop-color="#009f00"/><stop offset="1" stop-color="#ff0"/></linearGradient><linearGradient gradientTransform="matrix(.978 -.21 .21 .978 -501.926 53.904)" id="o" y1="695.065" y2="802.127" gradientUnits="userSpaceOnUse" x2="0"><stop offset="0" stop-color="#009f00"/><stop offset="1" stop-color="#ff0"/></linearGradient><linearGradient gradientTransform="matrix(.978 -.21 .21 .978 -501.926 53.904)" id="p" y1="695.062" y2="802.122" gradientUnits="userSpaceOnUse" x2="0"><stop offset="0" stop-color="#009f00"/><stop offset="1" stop-color="#ff0"/></linearGradient><linearGradient gradientTransform="matrix(.978 -.21 .21 .978 -501.926 53.904)" id="r" y1="695.012" y2="802.065" gradientUnits="userSpaceOnUse" x2="0"><stop offset="0" stop-color="#009f00"/><stop offset="1" stop-color="#ff0"/></linearGradient><linearGradient gradientTransform="matrix(.978 -.21 .21 .978 -501.926 53.904)" id="w" y1="694.99" y2="802.239" gradientUnits="userSpaceOnUse" x2="0"><stop offset="0" stop-color="#009f00"/><stop offset="1" stop-color="#ff0"/></linearGradient><linearGradient gradientTransform="matrix(.978 -.21 .21 .978 -501.926 53.904)" id="s" y1="695.006" y2="802.089" gradientUnits="userSpaceOnUse" x2="0"><stop offset="0" stop-color="#009f00"/><stop offset="1" stop-color="#ff0"/></linearGradient><linearGradient gradientTransform="matrix(.978 -.21 .21 .978 -501.926 53.904)" id="v" y1="694.99" y2="802.228" gradientUnits="userSpaceOnUse" x2="0"><stop offset="0" stop-color="#009f00"/><stop offset="1" stop-color="#ff0"/></linearGradient><linearGradient gradientTransform="matrix(.978 -.21 .21 .978 -501.926 53.904)" id="t" y1="694.986" y2="802.212" gradientUnits="userSpaceOnUse" x2="0"><stop offset="0" stop-color="#009f00"/><stop offset="1" stop-color="#ff0"/></linearGradient><linearGradient gradientTransform="matrix(.978 -.21 .21 .978 -501.926 53.904)" id="u" y1="694.992" y2="802.205" gradientUnits="userSpaceOnUse" x2="0"><stop offset="0" stop-color="#009f00"/><stop offset="1" stop-color="#ff0"/></linearGradient></defs><path fill="url(#a)" d="M270.08 628.432c-16.112 10.006-11.794 13.508-11.74 13.518 1.568 1-1.147-1.553 13.99-10.67 15.855-9.564 19.362-7.438 18.404-9.21.272-.154-3.855-4.084-20.653 6.362z"/><path fill="url(#b)" d="M267.68 624.14c-14.19 8.892-10.67 12.132-10.563 12.165 1.42.91-.84-1.342 12.647-9.55 14.51-8.835 18.003-7.853 17.097-9.49.25-.146-3.783-2.783-19.18 6.874z"/><path fill="url(#c)" d="M265.268 619.842c-12.283 7.77-9.524 10.76-9.366 10.823 1.258.806-.552-1.155 11.29-8.43 13.236-8.136 16.433-7.118 15.595-8.63.244-.124-3.455-2.654-17.52 6.237z"/><path fill="url(#d)" d="M262.99 616.133c-10.375 6.617-8.394 9.377-8.187 9.467 1.118.705-.26-.967 9.947-7.31 11.957-7.44 14.86-6.38 14.093-7.765.234-.1-3.124-2.515-15.852 5.608z"/><path fill="url(#e)" d="M262.317 614.35c10.67-6.738 13.288-5.654 12.586-6.91.226-.082-2.793-2.38-14.18 4.974-8.487 5.483-7.26 7.998-7.015 8.122.966.6.04-.776 8.61-6.186z"/><path fill="url(#f)" d="M260.01 610.98c9.385-6.042 11.712-4.936 11.083-6.052.204-.067-2.46-2.242-12.514 4.34-6.6 4.327-6.128 6.614-5.84 6.77.816.497.326-.59 7.27-5.058z"/><path fill="url(#g)" d="M257.84 608.178c8.095-5.328 10.13-4.188 9.563-5.18.21-.05-2.12-2.113-10.83 3.71-4.735 3.16-5.01 5.226-4.683 5.403.677.404.605-.41 5.95-3.932z"/><path fill="url(#h)" d="M281.577 686.36c-13.625 10.15-11.453 11.907-11.163 12.095 1.178.91.11-.188 13.24-9.41 13.475-9.47 29.678-9.98 29.36-10.897.1-.982-16.932-1.586-31.437 8.213z"/><path fill="url(#i)" d="M281.025 679.7c-14.513 10.853-12.14 12.745-11.866 12.952 1.252.963-.03-.297 13.993-10.102 14.378-10.047 30.42-10.588 30.078-11.643.13-.932-16.663-1.51-32.205 8.794z"/><path fill="url(#j)" d="M279.87 674.008c-14.977 10.283-12.205 12.713-11.944 12.904 1.265.986-.1-.393 14.05-10.033 14.505-9.872 29.255-10.304 28.87-11.452.142-.84-15.59-1.985-30.977 8.58z"/><path fill="url(#k)" d="M278.713 668.316c-15.14 10.124-12.27 12.697-12.02 12.86 1.28 1-.185-.51 14.106-9.976 14.634-9.69 28.074-10.01 27.66-11.256.16-.737-14.21-2.02-29.747 8.372z"/><path fill="url(#l)" d="M277.57 662.624c-15.32 9.966-12.336 12.66-12.11 12.817 1.293 1.012-.264-.627 14.164-9.907 14.774-9.508 26.9-9.742 26.456-11.068.172-.65-12.81-2.047-28.51 8.16z"/><path fill="url(#m)" d="M276.424 656.937c-15.498 9.774-12.408 12.63-12.197 12.77 1.31 1.03-.34-.753 14.234-9.843 14.916-9.3 25.712-9.467 25.237-10.875.193-.563-11.393-2.068-27.273 7.947z"/><path fill="url(#n)" d="M275.282 651.264c-15.686 9.582-12.48 12.596-12.284 12.71 1.32 1.042-.437-.88 14.292-9.77 15.076-9.103 24.536-9.218 24.022-10.698.202-.475-9.97-2.065-26.03 7.758z"/><path fill="url(#o)" d="M274.154 645.586c-15.887 9.377-12.57 12.553-12.394 12.648 1.343 1.06-.52-1.02 14.375-9.693 15.247-8.882 23.347-8.948 22.792-10.52.226-.383-8.51-2.04-24.773 7.566z"/><path fill="url(#p)" d="M273.03 639.912c-16.087 9.162-12.66 12.51-12.498 12.588 1.357 1.082-.604-1.155 14.445-9.603 15.426-8.658 22.163-8.716 21.563-10.354.243-.31-7.036-2.012-23.51 7.37z"/><path fill="url(#q)" d="M271.914 634.234c-16.295 8.94-12.764 12.482-12.615 12.53 1.376 1.102-.687-1.313 14.523-9.517 15.626-8.418 20.974-8.494 20.338-10.19.253-.24-5.544-1.975-22.246 7.177z"/><path fill="url(#r)" d="M261.91 602.174c-.207-.594-4.108-.513-7.203 1.744-3.114 2.238-3.85 4.95-3.354 5.137.537.273 1.986-1.716 4.83-3.59 2.814-1.91 6-2.72 5.726-3.29z"/><path fill="url(#s)" d="M256.86 600.03c-.565-.597-3.578-.026-5.23 2.024-1.663 2.016-1.38 3.852-.853 3.918.58.12 1.32-1.303 3.047-2.865 1.698-1.56 3.656-2.524 3.037-3.076z"/><path fill="url(#t)" d="M240.298 634.814c18.805 2.52 16.31 7.484 16.266 7.518-1.017 1.547.408-1.888-17.14-4.006-18.395-2.22-20.713 1.154-20.57-.857-.31-.034 1.834-5.296 21.444-2.656z"/><path fill="url(#u)" d="M240.73 629.912c16.592 2.295 14.716 6.7 14.63 6.77-.922 1.404.21-1.57-15.456-3.53-16.866-2.11-19.644.215-19.49-1.654-.288-.023 2.308-4.082 20.315-1.586z"/><path fill="url(#v)" d="M241.166 625.012c14.39 2.045 13.104 5.902 12.99 6.03-.826 1.247.023-1.278-13.763-3.065-15.417-1.992-17.912.244-17.763-1.484-.277-.01 2.06-3.835 18.536-1.48z"/><path fill="url(#w)" d="M241.713 620.69c12.184 1.786 11.512 5.116 11.358 5.278-.724 1.098-.158-.982-12.077-2.587-13.953-1.883-16.165.27-16.035-1.307-.26 0 1.813-3.58 16.755-1.384z"/><path fill="url(#x)" d="M241.6 618.787c-12.5-1.768-14.44.287-14.314-1.145-.245.018 1.564-3.312 14.97-1.275 9.995 1.523 9.91 4.322 9.736 4.537-.638.94-.356-.69-10.393-2.117z"/><path fill="url(#y)" d="M242.318 614.768c-11.04-1.66-12.706.3-12.59-.975-.217.023 1.318-3.053 13.19-1.164 7.79 1.235 8.305 3.517 8.107 3.776-.54.785-.54-.408-8.707-1.638z"/><path fill="url(#z)" d="M243.144 611.33c-9.568-1.547-10.955.33-10.85-.814-.21.043 1.07-2.793 11.4-1.05 5.62.944 6.718 2.722 6.493 3.01-.45.647-.724-.124-7.043-1.146z"/><path fill="url(#A)" d="M253.618 692.35c16.597 3.676 15.337 6.162 15.147 6.46-.695 1.31-.177-.13-15.935-3.163-16.185-3.11-31.17 3.057-31.256 2.094-.493-.857 14.784-8.385 32.044-5.39z"/><path fill="url(#B)" d="M251.387 686.055c17.69 3.953 16.31 6.645 16.144 6.947-.75 1.39-.095-.283-16.91-3.475-17.245-3.277-32.096 2.804-32.216 1.7-.505-.798 14.572-8.206 32.983-5.172z"/><path fill="url(#C)" d="M250.1 680.387c17.884 3.242 16.358 6.592 16.195 6.875-.746 1.414-.07-.408-16.934-3.393-17.282-3.063-30.914 2.58-31.034 1.38-.474-.7 13.403-8.2 31.775-4.863z"/><path fill="url(#D)" d="M248.814 674.723c17.97 3.033 16.405 6.55 16.247 6.8-.757 1.44-.037-.532-16.96-3.317-17.327-2.84-29.717 2.377-29.85 1.068-.45-.614 12.125-7.667 30.564-4.55z"/><path fill="url(#E)" d="M247.524 669.064c18.06 2.807 16.45 6.492 16.304 6.727-.763 1.452-.012-.675-16.985-3.233-17.38-2.616-28.535 2.137-28.675.738-.422-.514 10.84-7.11 29.356-4.23z"/><path fill="url(#F)" d="M246.224 663.41c18.156 2.562 16.51 6.435 16.377 6.645-.77 1.477.005-.823-17.023-3.146-17.428-2.378-27.346 1.895-27.484.42-.405-.432 9.538-6.55 28.13-3.92z"/><path fill="url(#G)" d="M244.938 657.766c18.243 2.314 16.563 6.373 16.43 6.555-.782 1.495.033-.977-17.05-3.052-17.488-2.123-26.16 1.653-26.303.086-.38-.344 8.243-5.965 26.923-3.588z"/><path fill="url(#H)" d="M243.633 652.12c18.34 2.052 16.63 6.302 16.5 6.464-.786 1.516.054-1.145-17.086-2.95-17.557-1.85-24.975 1.403-25.113-.255-.36-.26 6.923-5.358 25.7-3.26z"/><path fill="url(#I)" d="M242.327 646.49c18.436 1.77 16.688 6.225 16.573 6.36-.79 1.552.072-1.304-17.12-2.837-17.624-1.577-23.79 1.13-23.924-.614-.34-.187 5.595-4.72 24.47-2.91z"/><path fill="url(#J)" d="M241.018 640.856c18.53 1.48 16.765 6.157 16.646 6.253-.797 1.57.09-1.478-17.154-2.718-17.705-1.28-22.614.844-22.73-.97-.332-.112 4.24-4.074 23.238-2.566z"/><path fill="url(#K)" d="M236.963 607.516c-.048-.627 3.54-2.146 7.29-1.355 3.76.763 5.54 2.94 5.166 3.312-.375.465-2.515-.752-5.883-1.3-3.345-.584-6.584-.018-6.574-.656z"/><path fill="url(#L)" d="M240.69 603.496c.274-.77 3.254-1.49 5.6-.297 2.348 1.153 2.842 2.946 2.39 3.228-.484.346-1.736-.656-3.953-1.37-2.188-.733-4.372-.8-4.036-1.562z"/><path fill="url(#M)" d="M248.205 598.873c.907-.145 1.594 1.326 1.483 2.572-.115 1.266-.346 2.223-.523 2.29-.196.015-.81-.747-1.392-1.9-.585-1.138-.47-2.8.432-2.962z"/><path fill="url(#N)" d="M344.118 698.736c-14.462-2.965-13.905 1.318-13.877 1.352.352 1.404.186-1.49 13.618 1.462 14.078 3.08 14.918 6.15 15.326 4.644.238.052.015-4.366-15.066-7.458z"/><path fill="url(#O)" d="M345.063 695.033c-12.778-2.572-12.528 1.14-12.49 1.217.316 1.27.25-1.207 12.265 1.37 12.926 2.774 14.373 5.2 14.74 3.786.22.053-.645-3.59-14.515-6.373z"/><path fill="url(#P)" d="M346.006 691.314c-11.1-2.184-11.146.982-11.09 1.104.277 1.125.306-.95 10.895 1.28 11.83 2.485 13.09 4.767 13.427 3.462.204.063-.525-3.34-13.23-5.846z"/><path fill="url(#Q)" d="M346.71 688.004c-9.403-1.81-9.766.805-9.698.97.254.99.374-.687 9.534 1.187 10.738 2.2 11.81 4.347 12.12 3.16.188.065-.412-3.092-11.957-5.316z"/><path fill="url(#R)" d="M347.285 686.64c9.637 1.905 10.536 3.91 10.81 2.825.173.078-.297-2.836-10.67-4.77-7.73-1.442-8.39.632-8.316.833.224.852.438-.423 8.175 1.11z"/><path fill="url(#S)" d="M347.79 683.506c8.54 1.604 9.26 3.473 9.5 2.51.15.072-.184-2.588-9.392-4.24-6.045-1.088-7 .455-6.92.695.19.714.5-.158 6.813 1.036z"/><path fill="url(#T)" d="M348.066 680.76c7.428 1.322 7.966 3.053 8.18 2.19.144.085-.065-2.325-8.103-3.694-4.37-.748-5.633.268-5.547.545.17.59.567.093 5.47.96z"/><path fill="url(#U)" d="M319.54 737.582c-13.132-1.553-12.85.594-12.786.86.178 1.142.163-.046 12.52 1.765 12.684 1.863 22.104 10.24 22.417 9.55.58-.503-8.704-9.952-22.15-12.175z"/><path fill="url(#V)" d="M322.8 733.527c-14.012-1.633-13.688.705-13.642.963.19 1.218.14-.176 13.314 1.788 13.505 2.017 22.85 10.288 23.224 9.513.572-.46-8.6-9.767-22.897-12.263z"/><path fill="url(#W)" d="M325.198 729.7c-13.968-2.204-13.706.645-13.66.895.187 1.236.155-.277 13.312 1.85 13.476 2.185 22.036 9.826 22.437 8.975.53-.393-7.732-9.46-22.09-11.72z"/><path fill="url(#X)" d="M327.6 725.867c-13.975-2.383-13.734.604-13.677.828.182 1.25.163-.38 13.308 1.916 13.458 2.355 21.212 9.364 21.648 8.44.49-.33-6.932-8.74-21.278-11.183z"/><path fill="url(#Y)" d="M330.006 722.043c-13.986-2.568-13.752.55-13.708.757.19 1.26.187-.493 13.306 1.983 13.44 2.535 20.41 8.89 20.872 7.896.443-.268-6.132-8.002-20.47-10.637z"/><path fill="url(#Z)" d="M332.41 718.225c-13.99-2.775-13.775.492-13.732.68.187 1.284.21-.608 13.314 2.056 13.407 2.727 19.592 8.405 20.076 7.36.41-.216-5.326-7.26-19.658-10.095z"/><path fill="url(#aa)" d="M334.81 714.405c-13.992-2.976-13.8.437-13.752.608.19 1.29.226-.732 13.308 2.127 13.39 2.924 18.79 7.916 19.296 6.805.364-.154-4.52-6.492-18.852-9.54z"/><path fill="url(#ab)" d="M337.218 710.596c-13.996-3.195-13.833.37-13.78.518.187 1.312.26-.854 13.31 2.214 13.368 3.144 17.982 7.432 18.51 6.248.333-.097-3.707-5.707-18.04-8.98z"/><path fill="url(#ac)" d="M339.624 706.797c-13.994-3.426-13.854.29-13.802.422.183 1.335.275-.98 13.3 2.304 13.35 3.363 17.184 6.933 17.726 5.682.304-.044-2.894-4.897-17.224-8.41z"/><path fill="url(#ad)" d="M342.038 702.992c-13.992-3.666-13.894.225-13.836.326.183 1.36.314-1.107 13.296 2.4 13.337 3.604 16.396 6.42 16.947 5.12.272.002-2.068-4.08-16.407-7.846z"/><path fill="url(#ae)" d="M353.585 679.547c.204-.445-2.044-2.486-5.005-2.865-2.953-.406-4.822.738-4.643 1.107.154.44 2.037.09 4.652.555 2.61.426 4.844 1.673 4.995 1.202z"/><path fill="url(#af)" d="M351.887 675.637c-.003-.637-2.01-1.926-4.04-1.652-2.02.25-2.846 1.434-2.584 1.758.266.375 1.446-.033 3.26.01 1.794.023 3.414.526 3.364-.116z"/><path fill="url(#ag)" d="M323.884 686.414c9.26 11.48 5.194 12.945 5.148 12.94-1.403.337 1.24-.843-7.526-11.423-9.195-11.085-12.31-10.43-11.153-11.483-.157-.187 3.876-2.01 13.53 9.967z"/><path fill="url(#ah)" d="M326.758 683.88c8.128 10.17 4.712 11.647 4.623 11.647-1.272.297.963-.777-6.83-10.26-8.387-10.21-11.2-10.387-10.114-11.36-.147-.167 3.493-1.067 12.322 9.972z"/><path fill="url(#ai)" d="M329.632 681.344c7.022 8.85 4.228 10.346 4.096 10.35-1.135.27.7-.71-6.125-9.084-7.635-9.367-10.24-9.444-9.232-10.34-.148-.155 3.22-1.06 11.262 9.074z"/><path fill="url(#aj)" d="M332.257 679.203c5.916 7.52 3.752 9.035 3.58 9.05-1 .23.438-.642-5.428-7.92-6.867-8.524-9.272-8.495-8.355-9.314-.146-.14 2.942-1.05 10.202 8.183z"/><path fill="url(#ak)" d="M333.214 678.066c-6.11-7.686-8.304-7.565-7.47-8.303-.143-.12 2.662-1.035 9.137 7.287 4.82 6.2 3.273 7.734 3.063 7.762-.864.193.17-.574-4.73-6.746z"/><path fill="url(#al)" d="M335.773 676.18c-5.345-6.838-7.336-6.627-6.588-7.283-.132-.102 2.385-1.016 8.075 6.396 3.733 4.867 2.8 6.43 2.548 6.47-.723.15-.085-.525-4.035-5.583z"/><path fill="url(#am)" d="M338.084 674.68c-4.575-5.984-6.362-5.668-5.688-6.264-.144-.086 2.102-1 7 5.506 2.66 3.54 2.333 5.127 2.045 5.176-.597.12-.336-.46-3.356-4.418z"/><path fill="url(#an)" d="M300.545 726.016c7.403 10.947 5.354 11.682 5.09 11.743-1.1.367-.032-.168-7.302-10.307-7.47-10.408-19.23-14.94-18.762-15.53.18-.752 12.842 3.173 20.975 14.093z"/><path fill="url(#ao)" d="M302.66 721.267c7.87 11.69 5.644 12.472 5.39 12.554-1.166.384.09-.205-7.683-11-7.975-11.073-19.62-15.582-19.092-16.272.144-.72 12.624 3.16 21.386 14.72z"/><path fill="url(#ap)" d="M304.98 717.38c8.353 11.396 5.692 12.468 5.45 12.54-1.18.402.177-.264-7.74-10.973-8.113-10.967-18.833-15.064-18.257-15.812.11-.65 11.962 2.54 20.546 14.246z"/><path fill="url(#aq)" d="M307.286 713.494c8.518 11.322 5.75 12.473 5.528 12.53-1.2.407.264-.325-7.798-10.944-8.258-10.866-18.046-14.55-17.42-15.355.07-.59 10.953 2.156 19.69 13.77z"/><path fill="url(#ar)" d="M309.597 709.61c8.688 11.244 5.804 12.462 5.593 12.515-1.205.412.354-.39-7.853-10.906-8.406-10.772-17.252-14.054-16.58-14.917.035-.518 9.93 1.783 18.84 13.306z"/><path fill="url(#as)" d="M311.893 705.73c8.872 11.153 5.868 12.456 5.682 12.5-1.23.426.443-.46-7.922-10.878-8.567-10.656-16.456-13.55-15.74-14.46 0-.46 8.892 1.41 17.98 12.837z"/><path fill="url(#at)" d="M314.196 701.847c9.057 11.063 5.93 12.458 5.755 12.49-1.24.423.543-.536-7.985-10.842-8.733-10.55-15.652-13.058-14.892-14.015-.028-.398 7.853 1.045 17.123 12.367z"/><path fill="url(#au)" d="M316.482 697.97c9.253 10.964 6.01 12.448 5.847 12.468-1.254.437.646-.617-8.063-10.805-8.915-10.43-14.846-12.562-14.034-13.568-.067-.34 6.78.674 16.25 11.906z"/><path fill="url(#av)" d="M318.77 694.09c9.456 10.857 6.078 12.443 5.94 12.457-1.275.445.742-.7-8.142-10.762-9.104-10.31-14.032-12.084-13.174-13.138-.095-.288 5.687.332 15.375 11.443z"/><path fill="url(#aw)" d="M321.048 690.213c9.67 10.742 6.163 12.44 6.043 12.43-1.292.46.844-.786-8.223-10.71-9.31-10.19-13.217-11.614-12.312-12.702-.127-.238 4.58-.023 14.493 10.983z"/><path fill="url(#ax)" d="M336.638 669.227c.312-.383 3.152.68 4.844 3.13 1.715 2.438 1.552 4.622 1.145 4.632-.466.06-1.018-1.77-2.627-3.876-1.578-2.124-3.708-3.538-3.362-3.887z"/><path fill="url(#ay)" d="M340.898 668.95c.57-.29 2.637.895 3.32 2.825.705 1.907.023 3.182-.384 3.1-.456-.062-.63-1.298-1.497-2.89-.84-1.58-2.033-2.788-1.44-3.036z"/><path fill="url(#az)" d="M347.62 670.353c.586.412.188 1.604-.547 2.252-.736.647-1.384 1.063-1.52 1.007-.12-.096-.06-.854.234-1.812.28-.958 1.236-1.83 1.833-1.447z"/><path fill="#3c140a" d="M299.13 668.78h-98.27v36.8h56.505v2.236c14.74-.014 29.48-.162 41.764-1.418V668.78z"/><path fill="url(#aA)" d="M299.446 735.943l121.28-19.52L228.74 862.126z"/><path fill="url(#aB)" d="M299.446 735.943l121.905 15.17-192.61 111.014"/><path fill="url(#aC)" d="M299.446 735.943l122.53 49.856-193.237 76.327"/><path fill="url(#aD)" d="M299.446 735.943l123.148 84.546-193.855 41.637"/><path fill="url(#aE)" d="M281.933 724.117c-90.898-58.532-198.358-60.756-208.4-50.703-11.687 11.705 112.59 35.093 208.4 126.912v-76.21z"/><path fill="url(#aF)" d="M281.933 811.533v-57.827c-95.812-69.587-214.73-72.75-225.387-62.085-11.885 11.903 116.826 35.88 212.933 131.6.126.12.477-.09.477-.09l11.976-11.597z"/><path fill="url(#aG)" d="M281.933 813.254v-28.212C186.12 702.748 51.37 698.526 40.08 709.83c-11.885 11.9 116.83 35.88 212.934 131.598.124.12.48-.09.48-.09l28.44-28.084z"/><path fill="url(#aH)" d="M236.373 859.545l42.724-42.78s.514.515.386.39C183.38 721.44 34.988 716.132 23.093 728.038c-11.886 11.902 117.09 35.88 213.193 131.598.125.12.087-.09.087-.09z"/><g fill="#3c140a"><path d="M257.365 707.816V796.704c0 6.827-.988 12.39-3.416 16.717 12.05 12.227 37.05-10.045 45.18-25.39V706.4c-12.344-8.707-27.8-7.103-41.765 1.418zM253.95 813.422c-.884 1.572-1.695 2.994-2.842 4.236-1.91 2.07-3.992 3.65-6.324 4.8-2.922 1.44-6.07 2.18-9.424 2.18-12.62 0-24.683-6.204-36.203-18.618l-22.244 30.674c17.183 17.715 37.234 26.57 60.28 26.57 1.354 0 2.648-.098 3.963-.16 16.636-.766 30-6.328 40.93-16.826 11.8-11.318 17.043-28.39 17.043-51.217v-7.028c-14.74 7.632-28.44 19.544-45.18 25.39z"/></g><path d="M.5 512.5h512v512H.5z" fill="none"/></svg>