<svg width="512" xmlns="http://www.w3.org/2000/svg" height="512" viewBox="0.5 512.5 512 512" enable-background="new 0.5 512.5 512 512"><defs><linearGradient gradientTransform="matrix(-.598 -.745 .782 -.627 1280.606 9108.536)" id="g" y1="4517.236" x1="7496.17" y2="4393.708" gradientUnits="userSpaceOnUse" x2="7424.851"><stop offset="0" stop-color="#f0f"/><stop offset=".157" stop-color="#ff3dc2"/><stop offset=".324" stop-color="#f78"/><stop offset=".487" stop-color="#ffa857"/><stop offset=".64" stop-color="#ffce31"/><stop offset=".78" stop-color="#ffe916"/><stop offset=".905" stop-color="#fff906"/><stop offset="1" stop-color="#ff0"/></linearGradient><linearGradient gradientTransform="matrix(-.598 -.745 .782 -.627 1280.606 9108.536)" id="f" y1="4539.255" x1="7520.768" y2="4415.726" gradientUnits="userSpaceOnUse" x2="7449.448"><stop offset="0" stop-color="#f0f"/><stop offset=".157" stop-color="#ff3dc2"/><stop offset=".324" stop-color="#f78"/><stop offset=".487" stop-color="#ffa857"/><stop offset=".64" stop-color="#ffce31"/><stop offset=".78" stop-color="#ffe916"/><stop offset=".905" stop-color="#fff906"/><stop offset="1" stop-color="#ff0"/></linearGradient><linearGradient gradientTransform="matrix(-.598 -.745 .782 -.627 1280.606 9108.536)" id="h" y1="4495.221" x1="7471.577" y2="4371.697" gradientUnits="userSpaceOnUse" x2="7400.26"><stop offset="0" stop-color="#f0f"/><stop offset=".157" stop-color="#ff3dc2"/><stop offset=".324" stop-color="#f78"/><stop offset=".487" stop-color="#ffa857"/><stop offset=".64" stop-color="#ffce31"/><stop offset=".78" stop-color="#ffe916"/><stop offset=".905" stop-color="#fff906"/><stop offset="1" stop-color="#ff0"/></linearGradient><linearGradient gradientTransform="matrix(-.598 -.745 .782 -.627 1280.606 9108.536)" id="e" y1="4561.27" x1="7545.355" y2="4437.744" gradientUnits="userSpaceOnUse" x2="7474.038"><stop offset="0" stop-color="#f0f"/><stop offset=".157" stop-color="#ff3dc2"/><stop offset=".324" stop-color="#f78"/><stop offset=".487" stop-color="#ffa857"/><stop offset=".64" stop-color="#ffce31"/><stop offset=".78" stop-color="#ffe916"/><stop offset=".905" stop-color="#fff906"/><stop offset="1" stop-color="#ff0"/></linearGradient><linearGradient gradientTransform="matrix(-.598 -.745 .782 -.627 1280.606 9108.536)" id="d" y1="4583.283" x1="7569.949" y2="4459.757" gradientUnits="userSpaceOnUse" x2="7498.631"><stop offset="0" stop-color="#f0f"/><stop offset=".157" stop-color="#ff3dc2"/><stop offset=".324" stop-color="#f78"/><stop offset=".487" stop-color="#ffa857"/><stop offset=".64" stop-color="#ffce31"/><stop offset=".78" stop-color="#ffe916"/><stop offset=".905" stop-color="#fff906"/><stop offset="1" stop-color="#ff0"/></linearGradient><linearGradient gradientTransform="matrix(.856 -.518 .518 .856 -2194.977 1916.074)" id="a" y1="406.535" x1="2586.839" y2="324.698" gradientUnits="userSpaceOnUse" x2="2636.377"><stop offset="0" stop-color="#0ff"/><stop offset="1" stop-color="#00ae00"/></linearGradient><linearGradient gradientTransform="matrix(.856 -.518 .518 .856 -2194.977 1916.074)" id="c" y1="364.562" x1="2612.246" y2="310.338" gradientUnits="userSpaceOnUse" x2="2645.069"><stop offset="0" stop-color="#0ff"/><stop offset="1" stop-color="#00ae00"/></linearGradient><linearGradient gradientTransform="matrix(.856 -.518 .518 .856 -2194.977 1916.074)" id="b" y1="385.548" x1="2599.543" y2="324.698" gradientUnits="userSpaceOnUse" x2="2636.377"><stop offset="0" stop-color="#0ff"/><stop offset="1" stop-color="#00ae00"/></linearGradient></defs><path fill="url(#a)" d="M320.017 858.55l-120.64 65.848-62.25-95.666"/><path fill="url(#b)" d="M320.017 858.55l-120.64 41.315-62.25-71.133"/><path fill="url(#c)" d="M320.017 858.55l-120.64 16.784-62.25-46.602 120.634-16.78z"/><path fill="#3c140a" d="M322.738 668.783v106.154c0 15.338-2.995 27.438-10.024 36.29-3.263 4.116-6.914 7.23-11.197 9.435 1.634 13.297 3.263 26.492 3.828 39.885 14.974-3.13 27.66-9.88 38.385-20.287 15.342-14.877 23.166-36.195 23.166-63.955V668.783h-44.158z"/><path fill="url(#d)" d="M265.547 718.28c38.035-30.528 155.457-81.292 144.57-94.858-10.89-13.578-145.96 15.2-184 45.727"/><path fill="url(#e)" d="M263.026 750.406c38.04-30.52 155.462-81.287 144.575-94.857-10.895-13.57-145.963 15.202-183.998 45.73"/><path fill="url(#f)" d="M260.512 782.537c38.04-30.516 155.46-81.287 144.57-94.86-10.892-13.57-145.955 15.208-184 45.73"/><path fill="url(#g)" d="M257.996 814.668c38.04-30.52 155.456-81.29 144.57-94.86-10.892-13.57-145.96 15.204-184 45.73"/><path fill="url(#h)" d="M255.48 846.795c38.034-30.516 155.456-81.287 144.565-94.855-10.892-13.57-145.955 15.203-183.994 45.725"/><g fill="#3c140a"><path d="M284.612 824.51c-12.05 0-22.033-4.422-29.158-13.28-7.12-8.855-11.222-20.954-11.222-36.292V668.783h-41.705v107.52c0 27.575 7.84 48.85 23.272 63.82 15.423 14.976 35.092 22.46 59.013 22.46 7.2 0 14.087-.686 20.53-2.037 6.492-13.752 3.06-28.677-3.73-39.885-4.94 2.543-10.547 3.85-17 3.85zM206.833 809.422c.646 3.096 3.612 11.285 3.612 11.285l-1.888-11.553c-.144-.92-14.667-92.543-57.905-120.75-12.64-8.246-26.61-10.402-41.527-6.396l.455 1.682c14.418-3.867 27.915-1.79 40.124 6.172 42.586 27.79 56.942 118.65 57.13 119.56zM106.557 682.822c.072 1.102 1.025 1.932 2.128 1.86 1.097-.083 4.336-1.942 6.713-2.34.37-.06-.58-1.37-1.294-1.32-2.61.167-4.174.98-5.635.526-1.055-.32-1.99.177-1.913 1.274zM210.414 820.764l1.303-.518c-.272-.695-28.063-69.73-66.932-84.037-11.36-4.18-22.673-3.36-33.62 2.442l.655 1.232c10.59-5.607 21.51-6.402 32.48-2.363 38.29 14.093 65.84 82.554 66.114 83.244zM108.723 739.754c.26.85 1.154 1.328 1.998 1.068.85-.254 3.044-2.29 4.836-3.023.268-.12-.705-.968-1.25-.806-2.014.594-3.092 1.51-4.313 1.424-.883-.066-1.524.494-1.27 1.336z"/></g><path d="M.5 512.5h512v512H.5z" fill="none"/></svg>