<svg width="512" xmlns="http://www.w3.org/2000/svg" height="512" viewBox="0.5 512.5 512 512" enable-background="new 0.5 512.5 512 512"><defs><linearGradient gradientTransform="matrix(0 1 -1 0 7654.846 -843.275)" id="g" y1="7338.268" x1="1580.323" y2="7288.723" gradientUnits="userSpaceOnUse" x2="1691.603"><stop offset="0" stop-color="#009f00"/><stop offset="1" stop-color="#ff0"/></linearGradient><linearGradient gradientTransform="matrix(0 1 -1 0 7654.846 -843.275)" id="f" y1="7338.531" x1="1601.098" y2="7288.869" gradientUnits="userSpaceOnUse" x2="1712.641"><stop offset="0" stop-color="#009f00"/><stop offset="1" stop-color="#ff0"/></linearGradient><linearGradient id="h" x1="169.302" gradientUnits="userSpaceOnUse" x2="231.118"><stop offset="0" stop-color="#ff0"/><stop offset="1" stop-color="#f00"/></linearGradient><linearGradient gradientTransform="matrix(0 1 -1 0 7654.846 -843.275)" id="e" y1="7338.34" x1="1621.672" y2="7289.09" gradientUnits="userSpaceOnUse" x2="1732.29"><stop offset="0" stop-color="#009f00"/><stop offset="1" stop-color="#ff0"/></linearGradient><linearGradient gradientTransform="matrix(.505 .863 -.863 .505 5673.186 -1208.191)" id="d" x1="-959.371" gradientUnits="userSpaceOnUse" x2="-835.281"><stop offset="0" stop-color="#004eff"/><stop offset="1" stop-color="#0ff"/></linearGradient><linearGradient gradientTransform="matrix(.505 .863 -.863 .505 5673.186 -1208.191)" id="a" x1="-902.064" gradientUnits="userSpaceOnUse" x2="-777.965"><stop offset="0" stop-color="#004eff"/><stop offset="1" stop-color="#0ff"/></linearGradient><linearGradient gradientTransform="matrix(.505 .863 -.863 .505 5673.186 -1208.191)" id="c" x1="-940.059" gradientUnits="userSpaceOnUse" x2="-815.961"><stop offset="0" stop-color="#004eff"/><stop offset="1" stop-color="#0ff"/></linearGradient><linearGradient gradientTransform="matrix(.505 .863 -.863 .505 5673.186 -1208.191)" id="b" x1="-920.75" gradientUnits="userSpaceOnUse" x2="-796.656"><stop offset="0" stop-color="#004eff"/><stop offset="1" stop-color="#0ff"/></linearGradient></defs><path fill="url(#a)" d="M392.686 919.348c-6.536 16.822-20.623 42.012-9.256 70.008 0 0-37.178-21.293-17.006-86.988 4.61-14.982 20.936-59.14 20.936-59.14l30.306 9.192s-18.086 49.185-24.98 66.928z"/><path fill="url(#b)" d="M383.228 903.23c-7.077 16.177-20.623 42.01-9.26 70.01 0 0-37.173-21.296-17-86.99 4.605-14.993 20.934-59.136 20.934-59.136l31.17 9.447s-18.666 50.297-25.844 66.67z"/><path fill="url(#c)" d="M373.458 886.58c-7.087 16.17-20.622 42.006-9.26 70.008 0 0-37.178-21.295-17-86.984 4.61-14.992 20.935-59.146 20.935-59.146l33.064 12.678s-20.565 47.07-27.74 63.444z"/><path fill="url(#d)" d="M363.69 869.92c-7.088 16.176-20.63 42.012-9.267 70.002 0 0-37.172-21.283-17-86.98 4.606-14.987 20.935-59.14 20.935-59.14l31.17 9.447s-18.666 50.293-25.84 66.67z"/><path fill="#3c140a" d="M285.2 778.623l-37.85-109.84h-46.36l66.93 190.352h31.818l39.158-124.41c-11.55-8.208-22.537-13.82-33.51-21.447l-20.187 65.345z"/><path fill="url(#e)" d="M410.41 811.07h19.653v-83.232L216.83 860.135h193.58z"/><path fill="url(#f)" d="M410.41 811.07h19.653V707.178L216.83 840.51h193.58z"/><path fill="url(#g)" d="M410.41 811.07h19.653V686.52L216.83 818.43h193.58z"/><path fill="#3c140a" d="M435.788 668.783L397.656 778.89 363.92 668.783h-44.706l-13.828 44.494c4.33 16.134 19.195 24.1 33.05 22.893l2.99-9.352 41.97 133.316h31.817l66.926-191.352h-46.352z"/><ellipse fill="url(#h)" cx="200.21" cy="668.246" rx="30.908" ry="30.863"/><g fill="#3c140a"><path d="M299.78 731.59c-.215 2.947.337 11.06.337 11.06l1.286-10.855c.107-.86 10.72-86.83-20.85-123.293-9.227-10.666-21.227-16.2-35.667-16.453l-.026 1.628c13.958.248 25.548 5.592 34.466 15.89 31.09 35.92 20.523 121.155 20.455 122.022zM242.367 592.12c-.218 1.007.425 2 1.433 2.214s4.396-.623 6.636-.36c.346.034-.168-1.384-.82-1.522-2.39-.523-4.007-.197-5.2-.98-.866-.564-1.835-.36-2.05.65zM298.788 735.672l1.308.086c.045-.7 4.037-70.07-23.147-97.615-7.946-8.045-17.843-11.855-29.416-11.31l.066 1.304c11.19-.525 20.743 3.145 28.416 10.926 26.776 27.132 22.813 95.92 22.772 96.61zM245.518 627.02c-.12.825.448 1.58 1.262 1.702.82.12 3.488-.725 5.298-.633.273.003-.21-1.1-.74-1.18-1.937-.298-3.214.048-4.212-.513-.72-.407-1.488-.186-1.608.624z"/></g><path d="M.5 512.5h512v512H.5z" fill="none"/></svg>