
<svg width="512" xmlns="http://www.w3.org/2000/svg" height="512" viewBox="0.5 512.5 512 512" xmlns:xlink="http://www.w3.org/1999/xlink" enable-background="new 0.5 512.5 512 512">
<defs>
<linearGradient gradientTransform="matrix(0 -1 1 0 -2765.334 6891.6699)" id="SVGID_5_" x1="6068.06" gradientUnits="userSpaceOnUse" x2="6223.646">
<stop offset="0" stop-color="#f0f"/>
<stop offset="1" stop-color="#ff0"/>
</linearGradient>
<linearGradient gradientTransform="matrix(0 -1 1 0 -2765.334 6891.6699)" id="SVGID_6_" x1="6068.014" gradientUnits="userSpaceOnUse" x2="6199.102">
<stop offset="0" stop-color="#f0f"/>
<stop offset="1" stop-color="#ff0"/>
</linearGradient>
<linearGradient gradientTransform="matrix(0 -1 1 0 -2765.334 6891.6699)" id="SVGID_4_" x1="6068.06" gradientUnits="userSpaceOnUse" x2="6248.174">
<stop offset="0" stop-color="#f0f"/>
<stop offset="1" stop-color="#ff0"/>
</linearGradient>
<linearGradient gradientTransform="matrix(-1 0 0 1 4012.582 0)" id="SVGID_2_" x1="3785.481" gradientUnits="userSpaceOnUse" x2="3892.248">
<stop offset="0" stop-color="#ff0"/>
<stop offset="1" stop-color="#f00"/>
</linearGradient>
<linearGradient gradientTransform="matrix(-1 0 0 1 4012.582 0)" id="SVGID_1_" x1="3760.982" gradientUnits="userSpaceOnUse" x2="3867.75">
<stop offset="0" stop-color="#ff0"/>
<stop offset="1" stop-color="#f00"/>
</linearGradient>
<linearGradient gradientTransform="matrix(-1 0 0 1 4012.582 0)" id="SVGID_3_" x1="3809.979" gradientUnits="userSpaceOnUse" x2="3916.746">
<stop offset="0" stop-color="#ff0"/>
<stop offset="1" stop-color="#f00"/>
</linearGradient>
</defs>
<path fill="url(#SVGID_1_)" d="m144.832,565.789 106.768,246.82 0-300.104z"/>
<path fill="url(#SVGID_2_)" d="m120.333,590.287 106.769,246.82 0-300.104z"/>
<path fill="url(#SVGID_3_)" d="m95.835,614.785 106.769,245.572 0-298.856z"/>
<path fill="#3c140a" d="m354.064,795.334c-1.693-6.189-4.592-11.708-8.75-16.52-7.02-8.115-16.455-13.457-28.312-16.012 3.283-1.459 5.561-2.527 6.838-3.168 1.277-.639 3.561-2.279 6.842-4.835 9.666-7.292 14.494-18.511 14.494-33.464 0-12.399-4.283-23.711-12.854-33.553-4.74-5.287-11.809-9.936-21.195-13.039-9.4-3.098-20.566-5.474-33.508-5.474h-75.015v191.087h78.037 6.279c26.26,0 44.672-5.048 55.25-16.904 9.115-10.211 13.676-21.137 13.676-34.449-0-4.9-.614-9.417-1.782-13.669zm-107.363-89.316h19.702c12.584,0 21.514,1.809 26.805,4.543 5.285,2.734 7.932,8.742 7.932,17.221 0,8.483-2.871,13.812-8.615,16.361-5.742,2.562-14.537,3.523-26.393,3.523h-19.43v-41.648zm55.943,114.36c-5.377,2.648-13.123,3.183-23.232,3.292-1.375,.014-2.789-.061-4.254-.061h-28.458v-44.096h24.354c14.219,0 24.568,2.363 31.041,5.187 4.514,1.976 7.418,5.901 8.787,11.053 .594,2.237 .928,4.708 .928,7.388 0,8.841-3.057,14.227-9.166,17.237z"/>
<path fill="url(#SVGID_4_)" d="m246.701,823.609 143.973-180.113-143.973,62.522z"/>
<path fill="url(#SVGID_5_)" d="m246.701,823.609 143.95-155.586-143.95,37.995"/>
<path fill="url(#SVGID_6_)" d="m246.716,823.656 143.951-131.088-143.966,13.45"/>
<path fill="none" d="m.5,512.5h512v512h-512z"/>
</svg>
