
<svg width="512" xmlns="http://www.w3.org/2000/svg" height="512" viewBox="0.5 512.5 512 512" xmlns:xlink="http://www.w3.org/1999/xlink" enable-background="new 0.5 512.5 512 512">
<defs>
<linearGradient gradientTransform="matrix(-.5731 .8195 .8195 .5731 -1175.734 904.9585)" id="SVGID_39_" y1="948.23" y2="1053.207" gradientUnits="userSpaceOnUse" x2="0">
<stop offset="0" stop-color="#009f00"/>
<stop offset="1" stop-color="#ff0"/>
</linearGradient>
<linearGradient gradientTransform="matrix(-.5731 .8195 .8195 .5731 -1175.734 904.9585)" id="SVGID_24_" y1="948.23" y2="1053.336" gradientUnits="userSpaceOnUse" x2="0">
<stop offset="0" stop-color="#009f00"/>
<stop offset="1" stop-color="#ff0"/>
</linearGradient>
<linearGradient gradientTransform="matrix(-.5731 .8195 .8195 .5731 -1175.734 904.9585)" id="SVGID_26_" y1="948.231" y2="1053.338" gradientUnits="userSpaceOnUse" x2="0">
<stop offset="0" stop-color="#009f00"/>
<stop offset="1" stop-color="#ff0"/>
</linearGradient>
<linearGradient gradientTransform="matrix(-.5731 .8195 .8195 .5731 -1175.734 904.9585)" id="SVGID_25_" y1="948.231" y2="1053.347" gradientUnits="userSpaceOnUse" x2="0">
<stop offset="0" stop-color="#009f00"/>
<stop offset="1" stop-color="#ff0"/>
</linearGradient>
<linearGradient gradientTransform="matrix(-.5731 .8195 .8195 .5731 -1175.734 904.9585)" id="SVGID_23_" y1="948.232" y2="1053.313" gradientUnits="userSpaceOnUse" x2="0">
<stop offset="0" stop-color="#009f00"/>
<stop offset="1" stop-color="#ff0"/>
</linearGradient>
<linearGradient gradientTransform="matrix(-.5731 .8195 .8195 .5731 -1175.734 904.9585)" id="SVGID_18_" y1="948.229" y2="1053.31" gradientUnits="userSpaceOnUse" x2="0">
<stop offset="0" stop-color="#009f00"/>
<stop offset="1" stop-color="#ff0"/>
</linearGradient>
<linearGradient gradientTransform="matrix(-.5731 .8195 .8195 .5731 -1175.734 904.9585)" id="SVGID_22_" y1="948.236" y2="1053.318" gradientUnits="userSpaceOnUse" x2="0">
<stop offset="0" stop-color="#009f00"/>
<stop offset="1" stop-color="#ff0"/>
</linearGradient>
<linearGradient gradientTransform="matrix(-.5731 .8195 .8195 .5731 -1175.734 904.9585)" id="SVGID_19_" y1="948.227" y2="1053.276" gradientUnits="userSpaceOnUse" x2="0">
<stop offset="0" stop-color="#009f00"/>
<stop offset="1" stop-color="#ff0"/>
</linearGradient>
<linearGradient gradientTransform="matrix(-.5731 .8195 .8195 .5731 -1175.734 904.9585)" id="SVGID_21_" y1="948.233" y2="1053.321" gradientUnits="userSpaceOnUse" x2="0">
<stop offset="0" stop-color="#009f00"/>
<stop offset="1" stop-color="#ff0"/>
</linearGradient>
<linearGradient gradientTransform="matrix(-.5731 .8195 .8195 .5731 -1175.734 904.9585)" id="SVGID_20_" y1="948.226" y2="1053.336" gradientUnits="userSpaceOnUse" x2="0">
<stop offset="0" stop-color="#009f00"/>
<stop offset="1" stop-color="#ff0"/>
</linearGradient>
<linearGradient gradientTransform="matrix(-.5731 .8195 .8195 .5731 -1175.734 904.9585)" id="SVGID_27_" y1="948.227" y2="1053.331" gradientUnits="userSpaceOnUse" x2="0">
<stop offset="0" stop-color="#009f00"/>
<stop offset="1" stop-color="#ff0"/>
</linearGradient>
<linearGradient gradientTransform="matrix(-.5731 .8195 .8195 .5731 -1175.734 904.9585)" id="SVGID_35_" y1="948.227" y2="1053.348" gradientUnits="userSpaceOnUse" x2="0">
<stop offset="0" stop-color="#009f00"/>
<stop offset="1" stop-color="#ff0"/>
</linearGradient>
<linearGradient gradientTransform="matrix(-.5731 .8195 .8195 .5731 -1175.734 904.9585)" id="SVGID_28_" y1="948.241" y2="1053.329" gradientUnits="userSpaceOnUse" x2="0">
<stop offset="0" stop-color="#009f00"/>
<stop offset="1" stop-color="#ff0"/>
</linearGradient>
<linearGradient gradientTransform="matrix(-.5731 .8195 .8195 .5731 -1175.734 904.9585)" id="SVGID_36_" y1="948.254" y2="1053.287" gradientUnits="userSpaceOnUse" x2="0">
<stop offset="0" stop-color="#009f00"/>
<stop offset="1" stop-color="#ff0"/>
</linearGradient>
<linearGradient gradientTransform="matrix(-.5731 .8195 .8195 .5731 -1175.734 904.9585)" id="SVGID_38_" y1="948.231" y2="1053.363" gradientUnits="userSpaceOnUse" x2="0">
<stop offset="0" stop-color="#009f00"/>
<stop offset="1" stop-color="#ff0"/>
</linearGradient>
<linearGradient gradientTransform="matrix(-.5731 .8195 .8195 .5731 -1175.734 904.9585)" id="SVGID_37_" y1="948.231" y2="1053.292" gradientUnits="userSpaceOnUse" x2="0">
<stop offset="0" stop-color="#009f00"/>
<stop offset="1" stop-color="#ff0"/>
</linearGradient>
<linearGradient gradientTransform="matrix(-.5731 .8195 .8195 .5731 -1175.734 904.9585)" id="SVGID_34_" y1="948.225" y2="1053.335" gradientUnits="userSpaceOnUse" x2="0">
<stop offset="0" stop-color="#009f00"/>
<stop offset="1" stop-color="#ff0"/>
</linearGradient>
<linearGradient gradientTransform="matrix(-.5731 .8195 .8195 .5731 -1175.734 904.9585)" id="SVGID_29_" y1="948.227" y2="1053.331" gradientUnits="userSpaceOnUse" x2="0">
<stop offset="0" stop-color="#009f00"/>
<stop offset="1" stop-color="#ff0"/>
</linearGradient>
<linearGradient gradientTransform="matrix(-.5731 .8195 .8195 .5731 -1175.734 904.9585)" id="SVGID_33_" y1="948.237" y2="1053.324" gradientUnits="userSpaceOnUse" x2="0">
<stop offset="0" stop-color="#009f00"/>
<stop offset="1" stop-color="#ff0"/>
</linearGradient>
<linearGradient gradientTransform="matrix(-.5731 .8195 .8195 .5731 -1175.734 904.9585)" id="SVGID_30_" y1="948.231" y2="1053.331" gradientUnits="userSpaceOnUse" x2="0">
<stop offset="0" stop-color="#009f00"/>
<stop offset="1" stop-color="#ff0"/>
</linearGradient>
<linearGradient gradientTransform="matrix(-.5731 .8195 .8195 .5731 -1175.734 904.9585)" id="SVGID_32_" y1="948.215" y2="1053.343" gradientUnits="userSpaceOnUse" x2="0">
<stop offset="0" stop-color="#009f00"/>
<stop offset="1" stop-color="#ff0"/>
</linearGradient>
<linearGradient gradientTransform="matrix(-.5731 .8195 .8195 .5731 -1175.734 904.9585)" id="SVGID_31_" y1="948.232" y2="1053.325" gradientUnits="userSpaceOnUse" x2="0">
<stop offset="0" stop-color="#009f00"/>
<stop offset="1" stop-color="#ff0"/>
</linearGradient>
<linearGradient gradientTransform="matrix(-.5731 .8195 .8195 .5731 -1175.734 904.9585)" id="SVGID_17_" y1="948.231" y2="1053.327" gradientUnits="userSpaceOnUse" x2="0">
<stop offset="0" stop-color="#009f00"/>
<stop offset="1" stop-color="#ff0"/>
</linearGradient>
<linearGradient gradientTransform="matrix(-1 0 0 1 4012.582 0)" id="SVGID_46_" x1="3680.033" gradientUnits="userSpaceOnUse" x2="3786.945">
<stop offset="0" stop-color="#ff0"/>
<stop offset="1" stop-color="#f00"/>
</linearGradient>
<linearGradient gradientTransform="matrix(-.5731 .8195 .8195 .5731 -1175.734 904.9585)" id="SVGID_16_" y1="948.236" y2="1053.326" gradientUnits="userSpaceOnUse" x2="0">
<stop offset="0" stop-color="#009f00"/>
<stop offset="1" stop-color="#ff0"/>
</linearGradient>
<linearGradient gradientTransform="matrix(-.5731 .8195 .8195 .5731 -1175.734 904.9585)" id="SVGID_1_" y1="948.237" y2="1053.312" gradientUnits="userSpaceOnUse" x2="0">
<stop offset="0" stop-color="#009f00"/>
<stop offset="1" stop-color="#ff0"/>
</linearGradient>
<linearGradient gradientTransform="matrix(-.5731 .8195 .8195 .5731 -1175.734 904.9585)" id="SVGID_3_" y1="948.234" y2="1053.316" gradientUnits="userSpaceOnUse" x2="0">
<stop offset="0" stop-color="#009f00"/>
<stop offset="1" stop-color="#ff0"/>
</linearGradient>
<linearGradient gradientTransform="matrix(-.5731 .8195 .8195 .5731 -1175.734 904.9585)" id="SVGID_2_" y1="948.231" y2="1053.326" gradientUnits="userSpaceOnUse" x2="0">
<stop offset="0" stop-color="#009f00"/>
<stop offset="1" stop-color="#ff0"/>
</linearGradient>
<linearGradient gradientTransform="matrix(-1 0 0 1 4012.582 0)" id="SVGID_45_" x1="3655.5" gradientUnits="userSpaceOnUse" x2="3762.412">
<stop offset="0" stop-color="#ff0"/>
<stop offset="1" stop-color="#f00"/>
</linearGradient>
<linearGradient id="SVGID_40_" x1="23.925" gradientUnits="userSpaceOnUse" x2="232.063">
<stop offset="0" stop-color="#004eff"/>
<stop offset="1" stop-color="#0ff"/>
</linearGradient>
<linearGradient gradientTransform="matrix(-1 0 0 1 4012.582 0)" id="SVGID_44_" x1="3630.969" gradientUnits="userSpaceOnUse" x2="3737.881">
<stop offset="0" stop-color="#ff0"/>
<stop offset="1" stop-color="#f00"/>
</linearGradient>
<linearGradient id="SVGID_41_" x1="72.99" gradientUnits="userSpaceOnUse" x2="232.063">
<stop offset="0" stop-color="#004eff"/>
<stop offset="1" stop-color="#0ff"/>
</linearGradient>
<linearGradient id="SVGID_43_" x1="171.121" gradientUnits="userSpaceOnUse" x2="232.063">
<stop offset="0" stop-color="#004eff"/>
<stop offset="1" stop-color="#0ff"/>
</linearGradient>
<linearGradient id="SVGID_42_" x1="122.056" gradientUnits="userSpaceOnUse" x2="232.063">
<stop offset="0" stop-color="#004eff"/>
<stop offset="1" stop-color="#0ff"/>
</linearGradient>
<linearGradient gradientTransform="matrix(-.5731 .8195 .8195 .5731 -1175.734 904.9585)" id="SVGID_4_" y1="948.229" y2="1053.347" gradientUnits="userSpaceOnUse" x2="0">
<stop offset="0" stop-color="#009f00"/>
<stop offset="1" stop-color="#ff0"/>
</linearGradient>
<linearGradient gradientTransform="matrix(-.5731 .8195 .8195 .5731 -1175.734 904.9585)" id="SVGID_12_" y1="948.222" y2="1053.336" gradientUnits="userSpaceOnUse" x2="0">
<stop offset="0" stop-color="#009f00"/>
<stop offset="1" stop-color="#ff0"/>
</linearGradient>
<linearGradient gradientTransform="matrix(-.5731 .8195 .8195 .5731 -1175.734 904.9585)" id="SVGID_5_" y1="948.231" y2="1053.293" gradientUnits="userSpaceOnUse" x2="0">
<stop offset="0" stop-color="#009f00"/>
<stop offset="1" stop-color="#ff0"/>
</linearGradient>
<linearGradient gradientTransform="matrix(-.5731 .8195 .8195 .5731 -1175.734 904.9585)" id="SVGID_13_" y1="948.219" y2="1053.34" gradientUnits="userSpaceOnUse" x2="0">
<stop offset="0" stop-color="#009f00"/>
<stop offset="1" stop-color="#ff0"/>
</linearGradient>
<linearGradient gradientTransform="matrix(-.5731 .8195 .8195 .5731 -1175.734 904.9585)" id="SVGID_15_" y1="948.222" y2="1053.347" gradientUnits="userSpaceOnUse" x2="0">
<stop offset="0" stop-color="#009f00"/>
<stop offset="1" stop-color="#ff0"/>
</linearGradient>
<linearGradient gradientTransform="matrix(-.5731 .8195 .8195 .5731 -1175.734 904.9585)" id="SVGID_14_" y1="948.232" y2="1053.327" gradientUnits="userSpaceOnUse" x2="0">
<stop offset="0" stop-color="#009f00"/>
<stop offset="1" stop-color="#ff0"/>
</linearGradient>
<linearGradient gradientTransform="matrix(-.5731 .8195 .8195 .5731 -1175.734 904.9585)" id="SVGID_11_" y1="948.241" y2="1053.326" gradientUnits="userSpaceOnUse" x2="0">
<stop offset="0" stop-color="#009f00"/>
<stop offset="1" stop-color="#ff0"/>
</linearGradient>
<linearGradient gradientTransform="matrix(-.5731 .8195 .8195 .5731 -1175.734 904.9585)" id="SVGID_6_" y1="948.231" y2="1053.309" gradientUnits="userSpaceOnUse" x2="0">
<stop offset="0" stop-color="#009f00"/>
<stop offset="1" stop-color="#ff0"/>
</linearGradient>
<linearGradient gradientTransform="matrix(-.5731 .8195 .8195 .5731 -1175.734 904.9585)" id="SVGID_10_" y1="948.208" y2="1053.34" gradientUnits="userSpaceOnUse" x2="0">
<stop offset="0" stop-color="#009f00"/>
<stop offset="1" stop-color="#ff0"/>
</linearGradient>
<linearGradient gradientTransform="matrix(-.5731 .8195 .8195 .5731 -1175.734 904.9585)" id="SVGID_7_" y1="948.232" y2="1053.308" gradientUnits="userSpaceOnUse" x2="0">
<stop offset="0" stop-color="#009f00"/>
<stop offset="1" stop-color="#ff0"/>
</linearGradient>
<linearGradient gradientTransform="matrix(-.5731 .8195 .8195 .5731 -1175.734 904.9585)" id="SVGID_9_" y1="948.265" y2="1053.323" gradientUnits="userSpaceOnUse" x2="0">
<stop offset="0" stop-color="#009f00"/>
<stop offset="1" stop-color="#ff0"/>
</linearGradient>
<linearGradient gradientTransform="matrix(-.5731 .8195 .8195 .5731 -1175.734 904.9585)" id="SVGID_8_" y1="948.231" y2="1053.327" gradientUnits="userSpaceOnUse" x2="0">
<stop offset="0" stop-color="#009f00"/>
<stop offset="1" stop-color="#ff0"/>
</linearGradient>
</defs>
<path fill="url(#SVGID_1_)" d="m170.976,683.007c15.175-10.73 16.698-5.501 16.685-5.442 .307,1.797-.975-1.633-14.964,8.56-14.672,10.671-14.087,14.638-15.323,13.103-.245,.18-2.224-5.031 13.602-16.221z"/>
<path fill="url(#SVGID_2_)" d="m168.01,679.212c13.44-9.427 15.026-5.015 15.021-4.906 .276,1.626-.9-1.265-13.449,7.776-13.503,9.727-13.943,13.263-15.084,11.811-.224,.172-1.063-4.465 13.512-14.681z"/>
<path fill="url(#SVGID_3_)" d="m165.044,675.394c11.701-8.126 13.35-4.499 13.35-4.331 .244,1.441-.834-.936-11.922,6.98-12.381,8.84-12.678,12.117-13.724,10.781-.206,.174-1.086-4.121 12.296-13.43z"/>
<path fill="url(#SVGID_4_)" d="m162.568,671.924c9.923-6.84 11.657-4.003 11.667-3.779 .206,1.273-.781-.604-10.393,6.192-11.274,7.958-11.423,10.975-12.382,9.761-.181,.17-1.086-3.777 11.108-12.174z"/>
<path fill="url(#SVGID_5_)" d="m161.207,670.638c-10.153,7.067-10.167,9.835-11.034,8.728-.158,.168-1.093-3.431 9.889-10.9 8.189-5.574 9.99-3.51 10.005-3.241 .177,1.095-.715-.265-8.86,5.413z"/>
<path fill="url(#SVGID_6_)" d="m159.041,667.276c-9.031,6.162-8.921,8.683-9.688,7.695-.135,.155-1.093-3.079 8.687-9.641 6.416-4.308 8.304-3.011 8.332-2.694 .139,.923-.657,.072-7.331,4.64z"/>
<path fill="url(#SVGID_7_)" d="m157.331,664.246c-7.892,5.273-7.638,7.547-8.323,6.655-.114,.18-1.102-2.717 7.475-8.358 4.662-3.064 6.627-2.53 6.67-2.168 .104,.764-.605,.391-5.822,3.871z"/>
<path fill="url(#SVGID_8_)" d="m218.963,715.449c14.354-8.428 15.111-5.807 15.169-5.461 .379,1.406-.206,.023-13.535,8.355-13.685,8.558-20.312,22.984-21.016,22.355-.929-.287 4.998-15.893 19.382-25.249z"/>
<path fill="url(#SVGID_9_)" d="m213.155,712.414c15.329-8.962 16.134-6.1 16.21-5.775 .398,1.5-.249-.137-14.441,8.783-14.556,9.148-21.145,23.42-21.969,22.711-.891-.237 4.977-15.612 20.2-25.719z"/>
<path fill="url(#SVGID_10_)" d="m208.446,709.204c14.992-9.597 16.133-6.171 16.209-5.864 .412,1.525-.32-.244-14.417,8.859-14.432,9.328-20.436,22.477-21.332,21.69-.81-.184 4.136-14.822 19.54-24.685z"/>
<path fill="url(#SVGID_11_)" d="m203.749,705.992c14.903-9.809 16.135-6.239 16.183-5.951 .426,1.537-.379-.355-14.38,8.931-14.321,9.521-19.717,21.526-20.689,20.678-.731-.14 3.574-13.589 18.886-23.658z"/>
<path fill="url(#SVGID_12_)" d="m199.031,702.791c14.834-10.026 16.133-6.311 16.194-6.042 .417,1.55-.469-.481-14.341,9.001-14.216,9.722-19.036,20.572-20.071,19.666-.651-.088 3.023-12.346 18.218-22.625z"/>
<path fill="url(#SVGID_13_)" d="m194.33,699.598c14.729-10.266 16.133-6.393 16.182-6.15 .431,1.576-.552-.594-14.312,9.097-14.082,9.921-18.342,19.6-19.43,18.637-.58-.049 2.467-11.075 17.56-21.584z"/>
<path fill="url(#SVGID_14_)" d="m189.634,696.401c14.627-10.505 16.138-6.466 16.16-6.245 .433,1.586-.631-.73-14.268,9.178-13.962,10.139-17.656,18.627-18.807,17.604-.497,.001 1.928-9.785 16.915-20.537z"/>
<path fill="url(#SVGID_15_)" d="m184.929,693.223c14.522-10.767 16.133-6.562 16.157-6.363 .44,1.609-.733-.86-14.231,9.271-13.828,10.381-16.976,17.661-18.179,16.566-.435,.058 1.38-8.459 16.253-19.474z"/>
<path fill="url(#SVGID_16_)" d="m180.234,690.043c14.402-11.018 16.118-6.66 16.128-6.482 .47,1.637-.81-.984-14.175,9.377-13.688,10.625-16.304,16.682-17.56,15.518-.373,.099 .859-7.119 15.607-18.413z"/>
<path fill="url(#SVGID_17_)" d="m175.529,686.876c14.273-11.303 16.133-6.766 16.118-6.616 .475,1.664-.925-1.122-14.116,9.486-13.56,10.894-15.663,15.689-16.952,14.473-.316,.138 .316-5.76 14.95-17.343z"/>
<path fill="url(#SVGID_18_)" d="m150.354,665.633c-.46-.416 1.103-3.907 4.322-5.84 3.2-1.961 5.932-1.577 5.912-1.064 .048,.584-2.3,1.136-5.085,2.99-2.792,1.81-4.732,4.379-5.149,3.914z"/>
<path fill="url(#SVGID_19_)" d="m150.334,660.26c-.315-.736 1.342-3.242 3.829-3.951 2.458-.73 3.999,.223 3.861,.729-.114,.562-1.682,.689-3.751,1.656-2.055,.931-3.671,2.334-3.939,1.566z"/>
<path fill="url(#SVGID_20_)" d="m188.078,658.561c-4.875,17.933 .556,17.576 .604,17.542 1.792-.321-1.854-.348 2.903-16.988 4.997-17.443 8.917-18.258 7.053-18.897 .081-.296-5.487-.363-10.56,18.343z"/>
<path fill="url(#SVGID_21_)" d="m183.482,657.085c-4.23,15.851 .455,15.826 .556,15.783 1.619-.3-1.499-.405 2.688-15.29 4.504-16.027 7.661-17.651 5.922-18.227 .082-.27-4.57,.528-9.166,17.734z"/>
<path fill="url(#SVGID_22_)" d="m178.882,655.609c-3.617,13.771 .354,14.08 .518,14.02 1.438-.264-1.169-.462 2.468-13.584 4.059-14.671 7.024-16.077 5.414-16.6 .091-.252-4.245,.401-8.4,16.164z"/>
<path fill="url(#SVGID_23_)" d="m174.776,654.459c-3.02,11.678 .235,12.334 .446,12.262 1.27-.244-.829-.52 2.256-11.885 3.604-13.313 6.393-14.487 4.921-14.971 .095-.235-3.924,.273-7.623,14.594z"/>
<path fill="url(#SVGID_24_)" d="m173.093,653.631c3.158-11.96 5.751-12.923 4.414-13.352 .105-.216-3.589,.148-6.847,13.023-2.42,9.597 .134,10.584 .397,10.51 1.093-.21-.488-.575 2.036-10.181z"/>
<path fill="url(#SVGID_25_)" d="m169.189,652.744c2.707-10.587 5.108-11.354 3.91-11.732 .105-.184-3.258,.029-6.071,11.464-1.845,7.501 .02,8.838 .331,8.755 .915-.188-.163-.648 1.83-8.487z"/>
<path fill="url(#SVGID_26_)" d="m165.768,652.184c2.247-9.219 4.471-9.76 3.393-10.104 .124-.17-2.928-.098-5.285,9.893-1.279,5.434-.101,7.096 .259,7.006 .741-.167 .157-.704 1.633-6.795z"/>
<path fill="url(#SVGID_27_)" d="m235.009,692.499c-2.994,16.382-.264,16.194 .072,16.133 1.456-.124-.048-.206 3.205-15.589 3.35-15.791 14.624-26.962 13.785-27.407-.588-.779-13.199,10.147-17.062,26.863z"/>
<path fill="url(#SVGID_28_)" d="m230.17,688.086c-3.163,17.473-.196,17.252 .134,17.219 1.543-.152-.211-.195 3.292-16.586 3.603-16.811 14.743-27.898 13.79-28.428-.527-.758-12.952,10.025-17.216,27.795z"/>
<path fill="url(#SVGID_29_)" d="m225.537,684.77c-3.876,17.375-.269,17.267 .053,17.23 1.562-.129-.34-.215 3.378-16.573 3.81-16.763 14.092-26.911 13.052-27.483-.456-.696-12.511,8.974-16.483,26.826z"/>
<path fill="url(#SVGID_30_)" d="m220.909,681.449c-4.097,17.375-.321,17.305-.039,17.254 1.591-.131-.47-.238 3.455-16.573 4.029-16.718 13.449-25.912 12.318-26.53-.378-.642-11.533,8.025-15.734,25.849z"/>
<path fill="url(#SVGID_31_)" d="m216.28,678.125c-4.327,17.371-.389,17.325-.12,17.277 1.596-.135-.604-.268 3.541-16.552 4.24-16.691 12.779-24.944 11.571-25.604-.302-.574-10.551,7.076-14.992,24.879z"/>
<path fill="url(#SVGID_32_)" d="m211.666,674.805c-4.585,17.359-.465,17.344-.221,17.309 1.625-.135-.747-.309 3.627-16.566 4.49-16.627 12.128-23.95 10.839-24.647-.236-.524-9.545,6.12-14.245,23.904z"/>
<path fill="url(#SVGID_33_)" d="m207.056,671.493c-4.854,17.341-.548,17.369-.326,17.323 1.644-.144-.896-.345 3.729-16.552 4.733-16.589 11.441-22.979 10.086-23.704-.178-.476-8.53,5.169-13.489,22.933z"/>
<path fill="url(#SVGID_34_)" d="m202.452,668.168c-5.122,17.33-.633,17.41-.438,17.348 1.669-.127-1.058-.389 3.835-16.543 5.002-16.55 10.761-22.007 9.319-22.762-.096-.424-7.474,4.199-12.716,21.957z"/>
<path fill="url(#SVGID_35_)" d="m197.852,664.84c-5.415,17.314-.714,17.439-.547,17.387 1.696-.13-1.207-.434 3.938-16.538 5.29-16.507 10.071-21.04 8.553-21.823-.033-.386-6.386,3.253-11.944,20.974z"/>
<path fill="url(#SVGID_36_)" d="m193.261,661.518c-5.706,17.285-.81,17.472-.68,17.395 1.729-.117-1.371-.477 4.067-16.514 5.582-16.465 9.372-20.083 7.776-20.881 .026-.345-5.293,2.285-11.163,20z"/>
<path fill="url(#SVGID_37_)" d="m164.675,645.156c-.551-.289-3.286,2.375-3.996,6.062-.742,3.682 .547,6.118 1.021,5.922 .564-.16 .282-2.557 1.066-5.801 .74-3.247 2.489-5.95 1.909-6.183z"/>
<path fill="url(#SVGID_38_)" d="m159.621,646.984c-.8-.043-2.584,2.369-2.396,4.945 .153,2.559 1.581,3.685 2.013,3.383 .493-.303 .066-1.816 .268-4.092 .167-2.251 .929-4.249 .115-4.236z"/>
<path fill="url(#SVGID_39_)" d="m152.586,652.006c-.469,.77 .595,1.945 1.764,2.316 1.179,.377 2.137,.533 2.267,.4 .086-.172-.364-1.014-1.188-1.977-.81-.964-2.353-1.486-2.843-.739z"/>
<path fill="url(#SVGID_40_)" d="m231.512,834.203c-19.085-18.627-28.625-42.135-28.625-70.531 0-28.393 9.723-52.084 29.176-71.077l-208.138,70.804 207.587,70.804z"/>
<path fill="url(#SVGID_41_)" d="m232.063,692.595-159.073,70.804 158.522,70.804"/>
<path fill="url(#SVGID_42_)" d="m232.063,692.595-110.007,70.804 109.456,70.804"/>
<path fill="url(#SVGID_43_)" d="m232.063,692.595-60.942,70.804 60.391,70.804"/>
<path fill="#3c140a" d="m301.707,822.426c-15.348,0-28.4-5.384-39.176-16.16-10.771-10.771-16.162-25.062-16.162-42.866 0-3.407 .278-6.636 .695-9.774-12.275-10.334-24.552-20.039-36.827-30.26-5.295,12.252-7.964,25.771-7.964,40.582 0,28.396 9.54,51.904 28.624,70.531 19.075,18.624 43.368,27.936 72.86,27.936 29.48,0 55.092-12.229 76.83-36.702l-27.392-28.213c-13.334,16.619-30.498,24.926-51.488,24.926z"/>
<path fill="url(#SVGID_44_)" d="m274.701,611.932 106.912,247.165 0-300.523z"/>
<path fill="url(#SVGID_45_)" d="m250.169,636.465 106.913,247.164 0-300.523z"/>
<path fill="url(#SVGID_46_)" d="m225.637,660.998 106.912,247.163 0-300.522z"/>
<path fill="#3c140a" d="m263.494,720.943c11.408-10.498 25.15-15.747 41.221-15.747 20.082,0 36.885,8.399 50.396,25.198l26.564-30.129c-21.178-23.919-47.473-35.881-78.881-35.881-28.117,0-51.902,9.497-71.345,28.485-9.306,9.087-16.358,19.259-21.212,30.495 4.774,17.354 22.183,29.743 36.827,30.26 1.764-13.269 7.197-24.188 16.43-32.681z"/>
<path fill="none" d="m.5,512.5h512v512h-512z"/>
</svg>
