<svg version="1.1" xmlns="http://www.w3.org/2000/svg" xmlns:xlink="http://www.w3.org/1999/xlink" x="0px" y="0px" width="512px"
	 height="512px" viewBox="0 0 512 512" enable-background="new 0 0 512 512" xml:space="preserve">
<g id="Layer_1">
	<rect x="0.5" fill="none" width="512" height="512"/>
</g>
<g id="Layer_2">
	<g>
		<g>
			
				<linearGradient id="SVGID_1_" gradientUnits="userSpaceOnUse" x1="-1488.0876" y1="12146.543" x2="-1488.0876" y2="12218.96" gradientTransform="matrix(-0.1251 -0.9921 -0.9921 0.1251 12277.0947 -2706.8416)">
				<stop  offset="0" style="stop-color:#009F00"/>
				<stop  offset="1" style="stop-color:#FFFF00"/>
			</linearGradient>
			<path fill="url(#SVGID_1_)" d="M393.71,293.772c-2.791,12.473-5.999,10.512-6.015,10.478c-0.985-0.774,1.255,0.38,3.685-11.264
				c2.566-12.213,0.438-13.964,1.771-13.748C393.198,279.031,396.618,280.778,393.71,293.772z"/>
			
				<linearGradient id="SVGID_2_" gradientUnits="userSpaceOnUse" x1="-1489.0115" y1="12146.5469" x2="-1489.0115" y2="12218.9453" gradientTransform="matrix(-0.1251 -0.9921 -0.9921 0.1251 12277.0947 -2706.8416)">
				<stop  offset="0" style="stop-color:#009F00"/>
				<stop  offset="1" style="stop-color:#FFFF00"/>
			</linearGradient>
			<path fill="url(#SVGID_2_)" d="M396.977,294.343c-2.506,11.008-5.358,9.492-5.405,9.433c-0.896-0.699,1.046,0.228,3.271-10.171
				c2.402-11.188,0.994-13.19,2.249-12.977C397.125,280.434,399.698,282.409,396.977,294.343z"/>
			
				<linearGradient id="SVGID_3_" gradientUnits="userSpaceOnUse" x1="-1490.0779" y1="12146.5449" x2="-1490.0779" y2="12218.9346" gradientTransform="matrix(-0.1251 -0.9921 -0.9921 0.1251 12277.0947 -2706.8416)">
				<stop  offset="0" style="stop-color:#009F00"/>
				<stop  offset="1" style="stop-color:#FFFF00"/>
			</linearGradient>
			<path fill="url(#SVGID_3_)" d="M400.262,294.918c-2.227,9.549-4.745,8.455-4.822,8.37c-0.789-0.62,0.854,0.089,2.86-9.058
				c2.24-10.213,0.874-12.024,2.031-11.83C400.354,282.219,402.789,284,400.262,294.918z"/>
			
				<linearGradient id="SVGID_4_" gradientUnits="userSpaceOnUse" x1="-1491.1462" y1="12146.5352" x2="-1491.1462" y2="12218.9658" gradientTransform="matrix(-0.1251 -0.9921 -0.9921 0.1251 12277.0947 -2706.8416)">
				<stop  offset="0" style="stop-color:#009F00"/>
				<stop  offset="1" style="stop-color:#FFFF00"/>
			</linearGradient>
			<path fill="url(#SVGID_4_)" d="M403.134,295.546c-1.911,8.06-4.106,7.423-4.221,7.311c-0.689-0.555,0.684-0.055,2.45-7.952
				c2.083-9.257,0.757-10.86,1.812-10.683C403.19,284.046,405.481,285.646,403.134,295.546z"/>
			
				<linearGradient id="SVGID_5_" gradientUnits="userSpaceOnUse" x1="-1492.2126" y1="12146.543" x2="-1492.2126" y2="12218.8877" gradientTransform="matrix(-0.1251 -0.9921 -0.9921 0.1251 12277.0947 -2706.8416)">
				<stop  offset="0" style="stop-color:#009F00"/>
				<stop  offset="1" style="stop-color:#FFFF00"/>
			</linearGradient>
			<path fill="url(#SVGID_5_)" d="M404.42,295.573c1.919-8.29,0.653-9.701,1.604-9.54c0-0.149,2.143,1.246-0.014,10.118
				c-1.607,6.623-3.481,6.4-3.611,6.271C401.805,301.94,402.879,302.227,404.42,295.573z"/>
			
				<linearGradient id="SVGID_6_" gradientUnits="userSpaceOnUse" x1="-1493.283" y1="12146.5312" x2="-1493.283" y2="12218.9971" gradientTransform="matrix(-0.1251 -0.9921 -0.9921 0.1251 12277.0947 -2706.8416)">
				<stop  offset="0" style="stop-color:#009F00"/>
				<stop  offset="1" style="stop-color:#FFFF00"/>
			</linearGradient>
			<path fill="url(#SVGID_6_)" d="M407.079,296.293c1.774-7.315,0.543-8.542,1.398-8.398c-0.009-0.139,1.979,1.068,0.015,8.925
				c-1.283,5.158-2.845,5.364-3.012,5.217C404.978,301.63,405.786,301.697,407.079,296.293z"/>
			
				<linearGradient id="SVGID_7_" gradientUnits="userSpaceOnUse" x1="-1494.3586" y1="12146.5352" x2="-1494.3586" y2="12218.9033" gradientTransform="matrix(-0.1251 -0.9921 -0.9921 0.1251 12277.0947 -2706.8416)">
				<stop  offset="0" style="stop-color:#009F00"/>
				<stop  offset="1" style="stop-color:#FFFF00"/>
			</linearGradient>
			<path fill="url(#SVGID_7_)" d="M409.356,297.044c1.593-6.328,0.413-7.372,1.181-7.233c-0.028-0.146,1.82,0.877,0.042,7.711
				c-0.963,3.715-2.215,4.349-2.402,4.18C407.769,301.363,408.296,301.227,409.356,297.044z"/>
			
				<linearGradient id="SVGID_8_" gradientUnits="userSpaceOnUse" x1="-1484.7029" y1="12146.623" x2="-1484.7029" y2="12218.96" gradientTransform="matrix(-0.1251 -0.9921 -0.9921 0.1251 12277.0947 -2706.8416)">
				<stop  offset="0" style="stop-color:#009F00"/>
				<stop  offset="1" style="stop-color:#FFFF00"/>
			</linearGradient>
			<path fill="url(#SVGID_8_)" d="M354.17,299.378c-3.432,10.919-5.026,9.929-5.217,9.792c-0.836-0.55,0.089-0.111,3.047-10.506
				c3.036-10.676-0.244-21.089,0.396-21.095C353.012,277.29,357.198,287.979,354.17,299.378z"/>
			
				<linearGradient id="SVGID_9_" gradientUnits="userSpaceOnUse" x1="-1484.1243" y1="12146.6152" x2="-1484.1243" y2="12218.9609" gradientTransform="matrix(-0.1251 -0.9921 -0.9921 0.1251 12277.0947 -2706.8416)">
				<stop  offset="0" style="stop-color:#009F00"/>
				<stop  offset="1" style="stop-color:#FFFF00"/>
			</linearGradient>
			<path fill="url(#SVGID_9_)" d="M358.546,298.249c-3.686,11.636-5.424,10.546-5.61,10.42c-0.895-0.583,0.188-0.049,3.324-11.139
				c3.205-11.381-0.038-21.689,0.71-21.707C357.537,275.54,361.652,286.075,358.546,298.249z"/>
			
				<linearGradient id="SVGID_10_" gradientUnits="userSpaceOnUse" x1="-1484.532" y1="12146.5586" x2="-1484.532" y2="12218.9707" gradientTransform="matrix(-0.1251 -0.9921 -0.9921 0.1251 12277.0947 -2706.8416)">
				<stop  offset="0" style="stop-color:#009F00"/>
				<stop  offset="1" style="stop-color:#FFFF00"/>
			</linearGradient>
			<path fill="url(#SVGID_10_)" d="M362.439,297.714c-3.22,11.805-5.395,10.586-5.57,10.456c-0.911-0.576,0.278-0.014,3.267-11.156
				c3.066-11.414,0.049-20.889,0.867-20.897C361.51,275.843,365.749,285.576,362.439,297.714z"/>
			
				<linearGradient id="SVGID_11_" gradientUnits="userSpaceOnUse" x1="-1484.9338" y1="12146.5645" x2="-1484.9338" y2="12218.9658" gradientTransform="matrix(-0.1251 -0.9921 -0.9921 0.1251 12277.0947 -2706.8416)">
				<stop  offset="0" style="stop-color:#009F00"/>
				<stop  offset="1" style="stop-color:#FFFF00"/>
			</linearGradient>
			<path fill="url(#SVGID_11_)" d="M366.324,297.183c-3.076,11.874-5.357,10.625-5.517,10.495
				c-0.929-0.588,0.358,0.014,3.222-11.184c2.918-11.46,0.11-20.062,1.006-20.084C365.467,276.146,369.497,284.992,366.324,297.183z
				"/>
			
				<linearGradient id="SVGID_12_" gradientUnits="userSpaceOnUse" x1="-1485.3293" y1="12146.5449" x2="-1485.3293" y2="12218.9736" gradientTransform="matrix(-0.1251 -0.9921 -0.9921 0.1251 12277.0947 -2706.8416)">
				<stop  offset="0" style="stop-color:#009F00"/>
				<stop  offset="1" style="stop-color:#FFFF00"/>
			</linearGradient>
			<path fill="url(#SVGID_12_)" d="M370.216,296.638c-2.939,11.946-5.318,10.655-5.48,10.554c-0.928-0.599,0.462,0.026,3.164-11.207
				c2.77-11.512,0.219-19.264,1.167-19.285C369.437,276.443,373.227,284.389,370.216,296.638z"/>
			
				<linearGradient id="SVGID_13_" gradientUnits="userSpaceOnUse" x1="-1485.7288" y1="12146.5449" x2="-1485.7288" y2="12218.9766" gradientTransform="matrix(-0.1251 -0.9921 -0.9921 0.1251 12277.0947 -2706.8416)">
				<stop  offset="0" style="stop-color:#009F00"/>
				<stop  offset="1" style="stop-color:#FFFF00"/>
			</linearGradient>
			<path fill="url(#SVGID_13_)" d="M374.101,296.097c-2.785,12.028-5.293,10.697-5.432,10.592c-0.948-0.594,0.56,0.061,3.106-11.231
				c2.606-11.55,0.312-18.451,1.315-18.46C373.409,276.759,376.943,283.777,374.101,296.097z"/>
			
				<linearGradient id="SVGID_14_" gradientUnits="userSpaceOnUse" x1="-1486.1301" y1="12146.5449" x2="-1486.1301" y2="12218.9736" gradientTransform="matrix(-0.1251 -0.9921 -0.9921 0.1251 12277.0947 -2706.8416)">
				<stop  offset="0" style="stop-color:#009F00"/>
				<stop  offset="1" style="stop-color:#FFFF00"/>
			</linearGradient>
			<path fill="url(#SVGID_14_)" d="M377.974,295.562c-2.611,12.097-5.252,10.741-5.371,10.638
				c-0.958-0.608,0.664,0.075,3.048-11.268c2.45-11.604,0.412-17.64,1.469-17.645C377.365,277.059,380.662,283.162,377.974,295.562z
				"/>
			
				<linearGradient id="SVGID_15_" gradientUnits="userSpaceOnUse" x1="-1486.5281" y1="12146.5312" x2="-1486.5281" y2="12218.9863" gradientTransform="matrix(-0.1251 -0.9921 -0.9921 0.1251 12277.0947 -2706.8416)">
				<stop  offset="0" style="stop-color:#009F00"/>
				<stop  offset="1" style="stop-color:#FFFF00"/>
			</linearGradient>
			<path fill="url(#SVGID_15_)" d="M381.851,295.012c-2.445,12.188-5.208,10.786-5.317,10.688
				c-0.966-0.618,0.776,0.105,2.989-11.286c2.263-11.667,0.5-16.833,1.622-16.829C381.348,277.353,384.36,282.53,381.851,295.012z"
				/>
			
				<linearGradient id="SVGID_16_" gradientUnits="userSpaceOnUse" x1="-1486.9246" y1="12146.5547" x2="-1486.9246" y2="12218.957" gradientTransform="matrix(-0.1251 -0.9921 -0.9921 0.1251 12277.0947 -2706.8416)">
				<stop  offset="0" style="stop-color:#009F00"/>
				<stop  offset="1" style="stop-color:#FFFF00"/>
			</linearGradient>
			<path fill="url(#SVGID_16_)" d="M385.72,294.46c-2.267,12.261-5.153,10.834-5.245,10.752c-0.995-0.621,0.873,0.12,2.909-11.326
				c2.077-11.727,0.617-16.018,1.793-16.012C385.325,277.654,388.03,281.9,385.72,294.46z"/>
			
				<linearGradient id="SVGID_17_" gradientUnits="userSpaceOnUse" x1="-1487.3254" y1="12146.5449" x2="-1487.3254" y2="12218.958" gradientTransform="matrix(-0.1251 -0.9921 -0.9921 0.1251 12277.0947 -2706.8416)">
				<stop  offset="0" style="stop-color:#009F00"/>
				<stop  offset="1" style="stop-color:#FFFF00"/>
			</linearGradient>
			<path fill="url(#SVGID_17_)" d="M389.592,293.906c-2.063,12.349-5.117,10.885-5.182,10.811
				c-1.009-0.626,0.995,0.142,2.826-11.355c1.89-11.804,0.746-15.22,1.97-15.188C389.312,277.95,391.706,281.254,389.592,293.906z"
				/>
			
				<linearGradient id="SVGID_18_" gradientUnits="userSpaceOnUse" x1="-1496.0925" y1="12146.5273" x2="-1496.0925" y2="12219.0664" gradientTransform="matrix(-0.1251 -0.9921 -0.9921 0.1251 12277.0947 -2706.8416)">
				<stop  offset="0" style="stop-color:#009F00"/>
				<stop  offset="1" style="stop-color:#FFFF00"/>
			</linearGradient>
			<path fill="url(#SVGID_18_)" d="M412.282,293.12c0.431,0,1.246,2.496,0.498,4.969c-0.734,2.473-2.31,3.546-2.539,3.271
				c-0.292-0.277,0.657-1.638,1.219-3.87C412.046,295.282,411.857,293.078,412.282,293.12z"/>
			
				<linearGradient id="SVGID_19_" gradientUnits="userSpaceOnUse" x1="-1497.6091" y1="12146.5293" x2="-1497.6091" y2="12218.832" gradientTransform="matrix(-0.1251 -0.9921 -0.9921 0.1251 12277.0947 -2706.8416)">
				<stop  offset="0" style="stop-color:#009F00"/>
				<stop  offset="1" style="stop-color:#FFFF00"/>
			</linearGradient>
			<path fill="url(#SVGID_19_)" d="M414.777,295.85c0.502,0.229,0.813,2.277-0.13,3.783c-0.914,1.509-2.147,1.73-2.308,1.405
				c-0.198-0.341,0.539-1.126,1.15-2.58C414.103,297.037,414.281,295.579,414.777,295.85z"/>
			
				<linearGradient id="SVGID_20_" gradientUnits="userSpaceOnUse" x1="-1513.2839" y1="12146.5137" x2="-1513.2839" y2="12219.0029" gradientTransform="matrix(-0.1251 -0.9921 -0.9921 0.1251 12277.0947 -2706.8416)">
				<stop  offset="0" style="stop-color:#009F00"/>
				<stop  offset="1" style="stop-color:#FFFF00"/>
			</linearGradient>
			<path fill="url(#SVGID_20_)" d="M396.275,314.124c-5.806-11.381-8.414-8.703-8.421-8.663c-0.774,0.99,1.109-0.675,6.374,9.998
				c5.514,11.197,3.881,13.427,5.14,12.887C399.459,328.534,402.329,326.006,396.275,314.124z"/>
			
				<linearGradient id="SVGID_21_" gradientUnits="userSpaceOnUse" x1="-1512.3699" y1="12146.5117" x2="-1512.3699" y2="12219.0166" gradientTransform="matrix(-0.1251 -0.9921 -0.9921 0.1251 12277.0947 -2706.8416)">
				<stop  offset="0" style="stop-color:#009F00"/>
				<stop  offset="1" style="stop-color:#FFFF00"/>
			</linearGradient>
			<path fill="url(#SVGID_21_)" d="M399.304,312.762c-5.168-10.031-7.557-7.857-7.583-7.796c-0.693,0.903,0.952-0.485,5.697,9.04
				c5.115,10.243,4.257,12.529,5.408,12.026C402.907,326.205,404.917,323.651,399.304,312.762z"/>
			
				<linearGradient id="SVGID_22_" gradientUnits="userSpaceOnUse" x1="-1511.3005" y1="12146.5234" x2="-1511.3005" y2="12218.998" gradientTransform="matrix(-0.1251 -0.9921 -0.9921 0.1251 12277.0947 -2706.8416)">
				<stop  offset="0" style="stop-color:#009F00"/>
				<stop  offset="1" style="stop-color:#FFFF00"/>
			</linearGradient>
			<path fill="url(#SVGID_22_)" d="M402.336,311.391c-4.516-8.688-6.691-7.02-6.749-6.908c-0.608,0.799,0.817-0.298,5.027,8.058
				c4.709,9.354,3.844,11.438,4.907,10.966C405.596,323.672,407.509,321.343,402.336,311.391z"/>
			
				<linearGradient id="SVGID_23_" gradientUnits="userSpaceOnUse" x1="-1510.2322" y1="12146.5195" x2="-1510.2322" y2="12219.0078" gradientTransform="matrix(-0.1251 -0.9921 -0.9921 0.1251 12277.0947 -2706.8416)">
				<stop  offset="0" style="stop-color:#009F00"/>
				<stop  offset="1" style="stop-color:#FFFF00"/>
			</linearGradient>
			<path fill="url(#SVGID_23_)" d="M404.969,310.083c-3.859-7.35-5.822-6.182-5.896-6.046c-0.54,0.716,0.664-0.119,4.34,7.103
				c4.321,8.444,3.438,10.32,4.41,9.896C407.888,321.196,409.703,319.086,404.969,310.083z"/>
			
				<linearGradient id="SVGID_24_" gradientUnits="userSpaceOnUse" x1="-1509.1638" y1="12146.5195" x2="-1509.1638" y2="12219.041" gradientTransform="matrix(-0.1251 -0.9921 -0.9921 0.1251 12277.0947 -2706.8416)">
				<stop  offset="0" style="stop-color:#009F00"/>
				<stop  offset="1" style="stop-color:#FFFF00"/>
			</linearGradient>
			<path fill="url(#SVGID_24_)" d="M406.209,309.721c3.913,7.561,3.043,9.242,3.927,8.844c0.043,0.169,1.764-1.73-2.528-9.79
				c-3.201-6.012-4.963-5.339-5.065-5.176C402.083,304.213,403.054,303.667,406.209,309.721z"/>
			
				<linearGradient id="SVGID_25_" gradientUnits="userSpaceOnUse" x1="-1508.0994" y1="12146.5273" x2="-1508.0994" y2="12219.0195" gradientTransform="matrix(-0.1251 -0.9921 -0.9921 0.1251 12277.0947 -2706.8416)">
				<stop  offset="0" style="stop-color:#009F00"/>
				<stop  offset="1" style="stop-color:#FFFF00"/>
			</linearGradient>
			<path fill="url(#SVGID_25_)" d="M408.609,308.382c3.53,6.637,2.652,8.144,3.438,7.775c0.028,0.146,1.651-1.52-2.202-8.637
				c-2.524-4.674-4.097-4.496-4.22-4.313C405.247,303.727,406.01,303.461,408.609,308.382z"/>
			
				<linearGradient id="SVGID_26_" gradientUnits="userSpaceOnUse" x1="-1507.0291" y1="12146.5273" x2="-1507.0291" y2="12218.9902" gradientTransform="matrix(-0.1251 -0.9921 -0.9921 0.1251 12277.0947 -2706.8416)">
				<stop  offset="0" style="stop-color:#009F00"/>
				<stop  offset="1" style="stop-color:#FFFF00"/>
			</linearGradient>
			<path fill="url(#SVGID_26_)" d="M410.62,307.082c3.117,5.743,2.235,7.037,2.95,6.716c0.007,0.146,1.538-1.3-1.882-7.482
				c-1.863-3.358-3.232-3.652-3.367-3.444C408.015,303.298,408.561,303.293,410.62,307.082z"/>
			
				<linearGradient id="SVGID_27_" gradientUnits="userSpaceOnUse" x1="-1516.6365" y1="12146.4766" x2="-1516.6365" y2="12218.9844" gradientTransform="matrix(-0.1251 -0.9921 -0.9921 0.1251 12277.0947 -2706.8416)">
				<stop  offset="0" style="stop-color:#009F00"/>
				<stop  offset="1" style="stop-color:#FFFF00"/>
			</linearGradient>
			<path fill="url(#SVGID_27_)" d="M356.593,318.481c-6.05-9.729-7.356-8.38-7.505-8.188c-0.683,0.731,0.126,0.085,5.576,9.43
				c5.596,9.585,4.995,20.48,5.634,20.32C360.958,340.17,362.351,328.779,356.593,318.481z"/>
			
				<linearGradient id="SVGID_28_" gradientUnits="userSpaceOnUse" x1="-1517.2209" y1="12146.5039" x2="-1517.2209" y2="12218.9805" gradientTransform="matrix(-0.1251 -0.9921 -0.9921 0.1251 12277.0947 -2706.8416)">
				<stop  offset="0" style="stop-color:#009F00"/>
				<stop  offset="1" style="stop-color:#FFFF00"/>
			</linearGradient>
			<path fill="url(#SVGID_28_)" d="M361.106,318.494c-6.465-10.361-7.881-8.879-8.032-8.707c-0.713,0.786,0.193-0.003,5.987,9.964
				c5.939,10.231,5.371,21.023,6.102,20.856C365.785,340.751,367.145,329.522,361.106,318.494z"/>
			
				<linearGradient id="SVGID_29_" gradientUnits="userSpaceOnUse" x1="-1516.8167" y1="12146.498" x2="-1516.8167" y2="12218.9824" gradientTransform="matrix(-0.1251 -0.9921 -0.9921 0.1251 12277.0947 -2706.8416)">
				<stop  offset="0" style="stop-color:#009F00"/>
				<stop  offset="1" style="stop-color:#FFFF00"/>
			</linearGradient>
			<path fill="url(#SVGID_29_)" d="M365.005,318.055c-6.056-10.649-7.845-8.926-7.993-8.765c-0.735,0.791,0.271-0.046,5.944,10.002
				c5.799,10.305,5.236,20.218,6.041,20.035C369.549,339.472,371.237,328.983,365.005,318.055z"/>
			
				<linearGradient id="SVGID_30_" gradientUnits="userSpaceOnUse" x1="-1516.4202" y1="12146.5176" x2="-1516.4202" y2="12218.9775" gradientTransform="matrix(-0.1251 -0.9921 -0.9921 0.1251 12277.0947 -2706.8416)">
				<stop  offset="0" style="stop-color:#009F00"/>
				<stop  offset="1" style="stop-color:#FFFF00"/>
			</linearGradient>
			<path fill="url(#SVGID_30_)" d="M368.91,317.601c-5.945-10.738-7.843-8.969-7.958-8.806c-0.752,0.806,0.35-0.098,5.892,10.038
				c5.674,10.385,5.107,19.414,5.982,19.216C373.314,338.192,375.004,328.626,368.91,317.601z"/>
			
				<linearGradient id="SVGID_31_" gradientUnits="userSpaceOnUse" x1="-1516.0251" y1="12146.5254" x2="-1516.0251" y2="12218.9688" gradientTransform="matrix(-0.1251 -0.9921 -0.9921 0.1251 12277.0947 -2706.8416)">
				<stop  offset="0" style="stop-color:#009F00"/>
				<stop  offset="1" style="stop-color:#FFFF00"/>
			</linearGradient>
			<path fill="url(#SVGID_31_)" d="M372.812,317.164c-5.823-10.842-7.816-9.006-7.928-8.858c-0.749,0.805,0.427-0.149,5.846,10.068
				c5.553,10.461,5.005,18.608,5.927,18.388C377.078,336.915,378.774,328.29,372.812,317.164z"/>
			
				<linearGradient id="SVGID_32_" gradientUnits="userSpaceOnUse" x1="-1515.6306" y1="12146.5195" x2="-1515.6306" y2="12218.9814" gradientTransform="matrix(-0.1251 -0.9921 -0.9921 0.1251 12277.0947 -2706.8416)">
				<stop  offset="0" style="stop-color:#009F00"/>
				<stop  offset="1" style="stop-color:#FFFF00"/>
			</linearGradient>
			<path fill="url(#SVGID_32_)" d="M376.705,316.733c-5.688-10.966-7.785-9.061-7.891-8.926c-0.768,0.817,0.521-0.186,5.81,10.116
				c5.395,10.545,4.882,17.795,5.865,17.562C380.837,335.638,382.533,327.968,376.705,316.733z"/>
			
				<linearGradient id="SVGID_33_" gradientUnits="userSpaceOnUse" x1="-1515.2312" y1="12146.4844" x2="-1515.2312" y2="12219.0195" gradientTransform="matrix(-0.1251 -0.9921 -0.9921 0.1251 12277.0947 -2706.8416)">
				<stop  offset="0" style="stop-color:#009F00"/>
				<stop  offset="1" style="stop-color:#FFFF00"/>
			</linearGradient>
			<path fill="url(#SVGID_33_)" d="M380.59,316.286c-5.539-11.079-7.755-9.1-7.849-8.975c-0.771,0.828,0.623-0.238,5.759,10.15
				c5.251,10.641,4.78,16.993,5.811,16.739C384.618,334.367,386.279,327.629,380.59,316.286z"/>
			
				<linearGradient id="SVGID_34_" gradientUnits="userSpaceOnUse" x1="-1514.8376" y1="12146.5234" x2="-1514.8376" y2="12218.9785" gradientTransform="matrix(-0.1251 -0.9921 -0.9921 0.1251 12277.0947 -2706.8416)">
				<stop  offset="0" style="stop-color:#009F00"/>
				<stop  offset="1" style="stop-color:#FFFF00"/>
			</linearGradient>
			<path fill="url(#SVGID_34_)" d="M384.486,315.863c-5.4-11.193-7.729-9.163-7.799-9.042c-0.795,0.829,0.716-0.291,5.692,10.189
				c5.093,10.749,4.675,16.188,5.763,15.909C388.383,333.087,390.017,327.331,384.486,315.863z"/>
			
				<linearGradient id="SVGID_35_" gradientUnits="userSpaceOnUse" x1="-1514.4382" y1="12146.5039" x2="-1514.4382" y2="12219.0146" gradientTransform="matrix(-0.1251 -0.9921 -0.9921 0.1251 12277.0947 -2706.8416)">
				<stop  offset="0" style="stop-color:#009F00"/>
				<stop  offset="1" style="stop-color:#FFFF00"/>
			</linearGradient>
			<path fill="url(#SVGID_35_)" d="M388.373,315.438c-5.241-11.331-7.704-9.219-7.764-9.118c-0.804,0.853,0.822-0.334,5.642,10.247
				c4.935,10.854,4.583,15.369,5.72,15.066C392.166,331.819,393.736,327.035,388.373,315.438z"/>
			
				<linearGradient id="SVGID_36_" gradientUnits="userSpaceOnUse" x1="-1514.0476" y1="12146.5352" x2="-1514.0476" y2="12218.9639" gradientTransform="matrix(-0.1251 -0.9921 -0.9921 0.1251 12277.0947 -2706.8416)">
				<stop  offset="0" style="stop-color:#009F00"/>
				<stop  offset="1" style="stop-color:#FFFF00"/>
			</linearGradient>
			<path fill="url(#SVGID_36_)" d="M392.259,315.008c-5.079-11.437-7.672-9.272-7.699-9.172c-0.832,0.854,0.914-0.388,5.553,10.291
				c4.768,10.969,4.506,14.562,5.687,14.229C395.945,330.542,397.453,326.747,392.259,315.008z"/>
			
				<linearGradient id="SVGID_37_" gradientUnits="userSpaceOnUse" x1="-1505.2952" y1="12146.5273" x2="-1505.2952" y2="12219.0273" gradientTransform="matrix(-0.1251 -0.9921 -0.9921 0.1251 12277.0947 -2706.8416)">
				<stop  offset="0" style="stop-color:#009F00"/>
				<stop  offset="1" style="stop-color:#FFFF00"/>
			</linearGradient>
			<path fill="url(#SVGID_37_)" d="M414.435,310.162c0.419-0.104,0.58-2.725-0.759-4.93c-1.323-2.222-3.111-2.872-3.266-2.546
				c-0.213,0.336,1.041,1.43,2.138,3.438C413.674,308.128,414.031,310.31,414.435,310.162z"/>
			
				<linearGradient id="SVGID_38_" gradientUnits="userSpaceOnUse" x1="-1503.78" y1="12146.5293" x2="-1503.78" y2="12219.0391" gradientTransform="matrix(-0.1251 -0.9921 -0.9921 0.1251 12277.0947 -2706.8416)">
				<stop  offset="0" style="stop-color:#009F00"/>
				<stop  offset="1" style="stop-color:#FFFF00"/>
			</linearGradient>
			<path fill="url(#SVGID_38_)" d="M416.173,306.898c0.428-0.348,0.227-2.401-1.061-3.623c-1.261-1.237-2.513-1.147-2.597-0.8
				c-0.112,0.381,0.805,0.964,1.757,2.208C415.23,305.911,415.759,307.284,416.173,306.898z"/>
			
				<linearGradient id="SVGID_39_" gradientUnits="userSpaceOnUse" x1="-1500.698" y1="12146.5293" x2="-1500.698" y2="12218.8916" gradientTransform="matrix(-0.1251 -0.9921 -0.9921 0.1251 12277.0947 -2706.8416)">
				<stop  offset="0" style="stop-color:#009F00"/>
				<stop  offset="1" style="stop-color:#FFFF00"/>
			</linearGradient>
			<path fill="url(#SVGID_39_)" d="M417.444,301.093c-0.118-0.605-1.205-0.71-1.973-0.366c-0.778,0.352-1.339,0.713-1.343,0.843
				c0.04,0.122,0.65,0.351,1.524,0.459C416.512,302.148,417.539,301.704,417.444,301.093z"/>
		</g>
		
			<linearGradient id="SVGID_40_" gradientUnits="userSpaceOnUse" x1="11070.8281" y1="10472.9297" x2="11198.3574" y2="10472.9297" gradientTransform="matrix(-0.9119 0.4104 -0.4104 -0.9119 14698.1426 5236.7861)">
			<stop  offset="0" style="stop-color:#009F00"/>
			<stop  offset="1" style="stop-color:#FFFF00"/>
		</linearGradient>
		<polyline fill="url(#SVGID_40_)" points="333.207,293.634 159.626,218.684 228.973,340.417 		"/>
		
			<linearGradient id="SVGID_41_" gradientUnits="userSpaceOnUse" x1="11051.8184" y1="10489.5273" x2="11179.3535" y2="10489.5273" gradientTransform="matrix(-0.9119 0.4104 -0.4104 -0.9119 14698.1426 5236.7861)">
			<stop  offset="0" style="stop-color:#009F00"/>
			<stop  offset="1" style="stop-color:#FFFF00"/>
		</linearGradient>
		<polyline fill="url(#SVGID_41_)" points="343.729,270.695 170.146,195.752 239.497,317.479 		"/>
		
			<linearGradient id="SVGID_42_" gradientUnits="userSpaceOnUse" x1="11032.8066" y1="10503.7539" x2="11160.3359" y2="10503.7539" gradientTransform="matrix(-0.9119 0.4104 -0.4104 -0.9119 14698.1426 5236.7861)">
			<stop  offset="0" style="stop-color:#009F00"/>
			<stop  offset="1" style="stop-color:#FFFF00"/>
		</linearGradient>
		<polyline fill="url(#SVGID_42_)" points="355.228,249.921 181.647,174.97 250.996,296.708 		"/>
		<g>
			
				<linearGradient id="SVGID_43_" gradientUnits="userSpaceOnUse" x1="332.0374" y1="11638.1895" x2="332.0374" y2="11739.8486" gradientTransform="matrix(-0.4551 -0.8904 -0.8904 0.4551 10928.7891 -4790.9072)">
				<stop  offset="0" style="stop-color:#009F00"/>
				<stop  offset="1" style="stop-color:#FFFF00"/>
			</linearGradient>
			<path fill="url(#SVGID_43_)" d="M392.279,225.323c2.295,17.834-2.887,16.768-2.926,16.733c-1.675-0.554,1.842-0.097-0.527-16.668
				c-2.468-17.382-6.135-18.678-4.261-19.032C384.531,206.062,389.894,206.735,392.279,225.323z"/>
			
				<linearGradient id="SVGID_44_" gradientUnits="userSpaceOnUse" x1="330.7336" y1="11638.1934" x2="330.7336" y2="11739.8018" gradientTransform="matrix(-0.4551 -0.8904 -0.8904 0.4551 10928.7891 -4790.9072)">
				<stop  offset="0" style="stop-color:#009F00"/>
				<stop  offset="1" style="stop-color:#FFFF00"/>
			</linearGradient>
			<path fill="url(#SVGID_44_)" d="M396.878,224.514c1.968,15.758-2.537,15.114-2.625,15.062c-1.521-0.498,1.492-0.202-0.549-15.021
				c-2.195-15.948-5.02-17.927-3.257-18.239C390.395,206.041,394.749,207.431,396.878,224.514z"/>
			
				<linearGradient id="SVGID_45_" gradientUnits="userSpaceOnUse" x1="329.2297" y1="11638.1758" x2="329.2297" y2="11739.7803" gradientTransform="matrix(-0.4551 -0.8904 -0.8904 0.4551 10928.7891 -4790.9072)">
				<stop  offset="0" style="stop-color:#009F00"/>
				<stop  offset="1" style="stop-color:#FFFF00"/>
			</linearGradient>
			<path fill="url(#SVGID_45_)" d="M401.501,223.708c1.633,13.696-2.226,13.449-2.361,13.374c-1.341-0.438,1.173-0.29-0.561-13.35
				c-1.938-14.581-4.619-16.323-2.998-16.615C395.531,206.858,399.607,208.054,401.501,223.708z"/>
			
				<linearGradient id="SVGID_46_" gradientUnits="userSpaceOnUse" x1="327.7219" y1="11638.1523" x2="327.7219" y2="11739.8213" gradientTransform="matrix(-0.4551 -0.8904 -0.8904 0.4551 10928.7891 -4790.9072)">
				<stop  offset="0" style="stop-color:#009F00"/>
				<stop  offset="1" style="stop-color:#FFFF00"/>
			</linearGradient>
			<path fill="url(#SVGID_46_)" d="M405.601,223.168c1.338,11.575-1.868,11.781-2.068,11.686c-1.185-0.406,0.874-0.394-0.583-11.686
				c-1.685-13.246-4.207-14.736-2.73-15.005C400.156,207.927,403.955,208.946,405.601,223.168z"/>
			
				<linearGradient id="SVGID_47_" gradientUnits="userSpaceOnUse" x1="326.218" y1="11638.1543" x2="326.218" y2="11739.7061" gradientTransform="matrix(-0.4551 -0.8904 -0.8904 0.4551 10928.7891 -4790.9072)">
				<stop  offset="0" style="stop-color:#009F00"/>
				<stop  offset="1" style="stop-color:#FFFF00"/>
			</linearGradient>
			<path fill="url(#SVGID_47_)" d="M407.32,222.591c-1.439-11.883-3.797-13.148-2.459-13.389c-0.073-0.202,3.431,0.63,4.834,13.396
				c1.055,9.526-1.528,10.127-1.767,10.017C406.911,232.263,408.473,232.128,407.32,222.591z"/>
			
				<linearGradient id="SVGID_48_" gradientUnits="userSpaceOnUse" x1="324.7092" y1="11638.1348" x2="324.7092" y2="11739.7998" gradientTransform="matrix(-0.4551 -0.8904 -0.8904 0.4551 10928.7891 -4790.9072)">
				<stop  offset="0" style="stop-color:#009F00"/>
				<stop  offset="1" style="stop-color:#FFFF00"/>
			</linearGradient>
			<path fill="url(#SVGID_48_)" d="M411.18,222.271c-1.165-10.526-3.381-11.561-2.181-11.777c-0.074-0.181,3.131,0.463,4.302,11.799
				c0.78,7.437-1.189,8.459-1.482,8.338C410.967,230.335,412.062,230.041,411.18,222.271z"/>
			
				<linearGradient id="SVGID_49_" gradientUnits="userSpaceOnUse" x1="323.1907" y1="11638.125" x2="323.1907" y2="11739.7881" gradientTransform="matrix(-0.4551 -0.8904 -0.8904 0.4551 10928.7891 -4790.9072)">
				<stop  offset="0" style="stop-color:#009F00"/>
				<stop  offset="1" style="stop-color:#FFFF00"/>
			</linearGradient>
			<path fill="url(#SVGID_49_)" d="M414.556,222.18c-0.936-9.136-2.992-9.95-1.914-10.133c-0.103-0.181,2.831,0.29,3.754,10.177
				c0.509,5.379-0.836,6.813-1.171,6.681C414.526,228.651,415.165,228.213,414.556,222.18z"/>
			
				<linearGradient id="SVGID_50_" gradientUnits="userSpaceOnUse" x1="336.8391" y1="11638.3906" x2="336.8391" y2="11739.9521" gradientTransform="matrix(-0.4551 -0.8904 -0.8904 0.4551 10928.7891 -4790.9072)">
				<stop  offset="0" style="stop-color:#009F00"/>
				<stop  offset="1" style="stop-color:#FFFF00"/>
			</linearGradient>
			<path fill="url(#SVGID_50_)" d="M342.661,251.608c0.702,16.088-1.889,15.544-2.208,15.447c-1.37-0.319,0.061-0.189-1.011-15.358
				c-1.108-15.57-10.448-27.773-9.593-28.093C330.527,222.938,341.193,235.081,342.661,251.608z"/>
			
				<linearGradient id="SVGID_51_" gradientUnits="userSpaceOnUse" x1="337.6497" y1="11638.3965" x2="337.6497" y2="11739.9365" gradientTransform="matrix(-0.4551 -0.8904 -0.8904 0.4551 10928.7891 -4790.9072)">
				<stop  offset="0" style="stop-color:#009F00"/>
				<stop  offset="1" style="stop-color:#FFFF00"/>
			</linearGradient>
			<path fill="url(#SVGID_51_)" d="M347.908,248.028c0.704,17.156-2.118,16.545-2.427,16.464c-1.463-0.343,0.229-0.15-0.95-16.318
				c-1.219-16.592-10.453-28.682-9.477-29.062C335.668,218.462,346.169,230.437,347.908,248.028z"/>
			
				<linearGradient id="SVGID_52_" gradientUnits="userSpaceOnUse" x1="337.0745" y1="11638.293" x2="337.0745" y2="11739.9473" gradientTransform="matrix(-0.4551 -0.8904 -0.8904 0.4551 10928.7891 -4790.9072)">
				<stop  offset="0" style="stop-color:#009F00"/>
				<stop  offset="1" style="stop-color:#FFFF00"/>
			</linearGradient>
			<path fill="url(#SVGID_52_)" d="M352.796,245.46c1.404,17.157-2.051,16.583-2.353,16.497c-1.48-0.326,0.362-0.147-1.029-16.323
				c-1.423-16.563-9.959-27.657-8.881-28.062C341.071,216.965,351.352,227.824,352.796,245.46z"/>
			
				<linearGradient id="SVGID_53_" gradientUnits="userSpaceOnUse" x1="336.5051" y1="11638.3047" x2="336.5051" y2="11739.9238" gradientTransform="matrix(-0.4551 -0.8904 -0.8904 0.4551 10928.7891 -4790.9072)">
				<stop  offset="0" style="stop-color:#009F00"/>
				<stop  offset="1" style="stop-color:#FFFF00"/>
			</linearGradient>
			<path fill="url(#SVGID_53_)" d="M357.69,242.904c1.627,17.18-1.998,16.612-2.268,16.522c-1.515-0.339,0.483-0.162-1.106-16.333
				c-1.641-16.555-9.475-26.603-8.304-27.062C346.454,215.479,356.031,225.261,357.69,242.904z"/>
			
				<linearGradient id="SVGID_54_" gradientUnits="userSpaceOnUse" x1="335.9426" y1="11638.2812" x2="335.9426" y2="11739.9121" gradientTransform="matrix(-0.4551 -0.8904 -0.8904 0.4551 10928.7891 -4790.9072)">
				<stop  offset="0" style="stop-color:#009F00"/>
				<stop  offset="1" style="stop-color:#FFFF00"/>
			</linearGradient>
			<path fill="url(#SVGID_54_)" d="M362.574,240.328c1.845,17.208-1.928,16.635-2.189,16.575c-1.515-0.347,0.627-0.18-1.191-16.336
				c-1.861-16.552-8.956-25.595-7.717-26.064C351.85,213.977,360.679,222.682,362.574,240.328z"/>
			
				<linearGradient id="SVGID_55_" gradientUnits="userSpaceOnUse" x1="335.3762" y1="11638.25" x2="335.3762" y2="11739.9121" gradientTransform="matrix(-0.4551 -0.8904 -0.8904 0.4551 10928.7891 -4790.9072)">
				<stop  offset="0" style="stop-color:#009F00"/>
				<stop  offset="1" style="stop-color:#FFFF00"/>
			</linearGradient>
			<path fill="url(#SVGID_55_)" d="M367.45,237.755c2.089,17.241-1.864,16.683-2.097,16.607c-1.543-0.335,0.761-0.191-1.284-16.346
				c-2.09-16.529-8.443-24.559-7.123-25.047C357.259,212.494,365.302,220.098,367.45,237.755z"/>
			
				<linearGradient id="SVGID_56_" gradientUnits="userSpaceOnUse" x1="334.8079" y1="11638.252" x2="334.8079" y2="11739.8887" gradientTransform="matrix(-0.4551 -0.8904 -0.8904 0.4551 10928.7891 -4790.9072)">
				<stop  offset="0" style="stop-color:#009F00"/>
				<stop  offset="1" style="stop-color:#FFFF00"/>
			</linearGradient>
			<path fill="url(#SVGID_56_)" d="M372.323,235.199c2.345,17.257-1.799,16.72-2.003,16.638c-1.557-0.345,0.916-0.211-1.381-16.36
				c-2.327-16.525-7.918-23.533-6.519-24.047C362.64,211.007,369.928,217.514,372.323,235.199z"/>
			
				<linearGradient id="SVGID_57_" gradientUnits="userSpaceOnUse" x1="334.2434" y1="11638.2383" x2="334.2434" y2="11739.876" gradientTransform="matrix(-0.4551 -0.8904 -0.8904 0.4551 10928.7891 -4790.9072)">
				<stop  offset="0" style="stop-color:#009F00"/>
				<stop  offset="1" style="stop-color:#FFFF00"/>
			</linearGradient>
			<path fill="url(#SVGID_57_)" d="M377.184,232.618c2.622,17.295-1.714,16.759-1.896,16.682c-1.585-0.352,1.069-0.231-1.475-16.358
				c-2.601-16.515-7.411-22.517-5.924-23.042C368.044,209.496,374.512,214.911,377.184,232.618z"/>
			
				<linearGradient id="SVGID_58_" gradientUnits="userSpaceOnUse" x1="333.6829" y1="11638.2305" x2="333.6829" y2="11739.8545" gradientTransform="matrix(-0.4551 -0.8904 -0.8904 0.4551 10928.7891 -4790.9072)">
				<stop  offset="0" style="stop-color:#009F00"/>
				<stop  offset="1" style="stop-color:#FFFF00"/>
			</linearGradient>
			<path fill="url(#SVGID_58_)" d="M382.044,230.046c2.887,17.304-1.623,16.788-1.783,16.724c-1.613-0.34,1.213-0.25-1.59-16.367
				c-2.878-16.51-6.879-21.491-5.309-22.044C373.453,207.994,379.071,212.322,382.044,230.046z"/>
			
				<linearGradient id="SVGID_59_" gradientUnits="userSpaceOnUse" x1="333.1135" y1="11638.2168" x2="333.1135" y2="11739.8379" gradientTransform="matrix(-0.4551 -0.8904 -0.8904 0.4551 10928.7891 -4790.9072)">
				<stop  offset="0" style="stop-color:#009F00"/>
				<stop  offset="1" style="stop-color:#FFFF00"/>
			</linearGradient>
			<path fill="url(#SVGID_59_)" d="M386.902,227.46c3.188,17.329-1.551,16.844-1.669,16.777c-1.64-0.348,1.386-0.287-1.717-16.37
				c-3.158-16.522-6.309-20.494-4.681-21.034C378.869,206.486,383.623,209.714,386.902,227.46z"/>
			
				<linearGradient id="SVGID_60_" gradientUnits="userSpaceOnUse" x1="320.7493" y1="11638.1113" x2="320.7493" y2="11739.9189" gradientTransform="matrix(-0.4551 -0.8904 -0.8904 0.4551 10928.7891 -4790.9072)">
				<stop  offset="0" style="stop-color:#009F00"/>
				<stop  offset="1" style="stop-color:#FFFF00"/>
			</linearGradient>
			<path fill="url(#SVGID_60_)" d="M416.547,215.588c0.563-0.204,2.838,2.714,3.037,6.337c0.222,3.626-1.353,5.793-1.785,5.54
				c-0.524-0.227,0.075-2.479-0.246-5.7C417.27,218.559,415.957,215.741,416.547,215.588z"/>
			
				<linearGradient id="SVGID_61_" gradientUnits="userSpaceOnUse" x1="318.6125" y1="11638.1074" x2="318.6125" y2="11739.7715" gradientTransform="matrix(-0.4551 -0.8904 -0.8904 0.4551 10928.7891 -4790.9072)">
				<stop  offset="0" style="stop-color:#009F00"/>
				<stop  offset="1" style="stop-color:#FFFF00"/>
			</linearGradient>
			<path fill="url(#SVGID_61_)" d="M421.154,218.009c0.772,0.063,2.166,2.617,1.641,5.066c-0.482,2.433-2.008,3.314-2.379,2.966
				c-0.424-0.357,0.177-1.75,0.284-3.958C420.833,219.903,420.368,217.892,421.154,218.009z"/>
			
				<linearGradient id="SVGID_62_" gradientUnits="userSpaceOnUse" x1="296.5676" y1="11638.0176" x2="296.5676" y2="11740.1338" gradientTransform="matrix(-0.4551 -0.8904 -0.8904 0.4551 10928.7891 -4790.9072)">
				<stop  offset="0" style="stop-color:#009F00"/>
				<stop  offset="1" style="stop-color:#FFFF00"/>
			</linearGradient>
			<path fill="url(#SVGID_62_)" d="M405.443,251.02c-13.141-12.286-15.312-7.489-15.301-7.439
				c-0.545,1.681,1.142-1.425,13.232,10.188c12.673,12.177,11.586,15.908,12.984,14.594
				C416.573,268.565,419.158,263.848,405.443,251.02z"/>
			
				<linearGradient id="SVGID_63_" gradientUnits="userSpaceOnUse" x1="297.8538" y1="11638.0312" x2="297.8538" y2="11740.1436" gradientTransform="matrix(-0.4551 -0.8904 -0.8904 0.4551 10928.7891 -4790.9072)">
				<stop  offset="0" style="stop-color:#009F00"/>
				<stop  offset="1" style="stop-color:#FFFF00"/>
			</linearGradient>
			<path fill="url(#SVGID_63_)" d="M408.793,247.773c-11.647-10.808-13.764-6.79-13.773-6.692
				c-0.475,1.525,1.032-1.098,11.877,9.242c11.688,11.109,11.648,14.545,12.933,13.322
				C420.017,263.837,421.449,259.501,408.793,247.773z"/>
			
				<linearGradient id="SVGID_64_" gradientUnits="userSpaceOnUse" x1="299.3538" y1="11638.0469" x2="299.3538" y2="11740.1621" gradientTransform="matrix(-0.4551 -0.8904 -0.8904 0.4551 10928.7891 -4790.9072)">
				<stop  offset="0" style="stop-color:#009F00"/>
				<stop  offset="1" style="stop-color:#FFFF00"/>
			</linearGradient>
			<path fill="url(#SVGID_64_)" d="M412.152,244.513c-10.146-9.341-12.221-6.095-12.243-5.918
				c-0.429,1.351,0.937-0.788,10.516,8.261c10.723,10.125,10.577,13.297,11.758,12.163
				C422.361,259.204,423.766,255.209,412.152,244.513z"/>
			
				<linearGradient id="SVGID_65_" gradientUnits="userSpaceOnUse" x1="300.8528" y1="11638.0547" x2="300.8528" y2="11740.167" gradientTransform="matrix(-0.4551 -0.8904 -0.8904 0.4551 10928.7891 -4790.9072)">
				<stop  offset="0" style="stop-color:#009F00"/>
				<stop  offset="1" style="stop-color:#FFFF00"/>
			</linearGradient>
			<path fill="url(#SVGID_65_)" d="M415.01,241.523c-8.638-7.879-10.673-5.395-10.711-5.177c-0.369,1.195,0.828-0.478,9.152,7.318
				c9.771,9.112,9.507,12.02,10.587,10.991C424.2,254.838,425.59,251.177,415.01,241.523z"/>
			
				<linearGradient id="SVGID_66_" gradientUnits="userSpaceOnUse" x1="302.3547" y1="11638.0605" x2="302.3547" y2="11740.2109" gradientTransform="matrix(-0.4551 -0.8904 -0.8904 0.4551 10928.7891 -4790.9072)">
				<stop  offset="0" style="stop-color:#009F00"/>
				<stop  offset="1" style="stop-color:#FFFF00"/>
			</linearGradient>
			<path fill="url(#SVGID_66_)" d="M416.475,240.455c8.806,8.132,8.458,10.78,9.438,9.828c0.14,0.199,1.506-3.135-8.039-11.751
				c-7.125-6.423-9.132-4.695-9.188-4.431C408.37,235.137,409.398,233.95,416.475,240.455z"/>
			
				<linearGradient id="SVGID_67_" gradientUnits="userSpaceOnUse" x1="303.8518" y1="11638.0801" x2="303.8518" y2="11740.1621" gradientTransform="matrix(-0.4551 -0.8904 -0.8904 0.4551 10928.7891 -4790.9072)">
				<stop  offset="0" style="stop-color:#009F00"/>
				<stop  offset="1" style="stop-color:#FFFF00"/>
			</linearGradient>
			<path fill="url(#SVGID_67_)" d="M419.008,237.53c7.853,7.107,7.414,9.515,8.275,8.656c0.108,0.176,1.464-2.802-7.057-10.381
				c-5.582-4.976-7.577-3.996-7.646-3.692C412.326,232.984,413.208,232.268,419.008,237.53z"/>
			
				<linearGradient id="SVGID_68_" gradientUnits="userSpaceOnUse" x1="305.3567" y1="11638.084" x2="305.3567" y2="11740.1895" gradientTransform="matrix(-0.4551 -0.8904 -0.8904 0.4551 10928.7891 -4790.9072)">
				<stop  offset="0" style="stop-color:#009F00"/>
				<stop  offset="1" style="stop-color:#FFFF00"/>
			</linearGradient>
			<path fill="url(#SVGID_68_)" d="M421.042,234.854c6.883,6.109,6.337,8.25,7.125,7.485c0.083,0.183,1.417-2.461-6.074-9.005
				c-4.077-3.56-6.035-3.293-6.115-2.955C415.782,231.091,416.508,230.826,421.042,234.854z"/>
			
				<linearGradient id="SVGID_69_" gradientUnits="userSpaceOnUse" x1="291.886" y1="11637.8711" x2="291.886" y2="11740.0068" gradientTransform="matrix(-0.4551 -0.8904 -0.8904 0.4551 10928.7891 -4790.9072)">
				<stop  offset="0" style="stop-color:#009F00"/>
				<stop  offset="1" style="stop-color:#FFFF00"/>
			</linearGradient>
			<path fill="url(#SVGID_69_)" d="M355.031,275.731c-12.672-9.987-13.755-7.571-13.857-7.254
				c-0.552,1.294,0.206,0.054,11.901,9.812c12.003,10.015,16.441,24.714,17.207,24.2
				C371.213,302.346,367.593,286.604,355.031,275.731z"/>
			
				<linearGradient id="SVGID_70_" gradientUnits="userSpaceOnUse" x1="291.0618" y1="11637.9004" x2="291.0618" y2="11740.0205" gradientTransform="matrix(-0.4551 -0.8904 -0.8904 0.4551 10928.7891 -4790.9072)">
				<stop  offset="0" style="stop-color:#009F00"/>
				<stop  offset="1" style="stop-color:#FFFF00"/>
			</linearGradient>
			<path fill="url(#SVGID_70_)" d="M361.008,273.592c-13.527-10.62-14.687-7.988-14.81-7.687c-0.567,1.385,0.26-0.092,12.709,10.327
				c12.766,10.701,17.195,25.252,18.086,24.679C377.878,300.81,374.293,285.305,361.008,273.592z"/>
			
				<linearGradient id="SVGID_71_" gradientUnits="userSpaceOnUse" x1="291.6243" y1="11637.8906" x2="291.6243" y2="11740.0361" gradientTransform="matrix(-0.4551 -0.8904 -0.8904 0.4551 10928.7891 -4790.9072)">
				<stop  offset="0" style="stop-color:#009F00"/>
				<stop  offset="1" style="stop-color:#FFFF00"/>
			</linearGradient>
			<path fill="url(#SVGID_71_)" d="M365.957,271.147c-13.123-11.202-14.662-8.062-14.782-7.776
				c-0.596,1.396,0.332-0.186,12.661,10.4c12.623,10.861,16.639,24.246,17.607,23.622
				C382.25,297.314,379.446,282.634,365.957,271.147z"/>
			
				<linearGradient id="SVGID_72_" gradientUnits="userSpaceOnUse" x1="292.1809" y1="11637.9453" x2="292.1809" y2="11740.0322" gradientTransform="matrix(-0.4551 -0.8904 -0.8904 0.4551 10928.7891 -4790.9072)">
				<stop  offset="0" style="stop-color:#009F00"/>
				<stop  offset="1" style="stop-color:#FFFF00"/>
			</linearGradient>
			<path fill="url(#SVGID_72_)" d="M370.906,268.687c-13.021-11.373-14.679-8.12-14.754-7.852
				c-0.608,1.423,0.409-0.294,12.612,10.466c12.493,11.029,16.078,23.249,17.134,22.565
				C386.618,293.83,384.263,280.363,370.906,268.687z"/>
			
				<linearGradient id="SVGID_73_" gradientUnits="userSpaceOnUse" x1="292.7297" y1="11637.9629" x2="292.7297" y2="11740.0371" gradientTransform="matrix(-0.4551 -0.8904 -0.8904 0.4551 10928.7891 -4790.9072)">
				<stop  offset="0" style="stop-color:#009F00"/>
				<stop  offset="1" style="stop-color:#FFFF00"/>
			</linearGradient>
			<path fill="url(#SVGID_73_)" d="M375.859,266.249c-12.908-11.571-14.665-8.189-14.744-7.938c-0.6,1.415,0.498-0.4,12.572,10.53
				c12.363,11.19,15.552,22.23,16.668,21.501C390.977,290.343,389.092,278.121,375.859,266.249z"/>
			
				<linearGradient id="SVGID_74_" gradientUnits="userSpaceOnUse" x1="293.2825" y1="11637.9316" x2="293.2825" y2="11740.0879" gradientTransform="matrix(-0.4551 -0.8904 -0.8904 0.4551 10928.7891 -4790.9072)">
				<stop  offset="0" style="stop-color:#009F00"/>
				<stop  offset="1" style="stop-color:#FFFF00"/>
			</linearGradient>
			<path fill="url(#SVGID_74_)" d="M380.807,263.815c-12.786-11.792-14.65-8.268-14.729-8.041
				c-0.624,1.451,0.599-0.495,12.542,10.609c12.196,11.382,15.001,21.219,16.188,20.438
				C395.35,286.854,393.904,275.898,380.807,263.815z"/>
			
				<linearGradient id="SVGID_75_" gradientUnits="userSpaceOnUse" x1="293.8391" y1="11637.9336" x2="293.8391" y2="11740.1162" gradientTransform="matrix(-0.4551 -0.8904 -0.8904 0.4551 10928.7891 -4790.9072)">
				<stop  offset="0" style="stop-color:#009F00"/>
				<stop  offset="1" style="stop-color:#FFFF00"/>
			</linearGradient>
			<path fill="url(#SVGID_75_)" d="M385.73,261.373c-12.644-12.015-14.628-8.337-14.693-8.129
				c-0.622,1.459,0.712-0.613,12.491,10.683c12.054,11.57,14.48,20.198,15.726,19.373
				C399.735,283.369,398.699,273.663,385.73,261.373z"/>
			
				<linearGradient id="SVGID_76_" gradientUnits="userSpaceOnUse" x1="294.3928" y1="11637.9785" x2="294.3928" y2="11740.0928" gradientTransform="matrix(-0.4551 -0.8904 -0.8904 0.4551 10928.7891 -4790.9072)">
				<stop  offset="0" style="stop-color:#009F00"/>
				<stop  offset="1" style="stop-color:#FFFF00"/>
			</linearGradient>
			<path fill="url(#SVGID_76_)" d="M390.675,258.954c-12.51-12.235-14.619-8.435-14.657-8.245
				c-0.648,1.479,0.813-0.728,12.426,10.771c11.897,11.785,13.953,19.177,15.262,18.292
				C404.105,279.879,403.505,271.48,390.675,258.954z"/>
			
				<linearGradient id="SVGID_77_" gradientUnits="userSpaceOnUse" x1="294.9485" y1="11637.9805" x2="294.9485" y2="11740.1348" gradientTransform="matrix(-0.4551 -0.8904 -0.8904 0.4551 10928.7891 -4790.9072)">
				<stop  offset="0" style="stop-color:#009F00"/>
				<stop  offset="1" style="stop-color:#FFFF00"/>
			</linearGradient>
			<path fill="url(#SVGID_77_)" d="M395.619,256.532c-12.37-12.488-14.617-8.519-14.646-8.356
				c-0.658,1.509,0.928-0.834,12.383,10.863c11.738,12.007,13.438,18.147,14.798,17.207
				C408.503,276.395,408.278,269.314,395.619,256.532z"/>
			
				<linearGradient id="SVGID_78_" gradientUnits="userSpaceOnUse" x1="295.4954" y1="11638.0176" x2="295.4954" y2="11740.0967" gradientTransform="matrix(-0.4551 -0.8904 -0.8904 0.4551 10928.7891 -4790.9072)">
				<stop  offset="0" style="stop-color:#009F00"/>
				<stop  offset="1" style="stop-color:#FFFF00"/>
			</linearGradient>
			<path fill="url(#SVGID_78_)" d="M400.554,254.112c-12.207-12.709-14.601-8.607-14.587-8.463
				c-0.688,1.527,1.023-0.951,12.287,10.963c11.571,12.237,12.947,17.111,14.357,16.11
				C412.89,272.901,413.061,267.162,400.554,254.112z"/>
			
				<linearGradient id="SVGID_79_" gradientUnits="userSpaceOnUse" x1="307.7942" y1="11638.0938" x2="307.7942" y2="11740.1768" gradientTransform="matrix(-0.4551 -0.8904 -0.8904 0.4551 10928.7891 -4790.9072)">
				<stop  offset="0" style="stop-color:#009F00"/>
				<stop  offset="1" style="stop-color:#FFFF00"/>
			</linearGradient>
			<path fill="url(#SVGID_79_)" d="M427.572,237.109c0.501-0.341-0.543-3.877-3.371-6.162c-2.817-2.303-5.494-2.31-5.546-1.805
				c-0.116,0.547,2.064,1.397,4.483,3.529C425.59,234.782,427.108,237.498,427.572,237.109z"/>
			
				<linearGradient id="SVGID_80_" gradientUnits="userSpaceOnUse" x1="309.925" y1="11638.1016" x2="309.925" y2="11740.1807" gradientTransform="matrix(-0.4551 -0.8904 -0.8904 0.4551 10928.7891 -4790.9072)">
				<stop  offset="0" style="stop-color:#009F00"/>
				<stop  offset="1" style="stop-color:#FFFF00"/>
			</linearGradient>
			<path fill="url(#SVGID_80_)" d="M428.301,231.967c0.399-0.668-0.852-3.291-3.142-4.294c-2.263-1.031-3.875-0.317-3.819,0.186
				c0.036,0.558,1.524,0.887,3.384,2.085C426.579,231.109,427.939,232.671,428.301,231.967z"/>
			
				<linearGradient id="SVGID_81_" gradientUnits="userSpaceOnUse" x1="314.2629" y1="11638.1055" x2="314.2629" y2="11739.876" gradientTransform="matrix(-0.4551 -0.8904 -0.8904 0.4551 10928.7891 -4790.9072)">
				<stop  offset="0" style="stop-color:#009F00"/>
				<stop  offset="1" style="stop-color:#FFFF00"/>
			</linearGradient>
			<path fill="url(#SVGID_81_)" d="M427.198,223.675c-0.442-0.746-1.931-0.368-2.786,0.457c-0.859,0.836-1.43,1.583-1.374,1.755
				c0.115,0.142,1.031,0.151,2.239-0.123C426.47,225.518,427.618,224.44,427.198,223.675z"/>
		</g>
		<polygon fill="#3C140A" points="412.7,345.146 202.035,345.146 307.368,151.799 		"/>
		<linearGradient id="SVGID_82_" gradientUnits="userSpaceOnUse" x1="246.3289" y1="336.958" x2="325.3137" y2="336.958">
			<stop  offset="0" style="stop-color:#FF0000"/>
			<stop  offset="1" style="stop-color:#FFFF00"/>
		</linearGradient>
		<path fill="url(#SVGID_82_)" d="M325.314,336.959c0,21.748-17.681,39.383-39.495,39.383c-21.808,0-39.49-17.635-39.49-39.383
			c0-21.757,17.682-39.385,39.49-39.385C307.633,297.574,325.314,315.202,325.314,336.959z"/>
		<linearGradient id="SVGID_83_" gradientUnits="userSpaceOnUse" x1="217.7781" y1="338.1543" x2="275.3704" y2="338.1543">
			<stop  offset="0" style="stop-color:#FF0000"/>
			<stop  offset="1" style="stop-color:#FFFF00"/>
		</linearGradient>
		<path fill="url(#SVGID_83_)" d="M275.37,338.155c0,15.859-12.89,28.716-28.797,28.716c-15.898,0-28.795-12.856-28.795-28.716
			c0-15.863,12.896-28.717,28.795-28.717C262.481,309.438,275.37,322.292,275.37,338.155z"/>
		<linearGradient id="SVGID_84_" gradientUnits="userSpaceOnUse" x1="193.9861" y1="344.1406" x2="230.0554" y2="344.1406">
			<stop  offset="0" style="stop-color:#FF0000"/>
			<stop  offset="1" style="stop-color:#FFFF00"/>
		</linearGradient>
		<path fill="url(#SVGID_84_)" d="M230.055,344.143c0,9.932-8.075,17.982-18.034,17.982c-9.958,0-18.035-8.051-18.035-17.982
			c0-9.938,8.077-17.987,18.035-17.987C221.98,326.155,230.055,334.205,230.055,344.143z"/>
		<g>
			<g>
				<path fill="#3C140A" d="M254.847,261.424c-1.171,2.823-3.273,10.983-3.273,10.983l4.808-10.262
					c0.39-0.812,38.897-81.906,19.711-128.029c-5.604-13.484-15.619-22.832-29.754-27.774l-0.553,1.591
					c13.662,4.788,23.332,13.808,28.751,26.827C293.424,180.2,255.201,260.59,254.847,261.424z"/>
			</g>
			<g>
				<path fill="#3C140A" d="M251.06,272.119l1.314,0.297c0.173-0.702,15.688-71.001-7.6-103.637
					c-6.815-9.541-16.321-15.059-28.261-16.402l-0.145,1.344c11.543,1.303,20.722,6.623,27.292,15.841
					C266.611,201.712,251.214,271.419,251.06,272.119z"/>
			</g>
		</g>
	</g>
</g>
</svg>
