
<svg width="512" xmlns="http://www.w3.org/2000/svg" height="512" viewBox="0.5 512.5 512 512" xmlns:xlink="http://www.w3.org/1999/xlink" enable-background="new 0.5 512.5 512 512">
<defs>
<linearGradient gradientTransform="matrix(.8537 .5207 -.5207 .8537 1303.9661 479.484)" id="SVGID_78_" y1="664.658" y2="748.012" gradientUnits="userSpaceOnUse" x2="0">
<stop offset="0" stop-color="#009f00"/>
<stop offset="1" stop-color="#ff0"/>
</linearGradient>
<linearGradient gradientTransform="matrix(.8537 .5207 -.5207 .8537 1303.9661 479.484)" id="SVGID_50_" y1="664.582" y2="748.097" gradientUnits="userSpaceOnUse" x2="0">
<stop offset="0" stop-color="#009f00"/>
<stop offset="1" stop-color="#ff0"/>
</linearGradient>
<linearGradient gradientTransform="matrix(.8537 .5207 -.5207 .8537 1303.9661 479.484)" id="SVGID_48_" y1="664.569" y2="748.088" gradientUnits="userSpaceOnUse" x2="0">
<stop offset="0" stop-color="#009f00"/>
<stop offset="1" stop-color="#ff0"/>
</linearGradient>
<linearGradient gradientTransform="matrix(.8537 .5207 -.5207 .8537 1303.9661 479.484)" id="SVGID_49_" y1="664.555" y2="748.102" gradientUnits="userSpaceOnUse" x2="0">
<stop offset="0" stop-color="#009f00"/>
<stop offset="1" stop-color="#ff0"/>
</linearGradient>
<linearGradient gradientTransform="matrix(.8537 .5207 -.5207 .8537 1303.9661 479.484)" id="SVGID_51_" y1="664.592" y2="748.101" gradientUnits="userSpaceOnUse" x2="0">
<stop offset="0" stop-color="#009f00"/>
<stop offset="1" stop-color="#ff0"/>
</linearGradient>
<linearGradient gradientTransform="matrix(.8537 .5207 -.5207 .8537 1303.9661 479.484)" id="SVGID_52_" y1="664.588" y2="748.116" gradientUnits="userSpaceOnUse" x2="0">
<stop offset="0" stop-color="#009f00"/>
<stop offset="1" stop-color="#ff0"/>
</linearGradient>
<linearGradient gradientTransform="matrix(.8537 .5207 -.5207 .8537 1303.9661 479.484)" id="SVGID_55_" y1="664.615" y2="748.124" gradientUnits="userSpaceOnUse" x2="0">
<stop offset="0" stop-color="#009f00"/>
<stop offset="1" stop-color="#ff0"/>
</linearGradient>
<linearGradient gradientTransform="matrix(.8537 .5207 -.5207 .8537 1303.9661 479.484)" id="SVGID_53_" y1="664.59" y2="748.127" gradientUnits="userSpaceOnUse" x2="0">
<stop offset="0" stop-color="#009f00"/>
<stop offset="1" stop-color="#ff0"/>
</linearGradient>
<linearGradient gradientTransform="matrix(.8537 .5207 -.5207 .8537 1303.9661 479.484)" id="SVGID_54_" y1="664.592" y2="748.135" gradientUnits="userSpaceOnUse" x2="0">
<stop offset="0" stop-color="#009f00"/>
<stop offset="1" stop-color="#ff0"/>
</linearGradient>
<linearGradient gradientTransform="matrix(.8537 .5207 -.5207 .8537 1303.9661 479.484)" id="SVGID_47_" y1="664.537" y2="748.084" gradientUnits="userSpaceOnUse" x2="0">
<stop offset="0" stop-color="#009f00"/>
<stop offset="1" stop-color="#ff0"/>
</linearGradient>
<linearGradient gradientTransform="matrix(.8537 .5207 -.5207 .8537 1303.9661 479.484)" id="SVGID_46_" y1="664.652" y2="748.192" gradientUnits="userSpaceOnUse" x2="0">
<stop offset="0" stop-color="#009f00"/>
<stop offset="1" stop-color="#ff0"/>
</linearGradient>
<linearGradient gradientTransform="matrix(.9777 -.2098 .2098 .9777 -501.9264 53.9037)" id="SVGID_39_" y1="695.007" y2="802.073" gradientUnits="userSpaceOnUse" x2="0">
<stop offset="0" stop-color="#009f00"/>
<stop offset="1" stop-color="#ff0"/>
</linearGradient>
<linearGradient gradientTransform="matrix(.9777 -.2098 .2098 .9777 -501.9264 53.9037)" id="SVGID_37_" y1="695.004" y2="802.215" gradientUnits="userSpaceOnUse" x2="0">
<stop offset="0" stop-color="#009f00"/>
<stop offset="1" stop-color="#ff0"/>
</linearGradient>
<linearGradient gradientTransform="matrix(.9777 -.2098 .2098 .9777 -501.9264 53.9037)" id="SVGID_38_" y1="695.007" y2="802.173" gradientUnits="userSpaceOnUse" x2="0">
<stop offset="0" stop-color="#009f00"/>
<stop offset="1" stop-color="#ff0"/>
</linearGradient>
<linearGradient gradientTransform="matrix(.8537 .5207 -.5207 .8537 1303.9661 479.484)" id="SVGID_40_" y1="664.627" y2="748.121" gradientUnits="userSpaceOnUse" x2="0">
<stop offset="0" stop-color="#009f00"/>
<stop offset="1" stop-color="#ff0"/>
</linearGradient>
<linearGradient gradientTransform="matrix(.8537 .5207 -.5207 .8537 1303.9661 479.484)" id="SVGID_45_" y1="664.646" y2="748.183" gradientUnits="userSpaceOnUse" x2="0">
<stop offset="0" stop-color="#009f00"/>
<stop offset="1" stop-color="#ff0"/>
</linearGradient>
<linearGradient gradientTransform="matrix(.8537 .5207 -.5207 .8537 1303.9661 479.484)" id="SVGID_41_" y1="664.629" y2="748.138" gradientUnits="userSpaceOnUse" x2="0">
<stop offset="0" stop-color="#009f00"/>
<stop offset="1" stop-color="#ff0"/>
</linearGradient>
<linearGradient gradientTransform="matrix(.8537 .5207 -.5207 .8537 1303.9661 479.484)" id="SVGID_44_" y1="664.642" y2="748.169" gradientUnits="userSpaceOnUse" x2="0">
<stop offset="0" stop-color="#009f00"/>
<stop offset="1" stop-color="#ff0"/>
</linearGradient>
<linearGradient gradientTransform="matrix(.8537 .5207 -.5207 .8537 1303.9661 479.484)" id="SVGID_42_" y1="664.634" y2="748.145" gradientUnits="userSpaceOnUse" x2="0">
<stop offset="0" stop-color="#009f00"/>
<stop offset="1" stop-color="#ff0"/>
</linearGradient>
<linearGradient gradientTransform="matrix(.8537 .5207 -.5207 .8537 1303.9661 479.484)" id="SVGID_43_" y1="664.635" y2="748.177" gradientUnits="userSpaceOnUse" x2="0">
<stop offset="0" stop-color="#009f00"/>
<stop offset="1" stop-color="#ff0"/>
</linearGradient>
<linearGradient gradientTransform="matrix(.8537 .5207 -.5207 .8537 1303.9661 479.484)" id="SVGID_56_" y1="664.612" y2="748.138" gradientUnits="userSpaceOnUse" x2="0">
<stop offset="0" stop-color="#009f00"/>
<stop offset="1" stop-color="#ff0"/>
</linearGradient>
<linearGradient gradientTransform="matrix(.8537 .5207 -.5207 .8537 1303.9661 479.484)" id="SVGID_57_" y1="664.655" y2="748.18" gradientUnits="userSpaceOnUse" x2="0">
<stop offset="0" stop-color="#009f00"/>
<stop offset="1" stop-color="#ff0"/>
</linearGradient>
<linearGradient gradientTransform="matrix(.8537 .5207 -.5207 .8537 1303.9661 479.484)" id="SVGID_71_" y1="664.75" y2="748.023" gradientUnits="userSpaceOnUse" x2="0">
<stop offset="0" stop-color="#009f00"/>
<stop offset="1" stop-color="#ff0"/>
</linearGradient>
<linearGradient gradientTransform="matrix(.8537 .5207 -.5207 .8537 1303.9661 479.484)" id="SVGID_69_" y1="664.756" y2="748.044" gradientUnits="userSpaceOnUse" x2="0">
<stop offset="0" stop-color="#009f00"/>
<stop offset="1" stop-color="#ff0"/>
</linearGradient>
<linearGradient gradientTransform="matrix(.8537 .5207 -.5207 .8537 1303.9661 479.484)" id="SVGID_70_" y1="664.742" y2="748.036" gradientUnits="userSpaceOnUse" x2="0">
<stop offset="0" stop-color="#009f00"/>
<stop offset="1" stop-color="#ff0"/>
</linearGradient>
<linearGradient gradientTransform="matrix(.8537 .5207 -.5207 .8537 1303.9661 479.484)" id="SVGID_72_" y1="664.74" y2="748.019" gradientUnits="userSpaceOnUse" x2="0">
<stop offset="0" stop-color="#009f00"/>
<stop offset="1" stop-color="#ff0"/>
</linearGradient>
<linearGradient gradientTransform="matrix(.8537 .5207 -.5207 .8537 1303.9661 479.484)" id="SVGID_77_" y1="664.664" y2="748.013" gradientUnits="userSpaceOnUse" x2="0">
<stop offset="0" stop-color="#009f00"/>
<stop offset="1" stop-color="#ff0"/>
</linearGradient>
<linearGradient gradientTransform="matrix(.8537 .5207 -.5207 .8537 1303.9661 479.484)" id="SVGID_73_" y1="664.731" y2="748.012" gradientUnits="userSpaceOnUse" x2="0">
<stop offset="0" stop-color="#009f00"/>
<stop offset="1" stop-color="#ff0"/>
</linearGradient>
<linearGradient gradientTransform="matrix(.8537 .5207 -.5207 .8537 1303.9661 479.484)" id="SVGID_76_" y1="664.667" y2="747.955" gradientUnits="userSpaceOnUse" x2="0">
<stop offset="0" stop-color="#009f00"/>
<stop offset="1" stop-color="#ff0"/>
</linearGradient>
<linearGradient gradientTransform="matrix(.8537 .5207 -.5207 .8537 1303.9661 479.484)" id="SVGID_74_" y1="664.719" y2="748.017" gradientUnits="userSpaceOnUse" x2="0">
<stop offset="0" stop-color="#009f00"/>
<stop offset="1" stop-color="#ff0"/>
</linearGradient>
<linearGradient gradientTransform="matrix(.8537 .5207 -.5207 .8537 1303.9661 479.484)" id="SVGID_75_" y1="664.726" y2="747.983" gradientUnits="userSpaceOnUse" x2="0">
<stop offset="0" stop-color="#009f00"/>
<stop offset="1" stop-color="#ff0"/>
</linearGradient>
<linearGradient gradientTransform="matrix(.8537 .5207 -.5207 .8537 1303.9661 479.484)" id="SVGID_68_" y1="664.758" y2="748.052" gradientUnits="userSpaceOnUse" x2="0">
<stop offset="0" stop-color="#009f00"/>
<stop offset="1" stop-color="#ff0"/>
</linearGradient>
<linearGradient gradientTransform="matrix(.8537 .5207 -.5207 .8537 1303.9661 479.484)" id="SVGID_67_" y1="664.758" y2="748.059" gradientUnits="userSpaceOnUse" x2="0">
<stop offset="0" stop-color="#009f00"/>
<stop offset="1" stop-color="#ff0"/>
</linearGradient>
<linearGradient gradientTransform="matrix(.8537 .5207 -.5207 .8537 1303.9661 479.484)" id="SVGID_60_" y1="664.69" y2="748.015" gradientUnits="userSpaceOnUse" x2="0">
<stop offset="0" stop-color="#009f00"/>
<stop offset="1" stop-color="#ff0"/>
</linearGradient>
<linearGradient gradientTransform="matrix(.8537 .5207 -.5207 .8537 1303.9661 479.484)" id="SVGID_58_" y1="664.658" y2="748.091" gradientUnits="userSpaceOnUse" x2="0">
<stop offset="0" stop-color="#009f00"/>
<stop offset="1" stop-color="#ff0"/>
</linearGradient>
<linearGradient gradientTransform="matrix(.8537 .5207 -.5207 .8537 1303.9661 479.484)" id="SVGID_59_" y1="664.696" y2="748.019" gradientUnits="userSpaceOnUse" x2="0">
<stop offset="0" stop-color="#009f00"/>
<stop offset="1" stop-color="#ff0"/>
</linearGradient>
<linearGradient gradientTransform="matrix(.8537 .5207 -.5207 .8537 1303.9661 479.484)" id="SVGID_61_" y1="664.695" y2="747.976" gradientUnits="userSpaceOnUse" x2="0">
<stop offset="0" stop-color="#009f00"/>
<stop offset="1" stop-color="#ff0"/>
</linearGradient>
<linearGradient gradientTransform="matrix(.8537 .5207 -.5207 .8537 1303.9661 479.484)" id="SVGID_66_" y1="664.779" y2="748.062" gradientUnits="userSpaceOnUse" x2="0">
<stop offset="0" stop-color="#009f00"/>
<stop offset="1" stop-color="#ff0"/>
</linearGradient>
<linearGradient gradientTransform="matrix(.8537 .5207 -.5207 .8537 1303.9661 479.484)" id="SVGID_62_" y1="664.682" y2="748.002" gradientUnits="userSpaceOnUse" x2="0">
<stop offset="0" stop-color="#009f00"/>
<stop offset="1" stop-color="#ff0"/>
</linearGradient>
<linearGradient gradientTransform="matrix(.8537 .5207 -.5207 .8537 1303.9661 479.484)" id="SVGID_65_" y1="664.669" y2="748.019" gradientUnits="userSpaceOnUse" x2="0">
<stop offset="0" stop-color="#009f00"/>
<stop offset="1" stop-color="#ff0"/>
</linearGradient>
<linearGradient gradientTransform="matrix(.8537 .5207 -.5207 .8537 1303.9661 479.484)" id="SVGID_63_" y1="664.678" y2="747.983" gradientUnits="userSpaceOnUse" x2="0">
<stop offset="0" stop-color="#009f00"/>
<stop offset="1" stop-color="#ff0"/>
</linearGradient>
<linearGradient gradientTransform="matrix(.8537 .5207 -.5207 .8537 1303.9661 479.484)" id="SVGID_64_" y1="664.676" y2="747.99" gradientUnits="userSpaceOnUse" x2="0">
<stop offset="0" stop-color="#009f00"/>
<stop offset="1" stop-color="#ff0"/>
</linearGradient>
<linearGradient gradientTransform="matrix(.9777 -.2098 .2098 .9777 -501.9264 53.9037)" id="SVGID_36_" y1="694.981" y2="802.21" gradientUnits="userSpaceOnUse" x2="0">
<stop offset="0" stop-color="#009f00"/>
<stop offset="1" stop-color="#ff0"/>
</linearGradient>
<linearGradient gradientTransform="matrix(.9777 -.2098 .2098 .9777 -501.9264 53.9037)" id="SVGID_35_" y1="694.964" y2="802.235" gradientUnits="userSpaceOnUse" x2="0">
<stop offset="0" stop-color="#009f00"/>
<stop offset="1" stop-color="#ff0"/>
</linearGradient>
<linearGradient gradientTransform="matrix(.9777 -.2098 .2098 .9777 -501.9264 53.9037)" id="SVGID_6_" y1="695.013" y2="802.161" gradientUnits="userSpaceOnUse" x2="0">
<stop offset="0" stop-color="#009f00"/>
<stop offset="1" stop-color="#ff0"/>
</linearGradient>
<linearGradient gradientTransform="matrix(.9777 -.2098 .2098 .9777 -501.9264 53.9037)" id="SVGID_4_" y1="695.023" y2="802.136" gradientUnits="userSpaceOnUse" x2="0">
<stop offset="0" stop-color="#009f00"/>
<stop offset="1" stop-color="#ff0"/>
</linearGradient>
<linearGradient gradientTransform="matrix(.9777 -.2098 .2098 .9777 -501.9264 53.9037)" id="SVGID_5_" y1="695.019" y2="802.129" gradientUnits="userSpaceOnUse" x2="0">
<stop offset="0" stop-color="#009f00"/>
<stop offset="1" stop-color="#ff0"/>
</linearGradient>
<linearGradient gradientTransform="matrix(.9777 -.2098 .2098 .9777 -501.9264 53.9037)" id="SVGID_7_" y1="695.015" y2="802.097" gradientUnits="userSpaceOnUse" x2="0">
<stop offset="0" stop-color="#009f00"/>
<stop offset="1" stop-color="#ff0"/>
</linearGradient>
<linearGradient gradientTransform="matrix(.9777 -.2098 .2098 .9777 -501.9264 53.9037)" id="SVGID_12_" y1="695.061" y2="802.157" gradientUnits="userSpaceOnUse" x2="0">
<stop offset="0" stop-color="#009f00"/>
<stop offset="1" stop-color="#ff0"/>
</linearGradient>
<linearGradient gradientTransform="matrix(.9777 -.2098 .2098 .9777 -501.9264 53.9037)" id="SVGID_8_" y1="695.109" y2="802.17" gradientUnits="userSpaceOnUse" x2="0">
<stop offset="0" stop-color="#009f00"/>
<stop offset="1" stop-color="#ff0"/>
</linearGradient>
<linearGradient gradientTransform="matrix(.9777 -.2098 .2098 .9777 -501.9264 53.9037)" id="SVGID_11_" y1="695.062" y2="802.165" gradientUnits="userSpaceOnUse" x2="0">
<stop offset="0" stop-color="#009f00"/>
<stop offset="1" stop-color="#ff0"/>
</linearGradient>
<linearGradient gradientTransform="matrix(.9777 -.2098 .2098 .9777 -501.9264 53.9037)" id="SVGID_9_" y1="695.076" y2="802.173" gradientUnits="userSpaceOnUse" x2="0">
<stop offset="0" stop-color="#009f00"/>
<stop offset="1" stop-color="#ff0"/>
</linearGradient>
<linearGradient gradientTransform="matrix(.9777 -.2098 .2098 .9777 -501.9264 53.9037)" id="SVGID_10_" y1="695.062" y2="802.169" gradientUnits="userSpaceOnUse" x2="0">
<stop offset="0" stop-color="#009f00"/>
<stop offset="1" stop-color="#ff0"/>
</linearGradient>
<linearGradient gradientTransform="matrix(.9777 -.2098 .2098 .9777 -501.9264 53.9037)" id="SVGID_3_" y1="695.029" y2="802.113" gradientUnits="userSpaceOnUse" x2="0">
<stop offset="0" stop-color="#009f00"/>
<stop offset="1" stop-color="#ff0"/>
</linearGradient>
<linearGradient gradientTransform="matrix(.9777 -.2098 .2098 .9777 -501.9264 53.9037)" id="SVGID_2_" y1="695.03" y2="802.129" gradientUnits="userSpaceOnUse" x2="0">
<stop offset="0" stop-color="#009f00"/>
<stop offset="1" stop-color="#ff0"/>
</linearGradient>
<linearGradient gradientTransform="matrix(.6943 -.7196 .7196 .6943 -1265.4897 3620.3376)" id="SVGID_81_" y1="-757.165" x1="3115.795" y2="-878.1" gradientUnits="userSpaceOnUse" x2="3120.018">
<stop offset="0" stop-color="#004eff"/>
<stop offset="1" stop-color="#0ff"/>
</linearGradient>
<linearGradient gradientTransform="matrix(.6943 -.7196 .7196 .6943 -1265.4897 3620.3376)" id="SVGID_79_" y1="-807.062" x1="3141.212" y2="-877.274" gradientUnits="userSpaceOnUse" x2="3143.664">
<stop offset="0" stop-color="#004eff"/>
<stop offset="1" stop-color="#0ff"/>
</linearGradient>
<linearGradient gradientTransform="matrix(.6943 -.7196 .7196 .6943 -1265.4897 3620.3376)" id="SVGID_80_" y1="-782.111" x1="3128.502" y2="-877.687" gradientUnits="userSpaceOnUse" x2="3131.84">
<stop offset="0" stop-color="#004eff"/>
<stop offset="1" stop-color="#0ff"/>
</linearGradient>
<linearGradient gradientTransform="matrix(.6943 -.7196 .7196 .6943 -1265.4897 3620.3376)" id="SVGID_82_" y1="-732.217" x1="3103.085" y2="-878.512" gradientUnits="userSpaceOnUse" x2="3108.194">
<stop offset="0" stop-color="#004eff"/>
<stop offset="1" stop-color="#0ff"/>
</linearGradient>
<linearGradient gradientTransform="matrix(.9777 -.2098 .2098 .9777 -501.9264 53.9037)" id="SVGID_1_" y1="695.035" y2="802.132" gradientUnits="userSpaceOnUse" x2="0">
<stop offset="0" stop-color="#009f00"/>
<stop offset="1" stop-color="#ff0"/>
</linearGradient>
<linearGradient gradientTransform="matrix(-.7062 .708 -.708 -.7062 8030.5957 138.2014)" id="SVGID_83_" y1="5157.24" x1="5914.703" y2="5131.798" gradientUnits="userSpaceOnUse" x2="5984.606">
<stop offset="0" stop-color="#0ff"/>
<stop offset="1" stop-color="#00ae00"/>
</linearGradient>
<linearGradient gradientTransform="matrix(-.7062 .708 -.708 -.7062 8030.5957 138.2014)" id="SVGID_86_" y1="5141.395" x1="5984.287" y2="5115.958" gradientUnits="userSpaceOnUse" x2="6054.172">
<stop offset="0" stop-color="#0ff"/>
<stop offset="1" stop-color="#00ae00"/>
</linearGradient>
<linearGradient gradientTransform="matrix(-.7062 .708 -.708 -.7062 8030.5957 138.2014)" id="SVGID_84_" y1="5150.519" x1="5937.566" y2="5125.081" gradientUnits="userSpaceOnUse" x2="6007.457">
<stop offset="0" stop-color="#0ff"/>
<stop offset="1" stop-color="#00ae00"/>
</linearGradient>
<linearGradient gradientTransform="matrix(-.7062 .708 -.708 -.7062 8030.5957 138.2014)" id="SVGID_85_" y1="5145.66" x1="5960.463" y2="5120.129" gradientUnits="userSpaceOnUse" x2="6030.608">
<stop offset="0" stop-color="#0ff"/>
<stop offset="1" stop-color="#00ae00"/>
</linearGradient>
<linearGradient gradientTransform="matrix(.9777 -.2098 .2098 .9777 -501.9264 53.9037)" id="SVGID_13_" y1="695.048" y2="802.16" gradientUnits="userSpaceOnUse" x2="0">
<stop offset="0" stop-color="#009f00"/>
<stop offset="1" stop-color="#ff0"/>
</linearGradient>
<linearGradient gradientTransform="matrix(.9777 -.2098 .2098 .9777 -501.9264 53.9037)" id="SVGID_14_" y1="695.034" y2="802.168" gradientUnits="userSpaceOnUse" x2="0">
<stop offset="0" stop-color="#009f00"/>
<stop offset="1" stop-color="#ff0"/>
</linearGradient>
<linearGradient gradientTransform="matrix(.9777 -.2098 .2098 .9777 -501.9264 53.9037)" id="SVGID_28_" y1="694.943" y2="802.193" gradientUnits="userSpaceOnUse" x2="0">
<stop offset="0" stop-color="#009f00"/>
<stop offset="1" stop-color="#ff0"/>
</linearGradient>
<linearGradient gradientTransform="matrix(.9777 -.2098 .2098 .9777 -501.9264 53.9037)" id="SVGID_26_" y1="695" y2="802.256" gradientUnits="userSpaceOnUse" x2="0">
<stop offset="0" stop-color="#009f00"/>
<stop offset="1" stop-color="#ff0"/>
</linearGradient>
<linearGradient gradientTransform="matrix(.9777 -.2098 .2098 .9777 -501.9264 53.9037)" id="SVGID_27_" y1="694.939" y2="802.187" gradientUnits="userSpaceOnUse" x2="0">
<stop offset="0" stop-color="#009f00"/>
<stop offset="1" stop-color="#ff0"/>
</linearGradient>
<linearGradient gradientTransform="matrix(.9777 -.2098 .2098 .9777 -501.9264 53.9037)" id="SVGID_29_" y1="694.949" y2="802.193" gradientUnits="userSpaceOnUse" x2="0">
<stop offset="0" stop-color="#009f00"/>
<stop offset="1" stop-color="#ff0"/>
</linearGradient>
<linearGradient gradientTransform="matrix(.9777 -.2098 .2098 .9777 -501.9264 53.9037)" id="SVGID_34_" y1="694.981" y2="802.204" gradientUnits="userSpaceOnUse" x2="0">
<stop offset="0" stop-color="#009f00"/>
<stop offset="1" stop-color="#ff0"/>
</linearGradient>
<linearGradient gradientTransform="matrix(.9777 -.2098 .2098 .9777 -501.9264 53.9037)" id="SVGID_30_" y1="694.935" y2="802.206" gradientUnits="userSpaceOnUse" x2="0">
<stop offset="0" stop-color="#009f00"/>
<stop offset="1" stop-color="#ff0"/>
</linearGradient>
<linearGradient gradientTransform="matrix(.9777 -.2098 .2098 .9777 -501.9264 53.9037)" id="SVGID_33_" y1="694.965" y2="802.212" gradientUnits="userSpaceOnUse" x2="0">
<stop offset="0" stop-color="#009f00"/>
<stop offset="1" stop-color="#ff0"/>
</linearGradient>
<linearGradient gradientTransform="matrix(.9777 -.2098 .2098 .9777 -501.9264 53.9037)" id="SVGID_31_" y1="694.947" y2="802.207" gradientUnits="userSpaceOnUse" x2="0">
<stop offset="0" stop-color="#009f00"/>
<stop offset="1" stop-color="#ff0"/>
</linearGradient>
<linearGradient gradientTransform="matrix(.9777 -.2098 .2098 .9777 -501.9264 53.9037)" id="SVGID_32_" y1="694.947" y2="802.217" gradientUnits="userSpaceOnUse" x2="0">
<stop offset="0" stop-color="#009f00"/>
<stop offset="1" stop-color="#ff0"/>
</linearGradient>
<linearGradient gradientTransform="matrix(.9777 -.2098 .2098 .9777 -501.9264 53.9037)" id="SVGID_25_" y1="694.998" y2="802.264" gradientUnits="userSpaceOnUse" x2="0">
<stop offset="0" stop-color="#009f00"/>
<stop offset="1" stop-color="#ff0"/>
</linearGradient>
<linearGradient gradientTransform="matrix(.9777 -.2098 .2098 .9777 -501.9264 53.9037)" id="SVGID_24_" y1="694.996" y2="802.239" gradientUnits="userSpaceOnUse" x2="0">
<stop offset="0" stop-color="#009f00"/>
<stop offset="1" stop-color="#ff0"/>
</linearGradient>
<linearGradient gradientTransform="matrix(.9777 -.2098 .2098 .9777 -501.9264 53.9037)" id="SVGID_17_" y1="695.039" y2="802.142" gradientUnits="userSpaceOnUse" x2="0">
<stop offset="0" stop-color="#009f00"/>
<stop offset="1" stop-color="#ff0"/>
</linearGradient>
<linearGradient gradientTransform="matrix(.9777 -.2098 .2098 .9777 -501.9264 53.9037)" id="SVGID_15_" y1="695.065" y2="802.127" gradientUnits="userSpaceOnUse" x2="0">
<stop offset="0" stop-color="#009f00"/>
<stop offset="1" stop-color="#ff0"/>
</linearGradient>
<linearGradient gradientTransform="matrix(.9777 -.2098 .2098 .9777 -501.9264 53.9037)" id="SVGID_16_" y1="695.062" y2="802.122" gradientUnits="userSpaceOnUse" x2="0">
<stop offset="0" stop-color="#009f00"/>
<stop offset="1" stop-color="#ff0"/>
</linearGradient>
<linearGradient gradientTransform="matrix(.9777 -.2098 .2098 .9777 -501.9264 53.9037)" id="SVGID_18_" y1="695.012" y2="802.065" gradientUnits="userSpaceOnUse" x2="0">
<stop offset="0" stop-color="#009f00"/>
<stop offset="1" stop-color="#ff0"/>
</linearGradient>
<linearGradient gradientTransform="matrix(.9777 -.2098 .2098 .9777 -501.9264 53.9037)" id="SVGID_23_" y1="694.99" y2="802.239" gradientUnits="userSpaceOnUse" x2="0">
<stop offset="0" stop-color="#009f00"/>
<stop offset="1" stop-color="#ff0"/>
</linearGradient>
<linearGradient gradientTransform="matrix(.9777 -.2098 .2098 .9777 -501.9264 53.9037)" id="SVGID_19_" y1="695.006" y2="802.089" gradientUnits="userSpaceOnUse" x2="0">
<stop offset="0" stop-color="#009f00"/>
<stop offset="1" stop-color="#ff0"/>
</linearGradient>
<linearGradient gradientTransform="matrix(.9777 -.2098 .2098 .9777 -501.9264 53.9037)" id="SVGID_22_" y1="694.99" y2="802.228" gradientUnits="userSpaceOnUse" x2="0">
<stop offset="0" stop-color="#009f00"/>
<stop offset="1" stop-color="#ff0"/>
</linearGradient>
<linearGradient gradientTransform="matrix(.9777 -.2098 .2098 .9777 -501.9264 53.9037)" id="SVGID_20_" y1="694.986" y2="802.212" gradientUnits="userSpaceOnUse" x2="0">
<stop offset="0" stop-color="#009f00"/>
<stop offset="1" stop-color="#ff0"/>
</linearGradient>
<linearGradient gradientTransform="matrix(.9777 -.2098 .2098 .9777 -501.9264 53.9037)" id="SVGID_21_" y1="694.992" y2="802.205" gradientUnits="userSpaceOnUse" x2="0">
<stop offset="0" stop-color="#009f00"/>
<stop offset="1" stop-color="#ff0"/>
</linearGradient>
</defs>
<path fill="url(#SVGID_1_)" d="m270.081,628.432c-16.113,10.006-11.795,13.508-11.742,13.518 1.569,1.001-1.146-1.553 13.992-10.671 15.854-9.563 19.361-7.437 18.403-9.21 .272-.153-3.855-4.083-20.653,6.363z"/>
<path fill="url(#SVGID_2_)" d="m267.679,624.139c-14.19,8.893-10.669,12.133-10.562,12.166 1.42,.91-.84-1.342 12.647-9.549 14.51-8.836 18.003-7.854 17.097-9.492 .248-.145-3.784-2.782-19.182,6.875z"/>
<path fill="url(#SVGID_3_)" d="m265.268,619.842c-12.283,7.771-9.524,10.761-9.366,10.823 1.258,.806-.552-1.155 11.291-8.429 13.235-8.137 16.432-7.119 15.594-8.631 .244-.124-3.455-2.654-17.519,6.237z"/>
<path fill="url(#SVGID_4_)" d="m262.991,616.133c-10.376,6.617-8.395,9.377-8.188,9.467 1.118,.705-.259-.967 9.947-7.311 11.957-7.438 14.86-6.379 14.093-7.764 .234-.101-3.124-2.515-15.852,5.608z"/>
<path fill="url(#SVGID_5_)" d="m262.317,614.35c10.671-6.738 13.288-5.654 12.586-6.91 .226-.082-2.793-2.381-14.18,4.974-8.487,5.483-7.26,7.998-7.015,8.122 .966,.599 .039-.776 8.609-6.186z"/>
<path fill="url(#SVGID_6_)" d="m260.009,610.98c9.386-6.042 11.713-4.936 11.084-6.052 .204-.067-2.461-2.242-12.514,4.341-6.598,4.326-6.127,6.613-5.84,6.768 .817,.498 .327-.59 7.27-5.057z"/>
<path fill="url(#SVGID_7_)" d="m257.84,608.178c8.095-5.328 10.13-4.188 9.563-5.18 .211-.049-2.121-2.113-10.83,3.709-4.735,3.162-5.009,5.227-4.683,5.404 .677,.403 .605-.412 5.95-3.933z"/>
<path fill="url(#SVGID_8_)" d="m281.577,686.361c-13.625,10.148-11.453,11.906-11.163,12.094 1.178,.91 .11-.188 13.241-9.411 13.474-9.468 29.677-9.98 29.36-10.896 .099-.982-16.933-1.586-31.438,8.213z"/>
<path fill="url(#SVGID_9_)" d="m281.025,679.701c-14.513,10.852-12.14,12.744-11.866,12.951 1.253,.963-.028-.297 13.994-10.102 14.378-10.047 30.421-10.588 30.078-11.643 .13-.932-16.664-1.509-32.206,8.794z"/>
<path fill="url(#SVGID_10_)" d="m279.869,674.008c-14.976,10.283-12.204,12.713-11.943,12.904 1.265,.986-.101-.393 14.05-10.033 14.505-9.871 29.255-10.303 28.871-11.451 .141-.84-15.59-1.985-30.978,8.58z"/>
<path fill="url(#SVGID_11_)" d="m278.713,668.316c-15.139,10.124-12.27,12.697-12.02,12.859 1.281,1.002-.185-.508 14.106-9.975 14.635-9.689 28.075-10.01 27.662-11.256 .159-.737-14.211-2.02-29.748,8.372z"/>
<path fill="url(#SVGID_12_)" d="m277.57,662.624c-15.32,9.966-12.336,12.659-12.11,12.817 1.293,1.011-.264-.628 14.164-9.908 14.774-9.508 26.899-9.742 26.456-11.068 .172-.649-12.809-2.047-28.51,8.159z"/>
<path fill="url(#SVGID_13_)" d="m276.424,656.937c-15.498,9.774-12.408,12.63-12.197,12.769 1.311,1.031-.341-.752 14.234-9.842 14.915-9.299 25.711-9.467 25.236-10.875 .193-.562-11.393-2.067-27.273,7.948z"/>
<path fill="url(#SVGID_14_)" d="m275.282,651.264c-15.686,9.582-12.48,12.596-12.284,12.711 1.32,1.041-.437-.881 14.292-9.77 15.076-9.104 24.536-9.219 24.022-10.699 .202-.475-9.97-2.065-26.03,7.758z"/>
<path fill="url(#SVGID_15_)" d="m274.154,645.586c-15.887,9.377-12.571,12.553-12.394,12.648 1.343,1.06-.519-1.02 14.375-9.693 15.247-8.883 23.347-8.949 22.792-10.521 .226-.383-8.511-2.041-24.773,7.566z"/>
<path fill="url(#SVGID_16_)" d="m273.031,639.912c-16.088,9.162-12.662,12.511-12.499,12.588 1.357,1.082-.604-1.155 14.445-9.603 15.426-8.658 22.163-8.716 21.563-10.354 .243-.311-7.036-2.012-23.509,7.369z"/>
<path fill="url(#SVGID_17_)" d="m271.914,634.234c-16.295,8.941-12.764,12.482-12.615,12.529 1.377,1.103-.686-1.312 14.524-9.516 15.626-8.418 20.974-8.494 20.338-10.191 .252-.239-5.545-1.974-22.247,7.178z"/>
<path fill="url(#SVGID_18_)" d="m261.909,602.174c-.206-.594-4.107-.513-7.202,1.744-3.114,2.238-3.849,4.949-3.354,5.137 .537,.273 1.986-1.716 4.831-3.59 2.813-1.911 5.999-2.721 5.725-3.291z"/>
<path fill="url(#SVGID_19_)" d="m256.861,600.031c-.566-.598-3.579-.027-5.23,2.023-1.664,2.016-1.382,3.852-.854,3.918 .58,.121 1.319-1.303 3.047-2.865 1.698-1.56 3.656-2.524 3.037-3.076z"/>
<path fill="url(#SVGID_20_)" d="m240.298,634.814c18.805,2.52 16.31,7.484 16.266,7.518-1.017,1.547 .408-1.888-17.139-4.006-18.396-2.219-20.714,1.154-20.57-.857-.312-.033 1.833-5.295 21.443-2.655z"/>
<path fill="url(#SVGID_21_)" d="m240.729,629.912c16.593,2.295 14.717,6.699 14.63,6.771-.921,1.403 .211-1.572-15.455-3.531-16.866-2.109-19.644,.215-19.49-1.654-.288-.023 2.308-4.082 20.315-1.586z"/>
<path fill="url(#SVGID_22_)" d="m241.166,625.012c14.391,2.045 13.104,5.902 12.989,6.031-.825,1.246 .024-1.279-13.762-3.066-15.417-1.992-17.912,.244-17.763-1.484-.277-.011 2.059-3.835 18.536-1.481z"/>
<path fill="url(#SVGID_23_)" d="m241.713,620.689c12.184,1.787 11.512,5.117 11.358,5.279-.725,1.098-.159-.982-12.078-2.587-13.953-1.884-16.165,.269-16.035-1.308-.26,.001 1.813-3.579 16.755-1.384z"/>
<path fill="url(#SVGID_24_)" d="m241.599,618.787c-12.5-1.768-14.438,.287-14.313-1.145-.245,.018 1.564-3.312 14.971-1.275 9.994,1.523 9.908,4.322 9.735,4.537-.638,.94-.356-.689-10.393-2.117z"/>
<path fill="url(#SVGID_25_)" d="m242.318,614.768c-11.041-1.66-12.706,.301-12.591-.975-.216,.023 1.319-3.053 13.19-1.164 7.792,1.236 8.306,3.518 8.108,3.777-.541,.785-.541-.408-8.707-1.638z"/>
<path fill="url(#SVGID_26_)" d="m243.144,611.33c-9.568-1.547-10.955,.33-10.85-.814-.211,.043 1.07-2.793 11.401-1.049 5.618,.943 6.717,2.721 6.492,3.008-.451,.648-.724-.123-7.043-1.145z"/>
<path fill="url(#SVGID_27_)" d="m253.618,692.35c16.597,3.676 15.337,6.162 15.147,6.459-.695,1.312-.177-.129-15.935-3.162-16.185-3.109-31.17,3.057-31.256,2.094-.493-.858 14.784-8.386 32.044-5.391z"/>
<path fill="url(#SVGID_28_)" d="m251.387,686.055c17.691,3.953 16.31,6.645 16.144,6.947-.751,1.389-.096-.283-16.911-3.475-17.245-3.277-32.096,2.804-32.216,1.701-.505-.799 14.572-8.207 32.983-5.173z"/>
<path fill="url(#SVGID_29_)" d="m250.101,680.387c17.883,3.242 16.357,6.592 16.194,6.875-.746,1.414-.069-.408-16.934-3.393-17.283-3.062-30.915,2.582-31.035,1.381-.474-.701 13.403-8.199 31.775-4.863z"/>
<path fill="url(#SVGID_30_)" d="m248.814,674.723c17.97,3.033 16.405,6.549 16.247,6.799-.758,1.441-.038-.531-16.962-3.316-17.326-2.84-29.716,2.377-29.85,1.068-.45-.614 12.126-7.667 30.565-4.551z"/>
<path fill="url(#SVGID_31_)" d="m247.524,669.064c18.061,2.807 16.45,6.492 16.304,6.727-.763,1.451-.012-.676-16.985-3.234-17.38-2.616-28.535,2.137-28.675,.738-.422-.514 10.84-7.111 29.356-4.231z"/>
<path fill="url(#SVGID_32_)" d="m246.224,663.41c18.156,2.562 16.511,6.435 16.377,6.645-.772,1.477 .004-.823-17.024-3.146-17.428-2.377-27.346,1.896-27.484,.421-.405-.432 9.538-6.551 28.131-3.92z"/>
<path fill="url(#SVGID_33_)" d="m244.938,657.766c18.243,2.314 16.563,6.373 16.43,6.555-.782,1.494 .033-.978-17.049-3.053-17.489-2.123-26.16,1.653-26.304,.086-.379-.344 8.243-5.965 26.923-3.588z"/>
<path fill="url(#SVGID_34_)" d="m243.633,652.121c18.339,2.051 16.631,6.301 16.501,6.463-.787,1.516 .053-1.145-17.087-2.951-17.557-1.85-24.975,1.404-25.113-.254-.361-.258 6.923-5.357 25.699-3.258z"/>
<path fill="url(#SVGID_35_)" d="m242.327,646.491c18.436,1.769 16.688,6.224 16.573,6.358-.791,1.553 .072-1.303-17.12-2.836-17.624-1.577-23.79,1.13-23.924-.614-.34-.186 5.595-4.719 24.471-2.908z"/>
<path fill="url(#SVGID_36_)" d="m241.018,640.856c18.531,1.48 16.765,6.157 16.646,6.253-.797,1.572 .091-1.477-17.154-2.717-17.705-1.279-22.614,.844-22.729-.969-.333-.113 4.24-4.075 23.237-2.567z"/>
<path fill="url(#SVGID_37_)" d="m236.963,607.516c-.048-.627 3.541-2.146 7.289-1.355 3.762,.762 5.542,2.938 5.167,3.311-.374,.465-2.514-.752-5.882-1.299-3.345-.585-6.584-.019-6.574-.657z"/>
<path fill="url(#SVGID_38_)" d="m240.691,603.496c.273-.771 3.253-1.49 5.6-.297 2.347,1.154 2.841,2.947 2.39,3.229-.485,.346-1.737-.656-3.954-1.369-2.188-.734-4.372-.801-4.036-1.563z"/>
<path fill="url(#SVGID_39_)" d="m248.205,598.873c.907-.145 1.594,1.326 1.483,2.572-.115,1.266-.346,2.223-.523,2.291-.196,.014-.811-.748-1.392-1.902-.585-1.137-.469-2.799 .432-2.961z"/>
<path fill="url(#SVGID_40_)" d="m344.118,698.736c-14.462-2.965-13.905,1.318-13.877,1.352 .351,1.404 .185-1.49 13.617,1.462 14.078,3.081 14.918,6.151 15.326,4.644 .238,.052 .015-4.366-15.066-7.458z"/>
<path fill="url(#SVGID_41_)" d="m345.063,695.033c-12.778-2.572-12.528,1.141-12.49,1.217 .316,1.27 .249-1.207 12.265,1.371 12.926,2.773 14.373,5.199 14.74,3.785 .221,.053-.645-3.59-14.515-6.373z"/>
<path fill="url(#SVGID_42_)" d="m346.006,691.314c-11.101-2.184-11.146,.982-11.091,1.104 .278,1.125 .307-.949 10.896,1.279 11.828,2.486 13.09,4.768 13.426,3.463 .204,.063-.525-3.34-13.231-5.846z"/>
<path fill="url(#SVGID_43_)" d="m346.709,688.004c-9.402-1.811-9.765,.805-9.697,.969 .254,.991 .374-.686 9.534,1.188 10.738,2.199 11.809,4.346 12.12,3.158 .188,.066-.412-3.091-11.957-5.315z"/>
<path fill="url(#SVGID_44_)" d="m347.285,686.639c9.637,1.906 10.536,3.91 10.81,2.826 .173,.078-.297-2.836-10.669-4.771-7.731-1.441-8.39,.633-8.317,.834 .225,.852 .439-.423 8.176,1.111z"/>
<path fill="url(#SVGID_45_)" d="m347.791,683.506c8.538,1.604 9.258,3.473 9.5,2.51 .149,.072-.185-2.588-9.393-4.24-6.045-1.088-7,.455-6.921,.695 .19,.713 .502-.159 6.814,1.035z"/>
<path fill="url(#SVGID_46_)" d="m348.066,680.76c7.428,1.322 7.966,3.053 8.179,2.189 .145,.086-.064-2.324-8.102-3.693-4.371-.748-5.633,.268-5.547,.545 .169,.59 .567,.092 5.47,.959z"/>
<path fill="url(#SVGID_47_)" d="m319.541,737.582c-13.133-1.553-12.85,.594-12.787,.861 .178,1.141 .163-.047 12.519,1.764 12.685,1.863 22.105,10.24 22.418,9.551 .58-.504-8.705-9.953-22.15-12.176z"/>
<path fill="url(#SVGID_48_)" d="m322.799,733.527c-14.011-1.633-13.687,.705-13.641,.963 .191,1.218 .139-.176 13.314,1.788 13.505,2.017 22.85,10.288 23.224,9.513 .572-.461-8.6-9.768-22.897-12.264z"/>
<path fill="url(#SVGID_49_)" d="m325.198,729.699c-13.968-2.203-13.706,.646-13.66,.896 .187,1.236 .155-.277 13.312,1.85 13.476,2.185 22.036,9.826 22.437,8.975 .53-.393-7.732-9.459-22.089-11.721z"/>
<path fill="url(#SVGID_50_)" d="m327.6,725.867c-13.975-2.383-13.734,.604-13.677,.828 .182,1.25 .163-.379 13.308,1.916 13.457,2.354 21.211,9.363 21.647,8.438 .489-.33-6.932-8.738-21.278-11.182z"/>
<path fill="url(#SVGID_51_)" d="m330.006,722.043c-13.986-2.568-13.752,.551-13.708,.757 .191,1.261 .187-.493 13.306,1.983 13.439,2.535 20.409,8.889 20.872,7.896 .443-.267-6.132-8.001-20.47-10.636z"/>
<path fill="url(#SVGID_52_)" d="m332.41,718.225c-13.989-2.775-13.775,.492-13.732,.68 .187,1.284 .211-.608 13.314,2.056 13.407,2.726 19.592,8.404 20.076,7.36 .409-.217-5.326-7.26-19.658-10.096z"/>
<path fill="url(#SVGID_53_)" d="m334.81,714.405c-13.992-2.976-13.8,.437-13.752,.608 .189,1.289 .226-.732 13.308,2.127 13.39,2.924 18.79,7.916 19.296,6.805 .364-.154-4.52-6.492-18.852-9.54z"/>
<path fill="url(#SVGID_54_)" d="m337.218,710.596c-13.996-3.195-13.833,.369-13.78,.518 .187,1.312 .259-.854 13.311,2.214 13.367,3.144 17.981,7.432 18.509,6.248 .333-.097-3.707-5.707-18.04-8.98z"/>
<path fill="url(#SVGID_55_)" d="m339.624,706.797c-13.994-3.426-13.854,.291-13.802,.422 .183,1.336 .275-.979 13.301,2.305 13.349,3.363 17.183,6.933 17.725,5.682 .304-.044-2.894-4.897-17.224-8.409z"/>
<path fill="url(#SVGID_56_)" d="m342.038,702.992c-13.992-3.666-13.894,.225-13.836,.326 .183,1.359 .314-1.107 13.296,2.4 13.337,3.604 16.396,6.42 16.947,5.121 .272,.001-2.068-4.081-16.407-7.847z"/>
<path fill="url(#SVGID_57_)" d="m353.585,679.547c.204-.445-2.044-2.486-5.005-2.865-2.953-.406-4.822,.738-4.643,1.107 .154,.441 2.037,.091 4.652,.556 2.611,.426 4.845,1.673 4.996,1.202z"/>
<path fill="url(#SVGID_58_)" d="m351.887,675.637c-.003-.637-2.009-1.926-4.041-1.652-2.02,.25-2.845,1.434-2.583,1.758 .266,.375 1.446-.033 3.26,.01 1.794,.023 3.414,.526 3.364-.116z"/>
<path fill="url(#SVGID_59_)" d="m323.884,686.414c9.261,11.48 5.194,12.945 5.148,12.941-1.403,.336 1.24-.844-7.526-11.424-9.195-11.086-12.31-10.43-11.153-11.484-.157-.187 3.876-2.011 13.531,9.967z"/>
<path fill="url(#SVGID_60_)" d="m326.758,683.879c8.128,10.172 4.712,11.648 4.623,11.648-1.273,.297 .962-.777-6.83-10.26-8.388-10.209-11.202-10.387-10.115-11.359-.147-.168 3.493-1.068 12.322,9.971z"/>
<path fill="url(#SVGID_61_)" d="m329.632,681.344c7.022,8.85 4.228,10.346 4.096,10.35-1.135,.269 .7-.709-6.125-9.084-7.635-9.367-10.24-9.444-9.232-10.34-.149-.155 3.219-1.059 11.261,9.074z"/>
<path fill="url(#SVGID_62_)" d="m332.257,679.203c5.916,7.521 3.752,9.035 3.579,9.051-1,.229 .439-.643-5.427-7.92-6.866-8.525-9.271-8.496-8.354-9.315-.146-.14 2.942-1.05 10.202,8.184z"/>
<path fill="url(#SVGID_63_)" d="m333.214,678.066c-6.11-7.686-8.304-7.565-7.469-8.303-.144-.121 2.661-1.035 9.136,7.287 4.82,6.201 3.272,7.734 3.062,7.762-.864,.193 .17-.574-4.729-6.746z"/>
<path fill="url(#SVGID_64_)" d="m335.773,676.18c-5.345-6.838-7.336-6.627-6.588-7.283-.132-.102 2.385-1.016 8.075,6.396 3.733,4.867 2.8,6.43 2.548,6.469-.723,.152-.085-.524-4.035-5.582z"/>
<path fill="url(#SVGID_65_)" d="m338.084,674.68c-4.575-5.984-6.362-5.668-5.688-6.264-.144-.086 2.102-1 7.001,5.506 2.66,3.541 2.332,5.127 2.044,5.176-.598,.119-.337-.461-3.357-4.418z"/>
<path fill="url(#SVGID_66_)" d="m300.545,726.016c7.403,10.947 5.354,11.682 5.091,11.743-1.102,.368-.033-.167-7.303-10.306-7.469-10.408-19.231-14.94-18.762-15.529 .178-.753 12.841,3.172 20.974,14.092z"/>
<path fill="url(#SVGID_67_)" d="m302.661,721.267c7.869,11.69 5.643,12.472 5.389,12.554-1.166,.383 .091-.206-7.683-11.002-7.975-11.072-19.62-15.581-19.092-16.271 .144-.72 12.624,3.161 21.386,14.719z"/>
<path fill="url(#SVGID_68_)" d="m304.979,717.381c8.354,11.395 5.693,12.467 5.451,12.539-1.179,.402 .177-.264-7.74-10.973-8.113-10.967-18.833-15.064-18.257-15.812 .11-.651 11.962,2.541 20.546,14.246z"/>
<path fill="url(#SVGID_69_)" d="m307.286,713.494c8.518,11.322 5.751,12.473 5.528,12.53-1.2,.407 .264-.325-7.798-10.944-8.258-10.866-18.046-14.551-17.42-15.355 .07-.59 10.953,2.156 19.69,13.769z"/>
<path fill="url(#SVGID_70_)" d="m309.597,709.609c8.688,11.245 5.804,12.463 5.593,12.516-1.205,.412 .354-.389-7.853-10.906-8.406-10.771-17.252-14.053-16.58-14.916 .035-.518 9.931,1.783 18.84,13.306z"/>
<path fill="url(#SVGID_71_)" d="m311.893,705.729c8.872,11.154 5.868,12.457 5.682,12.5-1.229,.427 .443-.459-7.922-10.877-8.567-10.656-16.456-13.549-15.741-14.46 .002-.46 8.893,1.409 17.981,12.837z"/>
<path fill="url(#SVGID_72_)" d="m314.196,701.847c9.057,11.063 5.931,12.458 5.755,12.491-1.24,.422 .542-.537-7.986-10.843-8.733-10.551-15.652-13.058-14.892-14.015-.028-.398 7.853,1.045 17.123,12.367z"/>
<path fill="url(#SVGID_73_)" d="m316.482,697.971c9.253,10.963 6.01,12.447 5.847,12.467-1.253,.437 .647-.617-8.062-10.805-8.915-10.431-14.846-12.562-14.034-13.568-.067-.341 6.78,.674 16.249,11.906z"/>
<path fill="url(#SVGID_74_)" d="m318.769,694.09c9.457,10.857 6.079,12.443 5.942,12.457-1.276,.445 .741-.699-8.143-10.762-9.104-10.311-14.032-12.084-13.174-13.138-.095-.288 5.687,.332 15.375,11.443z"/>
<path fill="url(#SVGID_75_)" d="m321.048,690.213c9.669,10.742 6.163,12.439 6.043,12.43-1.293,.459 .843-.786-8.224-10.709-9.309-10.191-13.217-11.615-12.312-12.703-.127-.239 4.58-.024 14.493,10.982z"/>
<path fill="url(#SVGID_76_)" d="m336.638,669.227c.312-.383 3.152,.68 4.844,3.129 1.715,2.439 1.552,4.623 1.145,4.633-.466,.062-1.018-1.768-2.627-3.875-1.578-2.124-3.708-3.538-3.362-3.887z"/>
<path fill="url(#SVGID_77_)" d="m340.898,668.949c.57-.288 2.637,.896 3.32,2.826 .705,1.907 .023,3.182-.384,3.1-.456-.062-.629-1.298-1.497-2.889-.841-1.581-2.033-2.789-1.439-3.037z"/>
<path fill="url(#SVGID_78_)" d="m347.62,670.353c.586,.412 .188,1.604-.547,2.252-.736,.647-1.384,1.063-1.521,1.007-.12-.096-.058-.854 .235-1.812 .281-.958 1.236-1.831 1.833-1.447z"/>
<path fill="#3c140a" d="m299.129,668.781h-98.268v36.799h56.504v2.236c14.74-.014 29.48-.162 41.764-1.418v-37.617z"/>
<path fill="url(#SVGID_79_)" d="m299.446,735.943 121.281-19.521-191.988,145.705z"/>
<path fill="url(#SVGID_80_)" d="m299.446,735.943 121.905,15.17-192.612,111.014"/>
<path fill="url(#SVGID_81_)" d="m299.446,735.943 122.529,49.856-193.236,76.328"/>
<path fill="url(#SVGID_82_)" d="m299.446,735.943 123.148,84.546-193.855,41.638"/>
<path fill="url(#SVGID_83_)" d="m281.933,724.117c-90.898-58.532-198.358-60.756-208.4-50.703-11.687,11.705 112.589,35.093 208.4,126.912v-76.209z"/>
<path fill="url(#SVGID_84_)" d="m281.933,811.533v-57.827c-95.812-69.587-214.729-72.75-225.387-62.085-11.885,11.902 116.826,35.879 212.933,131.6 .127,.119 .478-.092 .478-.092l11.976-11.596z"/>
<path fill="url(#SVGID_85_)" d="m281.933,813.254v-28.212c-95.812-82.294-230.564-86.516-241.852-75.212-11.886,11.901 116.828,35.879 212.933,131.598 .124,.119 .479-.091 .479-.091l28.44-28.083z"/>
<path fill="url(#SVGID_86_)" d="m236.373,859.545l42.724-42.779c0,0 .514,.514 .386,.389-96.102-95.715-244.495-101.023-256.39-89.117-11.886,11.902 117.089,35.879 213.193,131.598 .125,.12 .087-.091 .087-.091z"/>
<g fill="#3c140a">
<path d="m257.365,707.816v12.271 76.617c0,6.827-.988,12.391-3.416,16.717 12.051,12.226 37.051-10.046 45.18-25.39v-67.943-13.689c-12.343-8.708-27.798-7.104-41.764,1.417z"/>
<path d="m253.949,813.422c-.883,1.572-1.694,2.994-2.841,4.236-1.91,2.069-3.992,3.65-6.324,4.801-2.922,1.438-6.069,2.18-9.424,2.18-12.619,0-24.683-6.205-36.203-18.619l-22.244,30.674c17.183,17.715 37.234,26.569 60.28,26.569 1.354,0 2.648-.097 3.963-.158 16.636-.767 29.999-6.329 40.93-16.827 11.799-11.318 17.043-28.391 17.043-51.217v-7.029c-14.74,7.632-28.439,19.544-45.18,25.39z"/>
</g>
<path fill="none" d="m.5,512.5h512v512h-512z"/>
</svg>
