
<svg width="512" xmlns="http://www.w3.org/2000/svg" height="512" viewBox="0.5 512.5 512 512" xmlns:xlink="http://www.w3.org/1999/xlink" enable-background="new 0.5 512.5 512 512">
<defs>
<linearGradient gradientTransform="matrix(-.5977 -.7447 .782 -.6275 1280.6063 9108.5361)" id="SVGID_7_" y1="4517.236" x1="7496.17" y2="4393.708" gradientUnits="userSpaceOnUse" x2="7424.851">
<stop offset="0" stop-color="#f0f"/>
<stop offset=".157" stop-color="#ff3dc2"/>
<stop offset=".324" stop-color="#f78"/>
<stop offset=".487" stop-color="#ffa857"/>
<stop offset=".64" stop-color="#ffce31"/>
<stop offset=".78" stop-color="#ffe916"/>
<stop offset=".905" stop-color="#fff906"/>
<stop offset="1" stop-color="#ff0"/>
</linearGradient>
<linearGradient gradientTransform="matrix(-.5977 -.7447 .782 -.6275 1280.6063 9108.5361)" id="SVGID_6_" y1="4539.255" x1="7520.768" y2="4415.726" gradientUnits="userSpaceOnUse" x2="7449.448">
<stop offset="0" stop-color="#f0f"/>
<stop offset=".157" stop-color="#ff3dc2"/>
<stop offset=".324" stop-color="#f78"/>
<stop offset=".487" stop-color="#ffa857"/>
<stop offset=".64" stop-color="#ffce31"/>
<stop offset=".78" stop-color="#ffe916"/>
<stop offset=".905" stop-color="#fff906"/>
<stop offset="1" stop-color="#ff0"/>
</linearGradient>
<linearGradient gradientTransform="matrix(-.5977 -.7447 .782 -.6275 1280.6063 9108.5361)" id="SVGID_8_" y1="4495.221" x1="7471.577" y2="4371.697" gradientUnits="userSpaceOnUse" x2="7400.26">
<stop offset="0" stop-color="#f0f"/>
<stop offset=".157" stop-color="#ff3dc2"/>
<stop offset=".324" stop-color="#f78"/>
<stop offset=".487" stop-color="#ffa857"/>
<stop offset=".64" stop-color="#ffce31"/>
<stop offset=".78" stop-color="#ffe916"/>
<stop offset=".905" stop-color="#fff906"/>
<stop offset="1" stop-color="#ff0"/>
</linearGradient>
<linearGradient gradientTransform="matrix(-.5977 -.7447 .782 -.6275 1280.6063 9108.5361)" id="SVGID_5_" y1="4561.27" x1="7545.355" y2="4437.744" gradientUnits="userSpaceOnUse" x2="7474.038">
<stop offset="0" stop-color="#f0f"/>
<stop offset=".157" stop-color="#ff3dc2"/>
<stop offset=".324" stop-color="#f78"/>
<stop offset=".487" stop-color="#ffa857"/>
<stop offset=".64" stop-color="#ffce31"/>
<stop offset=".78" stop-color="#ffe916"/>
<stop offset=".905" stop-color="#fff906"/>
<stop offset="1" stop-color="#ff0"/>
</linearGradient>
<linearGradient gradientTransform="matrix(-.5977 -.7447 .782 -.6275 1280.6063 9108.5361)" id="SVGID_4_" y1="4583.283" x1="7569.949" y2="4459.757" gradientUnits="userSpaceOnUse" x2="7498.631">
<stop offset="0" stop-color="#f0f"/>
<stop offset=".157" stop-color="#ff3dc2"/>
<stop offset=".324" stop-color="#f78"/>
<stop offset=".487" stop-color="#ffa857"/>
<stop offset=".64" stop-color="#ffce31"/>
<stop offset=".78" stop-color="#ffe916"/>
<stop offset=".905" stop-color="#fff906"/>
<stop offset="1" stop-color="#ff0"/>
</linearGradient>
<linearGradient gradientTransform="matrix(.8555 -.5178 .5178 .8555 -2194.9771 1916.074)" id="SVGID_1_" y1="406.535" x1="2586.839" y2="324.698" gradientUnits="userSpaceOnUse" x2="2636.377">
<stop offset="0" stop-color="#0ff"/>
<stop offset="1" stop-color="#00ae00"/>
</linearGradient>
<linearGradient gradientTransform="matrix(.8555 -.5178 .5178 .8555 -2194.9771 1916.074)" id="SVGID_3_" y1="364.562" x1="2612.246" y2="310.338" gradientUnits="userSpaceOnUse" x2="2645.069">
<stop offset="0" stop-color="#0ff"/>
<stop offset="1" stop-color="#00ae00"/>
</linearGradient>
<linearGradient gradientTransform="matrix(.8555 -.5178 .5178 .8555 -2194.9771 1916.074)" id="SVGID_2_" y1="385.548" x1="2599.543" y2="324.698" gradientUnits="userSpaceOnUse" x2="2636.377">
<stop offset="0" stop-color="#0ff"/>
<stop offset="1" stop-color="#00ae00"/>
</linearGradient>
</defs>
<path fill="url(#SVGID_1_)" d="m320.017,858.549-120.64,65.849-62.251-95.666"/>
<path fill="url(#SVGID_2_)" d="m320.017,858.549-120.64,41.316-62.251-71.133"/>
<path fill="url(#SVGID_3_)" d="m320.017,858.549-120.64,16.785-62.251-46.602 120.635-16.779z"/>
<path fill="#3c140a" d="m322.738,668.783v106.154c0,15.338-2.995,27.438-10.024,36.291-3.263,4.115-6.914,7.23-11.197,9.434 1.634,13.297 3.263,26.492 3.828,39.885 14.974-3.129 27.661-9.879 38.385-20.287 15.342-14.877 23.166-36.195 23.166-63.955v-107.522h-44.158z"/>
<path fill="url(#SVGID_4_)" d="m265.547,718.279c38.035-30.527 155.457-81.291 144.57-94.857-10.891-13.578-145.96,15.199-183.999,45.727"/>
<path fill="url(#SVGID_5_)" d="m263.026,750.406c38.04-30.521 155.462-81.287 144.575-94.857-10.896-13.568-145.964,15.203-183.999,45.73"/>
<path fill="url(#SVGID_6_)" d="m260.512,782.537c38.039-30.516 155.461-81.287 144.569-94.861-10.891-13.568-145.954,15.209-183.999,45.73"/>
<path fill="url(#SVGID_7_)" d="m257.996,814.668c38.039-30.521 155.456-81.291 144.57-94.859-10.892-13.57-145.96,15.203-184,45.729"/>
<path fill="url(#SVGID_8_)" d="m255.48,846.795c38.034-30.516 155.456-81.287 144.565-94.855-10.892-13.57-145.955,15.203-183.994,45.725"/>
<g fill="#3c140a">
<path d="m284.612,824.51c-12.051,0-22.033-4.422-29.158-13.281-7.12-8.854-11.222-20.953-11.222-36.291v-106.155h-41.705v107.521c0,27.574 7.839,48.848 23.272,63.82 15.424,14.975 35.093,22.459 59.014,22.459 7.201,0 14.087-.686 20.531-2.037 6.491-13.752 3.06-28.677-3.732-39.885-4.939,2.542-10.546,3.849-17,3.849z"/>
<path d="m206.833,809.422c.646,3.096 3.612,11.285 3.612,11.285l-1.888-11.553c-.144-.92-14.667-92.543-57.905-120.75-12.64-8.246-26.611-10.402-41.527-6.396l.455,1.682c14.418-3.867 27.915-1.791 40.124,6.172 42.586,27.79 56.942,118.65 57.129,119.56z"/>
<path d="m106.557,682.822c.072,1.102 1.025,1.932 2.128,1.859 1.097-.082 4.336-1.941 6.713-2.338 .369-.062-.58-1.371-1.294-1.322-2.611,.168-4.174,.982-5.635,.527-1.054-.321-1.989,.177-1.912,1.274z"/>
<path d="m210.414,820.764l1.303-.518c-.272-.695-28.063-69.73-66.932-84.037-11.36-4.178-22.673-3.359-33.621,2.443l.656,1.232c10.589-5.607 21.509-6.402 32.481-2.363 38.288,14.092 65.839,82.553 66.113,83.243z"/>
<path d="m108.723,739.754c.259,.85 1.154,1.328 1.998,1.068 .848-.254 3.043-2.289 4.835-3.023 .268-.119-.705-.967-1.251-.805-2.013,.594-3.091,1.51-4.312,1.424-.883-.066-1.524,.494-1.27,1.336z"/>
</g>
<path fill="none" d="m.5,512.5h512v512h-512z"/>
</svg>
