
<svg width="512" xmlns="http://www.w3.org/2000/svg" height="512" viewBox="0.5 512.5 512 512" xmlns:xlink="http://www.w3.org/1999/xlink" enable-background="new 0.5 512.5 512 512">
<defs>
<linearGradient gradientTransform="matrix(0 1 -1 0 7654.8457 -843.2754)" id="SVGID_7_" y1="7338.268" x1="1580.323" y2="7288.723" gradientUnits="userSpaceOnUse" x2="1691.603">
<stop offset="0" stop-color="#009f00"/>
<stop offset="1" stop-color="#ff0"/>
</linearGradient>
<linearGradient gradientTransform="matrix(0 1 -1 0 7654.8457 -843.2754)" id="SVGID_6_" y1="7338.531" x1="1601.098" y2="7288.869" gradientUnits="userSpaceOnUse" x2="1712.641">
<stop offset="0" stop-color="#009f00"/>
<stop offset="1" stop-color="#ff0"/>
</linearGradient>
<linearGradient id="SVGID_8_" x1="169.302" gradientUnits="userSpaceOnUse" x2="231.118">
<stop offset="0" stop-color="#ff0"/>
<stop offset="1" stop-color="#f00"/>
</linearGradient>
<linearGradient gradientTransform="matrix(0 1 -1 0 7654.8457 -843.2754)" id="SVGID_5_" y1="7338.34" x1="1621.672" y2="7289.09" gradientUnits="userSpaceOnUse" x2="1732.29">
<stop offset="0" stop-color="#009f00"/>
<stop offset="1" stop-color="#ff0"/>
</linearGradient>
<linearGradient gradientTransform="matrix(.5055 .8628 -.8628 .5055 5673.186 -1208.1906)" id="SVGID_4_" x1="-959.371" gradientUnits="userSpaceOnUse" x2="-835.281">
<stop offset="0" stop-color="#004eff"/>
<stop offset="1" stop-color="#0ff"/>
</linearGradient>
<linearGradient gradientTransform="matrix(.5055 .8628 -.8628 .5055 5673.186 -1208.1906)" id="SVGID_1_" x1="-902.064" gradientUnits="userSpaceOnUse" x2="-777.965">
<stop offset="0" stop-color="#004eff"/>
<stop offset="1" stop-color="#0ff"/>
</linearGradient>
<linearGradient gradientTransform="matrix(.5055 .8628 -.8628 .5055 5673.186 -1208.1906)" id="SVGID_3_" x1="-940.059" gradientUnits="userSpaceOnUse" x2="-815.961">
<stop offset="0" stop-color="#004eff"/>
<stop offset="1" stop-color="#0ff"/>
</linearGradient>
<linearGradient gradientTransform="matrix(.5055 .8628 -.8628 .5055 5673.186 -1208.1906)" id="SVGID_2_" x1="-920.75" gradientUnits="userSpaceOnUse" x2="-796.656">
<stop offset="0" stop-color="#004eff"/>
<stop offset="1" stop-color="#0ff"/>
</linearGradient>
</defs>
<path fill="url(#SVGID_1_)" d="m392.686,919.348c-6.536,16.822-20.623,42.012-9.256,70.008 0,0-37.178-21.293-17.006-86.988 4.611-14.982 20.936-59.141 20.936-59.141l30.306,9.193c-.001,0-18.086,49.185-24.98,66.928z"/>
<path fill="url(#SVGID_2_)" d="m383.228,903.229c-7.077,16.178-20.623,42.012-9.261,70.01 0,0-37.172-21.295-17-86.99 4.606-14.992 20.935-59.135 20.935-59.135l31.17,9.447c-.001,0-18.666,50.296-25.844,66.668z"/>
<path fill="url(#SVGID_3_)" d="m373.458,886.58c-7.087,16.17-20.622,42.006-9.26,70.008 0,0-37.178-21.295-17.001-86.984 4.611-14.992 20.936-59.146 20.936-59.146l33.064,12.678c-0-.001-20.565,47.071-27.739,63.444z"/>
<path fill="url(#SVGID_4_)" d="m363.689,869.92c-7.087,16.176-20.628,42.012-9.266,70.002 0,0-37.172-21.283-17-86.979 4.606-14.988 20.935-59.141 20.935-59.141l31.17,9.447c0,.001-18.666,50.294-25.839,66.671z"/>
<path fill="#3c140a" d="m285.199,778.623l-37.849-109.84h-46.361l66.932,190.352h31.817l39.158-124.409c-11.549-8.209-22.537-13.821-33.511-21.448l-20.186,65.345z"/>
<path fill="url(#SVGID_5_)" d="m410.41,811.07 19.653,0 0-83.232-213.234,132.297 193.581,0z"/>
<path fill="url(#SVGID_6_)" d="m410.41,811.07 19.653,0 0-103.892-213.234,133.332 193.581,0z"/>
<path fill="url(#SVGID_7_)" d="m410.41,811.07 19.653,0 0-124.549-213.234,131.909 193.581,0z"/>
<path fill="#3c140a" d="m435.788,668.783l-38.132,110.107-33.736-110.107h-44.706l-13.828,44.494c4.331,16.134 19.195,24.1 33.05,22.893l2.989-9.352 41.971,133.316h31.817l66.926-191.352h-46.351z"/>
<ellipse fill="url(#SVGID_8_)" cx="200.21" cy="668.246" rx="30.908" ry="30.863"/>
<g fill="#3c140a">
<path d="m299.781,731.59c-.216,2.947 .336,11.059 .336,11.059l1.286-10.854c.107-.861 10.719-86.83-20.849-123.293-9.228-10.666-21.228-16.199-35.668-16.453l-.026,1.629c13.958,.248 25.548,5.592 34.466,15.889 31.09,35.921 20.523,121.156 20.455,122.023z"/>
<path d="m242.367,592.121c-.218,1.006 .425,1.998 1.433,2.213s4.396-.623 6.636-.359c.346,.033-.168-1.385-.82-1.523-2.39-.523-4.007-.197-5.199-.979-.867-.565-1.836-.36-2.05,.648z"/>
<path d="m298.788,735.672l1.308,.086c.045-.699 4.037-70.07-23.147-97.615-7.945-8.045-17.842-11.855-29.415-11.309l.066,1.303c11.19-.525 20.743,3.145 28.416,10.926 26.776,27.132 22.813,95.919 22.772,96.609z"/>
<path d="m245.518,627.021c-.12,.824 .448,1.58 1.262,1.701 .82,.119 3.488-.725 5.298-.633 .273,.004-.209-1.098-.739-1.18-1.938-.297-3.215,.049-4.213-.512-.721-.407-1.488-.186-1.608,.624z"/>
</g>
<path fill="none" d="m.5,512.5h512v512h-512z"/>
</svg>
